<svg xmlns="http://www.w3.org/2000/svg" width="22" height="22" viewBox="0 0 22 22"><defs><style>.a{fill:#ecf0f1;}.b{fill:#e64c3c;}.c{fill:#bdc3c7;}.d{fill:#f3d55b;}.e{fill:#ff5364;}.f{fill:#464f5d;}.g{fill:#fdd7ad;}.h{fill:#f0c419;}.i{fill:#9fc9d3;}.j{fill:#84b5cb;}.k{fill:#285680;}.l{fill:#3b97d3;}</style></defs><path class="a" d="M1,14H22.241V29.552A1.138,1.138,0,0,1,21.1,30.69H2.138A1.138,1.138,0,0,1,1,29.552Z" transform="translate(-0.621 -8.69)"/><path class="b" d="M3.414,5H20.483A1.517,1.517,0,0,1,22,6.517V8.793a.379.379,0,0,1-.379.379H.379A.379.379,0,0,1,0,8.793V6.517A1.517,1.517,0,0,1,1.517,5Z" transform="translate(0 -3.103)"/><rect class="c" width="1" height="4" rx="0.5" transform="translate(2)"/><rect class="c" width="2" height="4" rx="1" transform="translate(7)"/><rect class="c" width="2" height="4" rx="1" transform="translate(13)"/><rect class="c" width="1" height="4" rx="0.5" transform="translate(19)"/><path class="d" d="M17,46H27.241v3.034H17Z" transform="translate(-10.552 -28.552)"/><path class="e" d="M7.655,46v3.034H6.138A1.138,1.138,0,0,1,5,47.9v-.759A1.138,1.138,0,0,1,6.138,46Z" transform="translate(-3.103 -28.552)"/><path class="c" d="M12,46h1.9v3.034H12Z" transform="translate(-7.448 -28.552)"/><path class="f" d="M49.9,48.622l-1.9.842V47.78Z" transform="translate(-29.793 -29.657)"/><path class="g" d="M45.517,46.675v1.684L44,49.034V46Z" transform="translate(-27.31 -28.552)"/><path class="h" d="M18.9,49.379a.379.379,0,0,1-.379.379H17V49h1.517A.379.379,0,0,1,18.9,49.379Z" transform="translate(-10.552 -30.414)"/><path class="h" d="M31.586,49v.759H24.379a.379.379,0,0,1,0-.759Z" transform="translate(-14.897 -30.414)"/><path class="i" d="M14.359,24.171a4.168,4.168,0,1,1-.561-2.094,4.168,4.168,0,0,1,.561,2.094Z" transform="translate(-3.738 -12.413)"/><path class="j" d="M16.827,26.655a4.175,4.175,0,0,1-6.266,3.611,4.175,4.175,0,0,1,5.7-5.7,4.164,4.164,0,0,1,.561,2.094Z" transform="translate(-6.207 -14.896)"/><path class="c" d="M38.586,20.759H31.379a.379.379,0,1,1,0-.759h7.207a.379.379,0,1,1,0,.759Z" transform="translate(-19.241 -12.414)"/><path class="c" d="M38.586,25.759H31.379a.379.379,0,1,1,0-.759h7.207a.379.379,0,1,1,0,.759Z" transform="translate(-19.241 -15.517)"/><path class="c" d="M38.586,30.759H31.379a.379.379,0,1,1,0-.759h7.207a.379.379,0,0,1,0,.759Z" transform="translate(-19.241 -18.621)"/><path class="c" d="M38.586,35.759H31.379a.379.379,0,1,1,0-.759h7.207a.379.379,0,1,1,0,.759Z" transform="translate(-19.241 -21.724)"/><path class="c" d="M35.172,40.759H31.379a.379.379,0,1,1,0-.759h3.793a.379.379,0,0,1,0,.759Z" transform="translate(-19.241 -24.828)"/><g transform="translate(1.897 7.207)"><path class="k" d="M16.379,20.4A.379.379,0,0,1,16,20.021v-.642a.379.379,0,1,1,.759,0v.642A.379.379,0,0,1,16.379,20.4Z" transform="translate(-11.828 -19)"/><path class="k" d="M16.379,40.708A.379.379,0,0,1,16,40.329v-.642a.379.379,0,0,1,.759,0v.642A.379.379,0,0,1,16.379,40.708Z" transform="translate(-11.828 -31.605)"/><path class="k" d="M26.329,30.759h-.642a.379.379,0,0,1,0-.759h.642a.379.379,0,1,1,0,.759Z" transform="translate(-17.605 -25.828)"/><path class="k" d="M6.021,30.759H5.379a.379.379,0,1,1,0-.759h.642a.379.379,0,0,1,0,.759Z" transform="translate(-5 -25.828)"/><path class="k" d="M6.854,35.731a.379.379,0,0,1-.19-.708L7.22,34.7a.379.379,0,1,1,.379.657l-.556.321a.379.379,0,0,1-.19.051Z" transform="translate(-5.915 -28.714)"/><path class="k" d="M24.441,25.577a.379.379,0,0,1-.19-.708l.556-.321a.379.379,0,1,1,.379.657l-.556.321a.379.379,0,0,1-.19.051Z" transform="translate(-16.832 -22.412)"/><path class="k" d="M11.2,21.785a.379.379,0,0,1-.329-.19l-.321-.556a.379.379,0,1,1,.657-.379l.321.556a.379.379,0,0,1-.328.569Z" transform="translate(-8.412 -19.911)"/><path class="k" d="M21.352,39.372a.379.379,0,0,1-.329-.19l-.321-.556a.379.379,0,1,1,.657-.379l.321.556a.379.379,0,0,1-.328.569Z" transform="translate(-14.714 -30.827)"/><path class="k" d="M10.88,39.372a.379.379,0,0,1-.328-.569l.321-.556a.379.379,0,1,1,.657.379l-.321.556A.379.379,0,0,1,10.88,39.372Z" transform="translate(-8.414 -30.827)"/><path class="k" d="M21.033,21.785a.379.379,0,0,1-.328-.569l.321-.556a.379.379,0,1,1,.657.379l-.321.556a.379.379,0,0,1-.329.19Z" transform="translate(-14.716 -19.911)"/><path class="k" d="M7.4,25.577a.379.379,0,0,1-.19-.051l-.556-.321a.379.379,0,1,1,.379-.657l.556.321a.379.379,0,0,1-.19.708Z" transform="translate(-5.911 -22.412)"/><path class="k" d="M24.991,35.731a.379.379,0,0,1-.19-.051l-.556-.321a.379.379,0,1,1,.379-.657l.556.321a.379.379,0,0,1-.19.708Z" transform="translate(-16.827 -28.714)"/><path class="k" d="M17.138,28.172A.379.379,0,0,1,16.822,28l-.759-1.138A.382.382,0,0,1,16,26.655V24.379a.379.379,0,1,1,.759,0v2.162l.695,1.042a.379.379,0,0,1-.316.589Z" transform="translate(-11.828 -22.103)"/></g><path class="l" d="M9.552,28.1A4.552,4.552,0,1,1,14.1,23.552,4.552,4.552,0,0,1,9.552,28.1Zm0-8.345a3.793,3.793,0,1,0,3.793,3.793A3.793,3.793,0,0,0,9.552,19.759Z" transform="translate(-3.103 -11.793)"/></svg>