<svg xmlns="http://www.w3.org/2000/svg" width="70" height="70" viewBox="0 0 70 70"><defs><style>.a{fill:red;}.b{fill:#fff;}</style></defs><g transform="translate(-41 -486)"><circle class="a" cx="35" cy="35" r="35" transform="translate(41 486)"/><path class="b" d="M29.165,21.214,22.6,18.4a1.407,1.407,0,0,0-1.642.4l-2.908,3.553a21.734,21.734,0,0,1-10.39-10.39L11.211,9.06a1.4,1.4,0,0,0,.4-1.642L8.8.851A1.417,1.417,0,0,0,7.189.036l-6.1,1.407A1.407,1.407,0,0,0,0,2.815,27.2,27.2,0,0,0,27.207,30.021a1.407,1.407,0,0,0,1.372-1.091l1.407-6.1a1.424,1.424,0,0,0-.821-1.618Z" transform="matrix(-0.695, 0.719, -0.719, -0.695, 97.225, 523.63)"/></g></svg>