<svg xmlns="http://www.w3.org/2000/svg" width="18.776" height="21.459" viewBox="0 0 18.776 21.459"><path d="M16.765,10.729H6.371V6.408a3.018,3.018,0,1,1,6.035-.038v.671a1,1,0,0,0,1.006,1.006h1.341a1,1,0,0,0,1.006-1.006V6.371a6.371,6.371,0,1,0-12.741.063v4.3H2.012A2.012,2.012,0,0,0,0,12.741v6.706a2.012,2.012,0,0,0,2.012,2.012H16.765a2.012,2.012,0,0,0,2.012-2.012V12.741A2.012,2.012,0,0,0,16.765,10.729Zm-5.7,6.371a1.676,1.676,0,1,1-3.353,0V15.088a1.676,1.676,0,0,1,3.353,0Z" transform="translate(0 0)"/></svg>