<svg xmlns="http://www.w3.org/2000/svg" width="18.263" height="18.263" viewBox="0 0 18.263 18.263"><defs><style>.a{fill:#ffc107;}.b{fill:#fafafa;}.c{fill:#2196f3;}</style></defs><g transform="translate(0 -0.263)"><circle class="a" cx="4.5" cy="4.5" r="4.5" transform="translate(9.263 0.263)"/><path class="b" d="M321.777,83.506a.576.576,0,0,1-.407-.169l-1.152-1.152a.576.576,0,0,1,.814-.814l.746.746,1.9-1.9a.576.576,0,0,1,.814.814l-2.3,2.3A.576.576,0,0,1,321.777,83.506Z" transform="translate(-308.523 -77.081)"/><path class="c" d="M13.92,102.915a5.864,5.864,0,0,1-5.852-5.874A5.8,5.8,0,0,1,8.161,96H2.3A2.307,2.307,0,0,0,0,98.3v6.915a2.307,2.307,0,0,0,2.3,2.3v2.881a.574.574,0,0,0,.335.522.562.562,0,0,0,.241.054.579.579,0,0,0,.375-.137l3.872-3.321h5.55a2.307,2.307,0,0,0,2.3-2.3v-2.4A5.744,5.744,0,0,1,13.92,102.915Z" transform="translate(0 -92.457)"/></g></svg>