<svg xmlns="http://www.w3.org/2000/svg" xmlns:xlink="http://www.w3.org/1999/xlink" width="81.432" height="81.432" viewBox="0 0 81.432 81.432"><defs><style>.a{fill:#0dd8f9;}.b{fill:#fff;fill-rule:evenodd;}.c{filter:url(#a);}</style><filter id="a" x="0" y="0" width="81.432" height="81.432" filterUnits="userSpaceOnUse"><feOffset dx="1" dy="3" input="SourceAlpha"/><feGaussianBlur stdDeviation="7" result="b"/><feFlood flood-color="#7e9b97" flood-opacity="0.886"/><feComposite operator="in" in2="b"/><feComposite in="SourceGraphic"/></filter></defs><g transform="translate(-848.26 -1690.261)"><g class="c" transform="matrix(1, 0, 0, 1, 848.26, 1690.26)"><ellipse class="a" cx="19.716" cy="19.716" rx="19.716" ry="19.716" transform="translate(20 18)"/></g><path class="b" d="M2.384,11.92,4.669,14.5a.779.779,0,0,0,1.093,0L7.947,11.92h8.741a.855.855,0,0,0,.795-.795V.795A.855.855,0,0,0,16.688,0H.795A.855.855,0,0,0,0,.795V11.125a.855.855,0,0,0,.795.795Zm.795-8.543a.214.214,0,0,1,.2-.2H13.41a.214.214,0,0,1,.2.2v.4a.214.214,0,0,1-.2.2H3.377a.214.214,0,0,1-.2-.2Zm0,2.384a.214.214,0,0,1,.2-.2H13.41a.214.214,0,0,1,.2.2v.4a.214.214,0,0,1-.2.2H3.377a.214.214,0,0,1-.2-.2Zm0,2.384a.214.214,0,0,1,.2-.2h6.854a.214.214,0,0,1,.2.2v.4a.214.214,0,0,1-.2.2H3.377a.214.214,0,0,1-.2-.2Zm0,0" transform="translate(879.324 1720.641)"/></g></svg>