<svg xmlns="http://www.w3.org/2000/svg" width="32.305" height="33.912" viewBox="0 0 32.305 33.912"><defs><style>.a{fill:#55696e;}.b{fill:#748488;}.c{fill:#ffb69e;}.d{fill:#b4d7dc;}.e{fill:#87afb9;}.f{fill:#55879b;}.g{fill:#6c9baa;}.h{fill:#da3f81;}.i{fill:#64afff;}.j{fill:#4699f2;}</style></defs><g transform="translate(0)"><g transform="translate(19.328)"><g transform="translate(0 0)"><g transform="translate(6.821 17.198)"><path class="a" d="M410.783,272.422a1.53,1.53,0,0,1-1.53-1.53V258.664a1.53,1.53,0,0,1,3.06,0v12.228A1.53,1.53,0,0,1,410.783,272.422Z" transform="translate(-409.253 -257.134)"/></g><g transform="translate(3.095 17.198)"><path class="b" d="M353.806,272.422a1.535,1.535,0,0,1-1.535-1.53V258.664a1.533,1.533,0,0,1,3.065,0v12.228A1.53,1.53,0,0,1,353.806,272.422Z" transform="translate(-352.271 -257.134)"/></g><g transform="translate(0)"><circle class="c" cx="2.642" cy="2.642" r="2.642" transform="matrix(0.987, -0.16, 0.16, 0.987, 3.458, 0.845)"/><path class="c" d="M306.258,273.118l-1.32.641a1.275,1.275,0,1,0,2.55,0Z" transform="translate(-304.938 -254.875)"/><path class="c" d="M386.336,93.692h-2.628l-.03.157a1.358,1.358,0,1,0,2.686.118Z" transform="translate(-378.506 -87.182)"/><path class="c" d="M465.7,273.5l-1.3.617a1.275,1.275,0,1,0,2.55,0Z" transform="translate(-453.974 -255.229)"/></g><path class="d" d="M314.85,93.692h-2.083a1.314,1.314,0,0,1-2.628,0h-2.133a3.051,3.051,0,0,0-3.069,3.008v9.366h2.55V96.707a.542.542,0,0,1,.545-.465v6.451l.318.423-.318.419v2.374h6.786l0-2.377-.183-.421.182-.421-.008-6.448h.044a.512.512,0,0,1,.514.458v9.366h2.55V96.694A3.047,3.047,0,0,0,314.85,93.692Z" transform="translate(-304.937 -87.182)"/><path class="e" d="M352.271,231.339h2.086v.842h-2.086Z" transform="translate(-349.176 -215.828)"/><path class="e" d="M424.023,231.339H426.1v.842h-2.082Z" transform="translate(-416.236 -215.828)"/></g><path class="d" d="M364.8,32.048h-.676v-.4a.529.529,0,0,0-.529-.529h-3.2a.529.529,0,0,0-.529.529v.4h-.6a.211.211,0,0,0-.211.211v.558a.211.211,0,0,0,.211.211h.6v.4a.529.529,0,0,0,.529.529h3.2a.529.529,0,0,0,.529-.529v-.4h.675a.211.211,0,0,0,.211-.211V32.26A.211.211,0,0,0,364.8,32.048Z" transform="translate(-355.51 -28.699)"/></g><g transform="translate(0 0.725)"><path class="f" d="M16.508,21.609H12.865A3.513,3.513,0,0,1,9.356,18.1V8.733a3.513,3.513,0,0,1,3.509-3.509H18.44a3.513,3.513,0,0,1,3.509,3.509H20.581A2.143,2.143,0,0,0,18.44,6.592H12.865a2.143,2.143,0,0,0-2.141,2.141V18.1a2.143,2.143,0,0,0,2.141,2.141h3.643Z" transform="translate(-9.356 -5.224)"/></g><g transform="translate(16.454 23.088)"><path class="f" d="M261.8,356.976a.813.813,0,0,1-.813-.813v-8.14a.813.813,0,1,1,1.625,0v8.14A.813.813,0,0,1,261.8,356.976Z" transform="translate(-260.983 -347.211)"/></g><path class="g" d="M129.294,43.956a2.111,2.111,0,0,0-1.691-2.018l-4.182-.895a2.111,2.111,0,0,0-2.343,1.2l-.244.542a.642.642,0,0,0,.458.894l7.248,1.515a.642.642,0,0,0,.77-.645Z" transform="translate(-113.491 -37.936)"/><g transform="translate(13.3 19.265)"><path class="h" d="M225.681,293.933a1.11,1.11,0,0,1-.638-.2l-3.931-2.749h-7.251a1.114,1.114,0,0,1,0-2.229h7.6a1.114,1.114,0,0,1,.639.2l4.219,2.951a1.114,1.114,0,0,1-.64,2.028Z" transform="translate(-212.747 -288.754)"/></g><path class="i" d="M161.814,188.789a1.25,1.25,0,0,0-1.744-.291l-2.25,1.359a1.25,1.25,0,0,0-.291,1.744l3.57,4.951,5.046-1.716Z" transform="translate(-147.622 -175.57)"/><circle class="c" cx="2.705" cy="2.705" r="2.705" transform="matrix(0.535, -0.845, 0.845, 0.535, 6.039, 11.452)"/><g transform="translate(13.53 15.685)"><path class="c" d="M222.463,234.908h0l-3.763.017-1.05-.922-1.15.125c-.016-.014-.222,1.316-.222,1.316l1.393,1.223a.994.994,0,0,0,.656.247h0l4.14-.018a.994.994,0,0,0,0-1.988Z" transform="translate(-216.274 -234.003)"/></g><g transform="translate(11.458 13.863)"><path class="j" d="M188.021,207.952l-1.795-1.576a.994.994,0,1,0-1.311,1.494l1.735,1.523Z" transform="translate(-184.577 -206.13)"/></g><g transform="translate(4.034 11.477)"><path class="d" d="M94.144,187.094a1.133,1.133,0,0,1-.67-.219l-5.687-4.152H79.773a1.138,1.138,0,0,1-.931-.484l-7.587-10.808a1.138,1.138,0,1,1,1.862-1.307l7.247,10.324h7.794a1.138,1.138,0,0,1,.671.219l5.987,4.371a1.138,1.138,0,0,1-.672,2.057Z" transform="translate(-71.049 -169.64)"/></g><path class="g" d="M211.654,470.919c-2.381,0-4.311,1.167-4.311,1.725s1.93,1.01,4.311,1.01,4.311-.452,4.311-1.01S214.035,470.919,211.654,470.919Z" transform="translate(-194.397 -439.742)"/></g></svg>