<svg xmlns="http://www.w3.org/2000/svg" width="34.708" height="46.78" viewBox="0 0 34.708 46.78"><defs><style>.a{fill:#edebed;}.b{fill:#a5cdff;}.c{fill:#8cb4eb;}.d{fill:#64505a;}.e{fill:#e3aa75;}.f{fill:#d29b6e;}.g{fill:#f5b97d;}.h{fill:#6e5a64;}.i{fill:#fff;}.j{fill:#dbd9dc;}.k{fill:#84737b;}</style></defs><g transform="translate(-66.065)"><path class="a" d="M97.752,357.367l-7.793-2.75H76.878l-7.793,2.75a4.527,4.527,0,0,0-3.02,4.269v5.1A2.264,2.264,0,0,0,68.329,369H98.509a2.264,2.264,0,0,0,2.264-2.264v-5.1A4.527,4.527,0,0,0,97.752,357.367Z" transform="translate(0 -322.217)"/><rect class="b" width="7.545" height="14.336" transform="translate(79.646 32.445)"/><path class="c" d="M214.71,358.3a6.022,6.022,0,0,0,7.545,0v-3.2H214.71Z" transform="translate(-135.064 -322.653)"/><path class="d" d="M133.591,23.552a12.753,12.753,0,0,1-.744-4.689V12.827a12.827,12.827,0,1,0-25.653,0v6.036a12.751,12.751,0,0,1-.744,4.689,1.5,1.5,0,0,0,.922,1.957,50.275,50.275,0,0,0,8.122,2.031h9.054a50.271,50.271,0,0,0,8.122-2.031A1.5,1.5,0,0,0,133.591,23.552Z" transform="translate(-36.601)"/><path class="e" d="M210.979,290.584h0a4.527,4.527,0,0,1-4.527-4.527v-5.282h9.054v5.282A4.527,4.527,0,0,1,210.979,290.584Z" transform="translate(-127.56 -255.121)"/><path class="f" d="M206.451,283.595a11.244,11.244,0,0,0,9.054,0v-2.821h-9.054v2.821Z" transform="translate(-127.559 -255.12)"/><path class="g" d="M158.454,95.449h0a9.809,9.809,0,0,1-9.809-9.809V74.323h19.617V85.641A9.809,9.809,0,0,1,158.454,95.449Z" transform="translate(-75.035 -67.532)"/><path class="e" d="M155.037,77.445a.7.7,0,0,1,.442-.153.733.733,0,0,1,.442.147,32.268,32.268,0,0,0,12.342,5.416V74.323H148.645V85.641a9.744,9.744,0,0,0,11.318,9.681,9.8,9.8,0,0,1-8.3-9.681V81.388a3.023,3.023,0,0,1,1.407-2.547A23.411,23.411,0,0,0,155.037,77.445Z" transform="translate(-75.035 -67.532)"/><g transform="translate(77.383 13.581)"><path class="h" d="M192.2,150.154h-1.509a.755.755,0,1,1,0-1.509H192.2a.755.755,0,1,1,0,1.509Z" transform="translate(-189.936 -148.645)"/><path class="h" d="M291.3,150.154h-1.509a.755.755,0,1,1,0-1.509H291.3a.755.755,0,1,1,0,1.509Z" transform="translate(-279.978 -148.645)"/></g><g transform="translate(69.837 39.989)"><path class="b" d="M359.624,439.564h-1.132v-1.132a.755.755,0,1,0-1.509,0v1.132h-1.132a.755.755,0,0,0,0,1.509h1.132v1.132a.755.755,0,0,0,1.509,0v-1.132h1.132a.755.755,0,0,0,0-1.509Z" transform="translate(-332.461 -437.678)"/><path class="b" d="M114.145,466.979h-6.036a.754.754,0,0,1-.755-.755v-3.018a.755.755,0,0,1,.755-.755h6.036a.755.755,0,0,1,.755.755v3.018A.754.754,0,0,1,114.145,466.979Z" transform="translate(-107.354 -460.188)"/></g><path class="i" d="M141.142,441.451a.754.754,0,0,1-.755-.755v-2.264a.755.755,0,1,1,1.509,0V440.7A.754.754,0,0,1,141.142,441.451Z" transform="translate(-67.531 -397.689)"/><g transform="translate(78.137 15.845)"><path class="d" d="M198.948,175.684a.754.754,0,0,1-.754-.755v-.755a.755.755,0,1,1,1.509,0v.755A.754.754,0,0,1,198.948,175.684Z" transform="translate(-198.194 -173.42)"/><path class="d" d="M298.044,175.684a.754.754,0,0,1-.754-.755v-.755a.755.755,0,1,1,1.509,0v.755A.754.754,0,0,1,298.044,175.684Z" transform="translate(-288.236 -173.42)"/></g><path class="i" d="M220.768,227.067a.679.679,0,0,0-.647.891,3.539,3.539,0,0,0,6.49,0,.678.678,0,0,0-.647-.891Z" transform="translate(-139.947 -206.32)"/><path class="h" d="M126.808,8.7a31.689,31.689,0,0,0,14.458,5.638V13.163A13.1,13.1,0,0,0,128.194,0a12.827,12.827,0,0,0-12.582,12.824v.481a33.712,33.712,0,0,0,8.47-4.576A2.234,2.234,0,0,1,126.808,8.7Z" transform="translate(-45.02 0)"/><g transform="translate(74.937 29.554)"><path class="j" d="M263.869,325.044l-3.342-1.576L256,340.694h3.773l4.173-9.042a1.509,1.509,0,0,0-.115-1.469l-1.041-1.561,1.477-1.969A1.069,1.069,0,0,0,263.869,325.044Z" transform="translate(-247.518 -323.468)"/><path class="j" d="M163.782,325.044l3.342-1.576,4.527,17.226h-3.773l-4.173-9.042a1.509,1.509,0,0,1,.115-1.469l1.041-1.561-1.477-1.969A1.069,1.069,0,0,1,163.782,325.044Z" transform="translate(-163.169 -323.468)"/></g><path class="k" d="M226.235,12.241A12.8,12.8,0,0,0,209.143.744C212.118,4.6,217.8,10.3,226.235,12.241Z" transform="translate(-130.005 0)"/><path class="c" d="M114.145,487.98h-6.036a.754.754,0,0,1-.755-.754v1.509a.755.755,0,0,0,.755.755h6.036a.755.755,0,0,0,.755-.755v-1.509A.755.755,0,0,1,114.145,487.98Z" transform="translate(-37.517 -442.71)"/></g></svg>