<svg xmlns="http://www.w3.org/2000/svg" width="14.44" height="19" viewBox="0 0 14.44 19"><g transform="translate(-7.313 -3.938)"><path d="M21.5,8.642h4.323a.235.235,0,0,0,.237-.238h0a1.406,1.406,0,0,0-.508-1.088L21.932,4.3a1.526,1.526,0,0,0-.979-.352h0A.351.351,0,0,0,20.6,4.3V7.74A.9.9,0,0,0,21.5,8.642Z" transform="translate(-4.312 -0.002)"/><path d="M15.055,7.737v-3.8H8.832a1.524,1.524,0,0,0-1.52,1.52v15.96a1.524,1.524,0,0,0,1.52,1.52h11.4a1.524,1.524,0,0,0,1.52-1.52V9.875h-4.56A2.141,2.141,0,0,1,15.055,7.737Z" transform="translate(0)"/></g></svg>