<svg xmlns="http://www.w3.org/2000/svg" width="18.379" height="14" viewBox="0 0 18.379 14"><defs><style>.a{fill:#858585;}</style></defs><g transform="translate(0 -61)"><g transform="translate(0 61)"><path class="a" d="M16.764,61H1.615A1.618,1.618,0,0,0,0,62.615V73.385A1.618,1.618,0,0,0,1.615,75H16.764a1.618,1.618,0,0,0,1.615-1.615V62.615A1.618,1.618,0,0,0,16.764,61Zm-.223,1.077L9.224,69.394l-7.38-7.317ZM1.077,73.162V62.833l5.186,5.142Zm.761.761,5.19-5.19,1.818,1.8a.538.538,0,0,0,.76,0l1.773-1.773,5.162,5.162ZM17.3,73.162,12.141,68,17.3,62.838Z" transform="translate(0 -61)"/></g></g></svg>