<svg xmlns="http://www.w3.org/2000/svg" width="10.131" height="21.797" viewBox="0 0 10.131 21.797"><defs><style>.a{fill:#2f5597;}</style></defs><g transform="translate(-146.32)"><g transform="translate(146.32)"><path class="a" d="M155.719,0h-2.27a4.886,4.886,0,0,0-3.743,1.237,5.209,5.209,0,0,0-1.137,3.644V6.41a.732.732,0,0,1-.732.732h-.785a.732.732,0,0,0-.732.732v2.292a.732.732,0,0,0,.732.732h.785a.732.732,0,0,1,.732.732v9.435a.732.732,0,0,0,.732.732h3.046a.732.732,0,0,0,.732-.732V11.631a.732.732,0,0,1,.732-.732h1.538a.831.831,0,0,0,.809-.728l.243-2.3a.644.644,0,0,0-.655-.728H153.81a.732.732,0,0,1-.732-.732V5.264a4.111,4.111,0,0,1,.04-.655,1.274,1.274,0,0,1,.179-.456.73.73,0,0,1,.45-.311,3.2,3.2,0,0,1,.827-.086h1.146a.732.732,0,0,0,.732-.732V.732A.731.731,0,0,0,155.719,0Z" transform="translate(-146.32)"/></g></g></svg>