<svg xmlns="http://www.w3.org/2000/svg" width="19.163" height="12.262" viewBox="0 0 19.163 12.262"><defs><style>.a{fill:#f34a38;}</style></defs><g transform="translate(0 -82.519)"><path class="a" d="M6.724,89.915H9.718a3.806,3.806,0,1,1-1.033-4.081.412.412,0,0,0,.561,0l1.1-1.035a.411.411,0,0,0,0-.6,6.108,6.108,0,0,0-4.093-1.678,6.131,6.131,0,1,0,6,6.475c0-.04.008-1.407.008-1.407H6.724A.411.411,0,0,0,6.313,88V89.5A.411.411,0,0,0,6.724,89.915Z" transform="translate(0 0)"/><path class="a" d="M327.649,165.039v-1.471a.36.36,0,0,0-.36-.36h-1.238a.36.36,0,0,0-.36.36v1.471H324.22a.36.36,0,0,0-.36.36v1.238a.36.36,0,0,0,.36.36h1.471v1.471a.36.36,0,0,0,.36.36h1.238a.36.36,0,0,0,.36-.36V167h1.471a.36.36,0,0,0,.36-.36V165.4a.36.36,0,0,0-.36-.36Z" transform="translate(-310.316 -77.314)"/></g></svg>