<svg xmlns="http://www.w3.org/2000/svg" width="39.804" height="39.804" viewBox="0 0 39.804 39.804"><defs><style>.a{fill:#dc4e41;}.b{fill:#fff;}</style></defs><g transform="translate(0 0.001)"><g transform="translate(0 -0.001)"><circle class="a" cx="19.902" cy="19.902" r="19.902"/></g><g transform="translate(6.924 12.574)"><path class="a" d="M19.522,43.663a8.2,8.2,0,0,0,5.532,7.758A8.094,8.094,0,0,0,33.9,49.062,9.276,9.276,0,0,0,35.562,42.5c-2.617-.023-5.234-.016-7.848-.012,0,.932,0,1.861,0,2.793,1.567.043,3.134.023,4.7.055a4.534,4.534,0,0,1-2.664,3.107,5.183,5.183,0,1,1-3.491-9.752,5.763,5.763,0,0,1,4.851.948c.729-.682,1.411-1.411,2.08-2.147a8.249,8.249,0,0,0-13.674,6.171Z" transform="translate(-19.517 -35.446)"/><path class="a" d="M74.8,48.668c-.008.78-.016,1.563-.02,2.343-.784.008-1.563.012-2.343.016v2.335c.78,0,1.563.008,2.343.016.008.78.008,1.559.016,2.343.776,0,1.556,0,2.335,0,0-.784.008-1.563.016-2.347l2.343-.012V51.027c-.779,0-1.563-.008-2.343-.016,0-.78-.012-1.563-.016-2.343Z" transform="translate(-53.666 -43.977)"/><path class="b" d="M19.522,43.662A8.249,8.249,0,0,1,33.2,37.492c-.67.737-1.352,1.465-2.08,2.147a5.763,5.763,0,0,0-4.851-.948,5.183,5.183,0,1,0,3.491,9.752,4.534,4.534,0,0,0,2.664-3.107c-1.567-.031-3.134-.012-4.7-.055,0-.932-.008-1.861,0-2.793,2.613,0,5.23-.012,7.848.012A9.273,9.273,0,0,1,33.9,49.061a8.093,8.093,0,0,1-8.847,2.359A8.2,8.2,0,0,1,19.522,43.662Z" transform="translate(-19.517 -35.445)"/><path class="b" d="M74.8,48.668h2.331c0,.78.012,1.563.016,2.343.779.008,1.563.012,2.343.016v2.335l-2.343.012c-.008.784-.012,1.563-.016,2.347-.779,0-1.56,0-2.335,0-.007-.784-.007-1.563-.016-2.343-.779-.008-1.563-.012-2.343-.016V51.026q1.17-.006,2.343-.016C74.789,50.231,74.8,49.448,74.8,48.668Z" transform="translate(-53.666 -43.977)"/></g></g></svg>