<svg xmlns="http://www.w3.org/2000/svg" width="12.469" height="7.293" viewBox="0 0 12.469 7.293"><defs><style>.a{fill:#00dcb7;}</style></defs><g transform="translate(-255 -864)"><g transform="translate(255 864)"><path class="a" d="M2.6,6.664.136,4.2A.463.463,0,1,1,.79,3.55L2.923,5.682,8.469.136A.463.463,0,0,1,9.124.79L3.25,6.664A.463.463,0,0,1,2.6,6.664Z" transform="translate(0 0)"/><path class="a" d="M6.361,6.664,5.136,5.439a.463.463,0,1,1,.655-.655l.9.9L12.235.136A.463.463,0,1,1,12.89.79L7.016,6.664A.463.463,0,0,1,6.361,6.664Z" transform="translate(-0.557 0.493)"/></g></g></svg>