<svg xmlns="http://www.w3.org/2000/svg" width="6.821" height="18.653" viewBox="0 0 6.821 18.653"><g transform="translate(-162.384)"><g transform="translate(164.703)"><g transform="translate(0)"><path d="M228.193,0a2.145,2.145,0,1,0,2.145,2.145A2.148,2.148,0,0,0,228.193,0Zm0,2.836a.691.691,0,1,1,.691-.691A.692.692,0,0,1,228.193,2.836Z" transform="translate(-226.048)"/></g></g><g transform="translate(162.384 5.492)"><g transform="translate(0)"><path d="M168.56,160.685l-1.149.569,1.248-8.436a.724.724,0,0,0,.008-.106,1.963,1.963,0,0,0-.846-1.617,1.935,1.935,0,0,0-1.785-.217c-.022.008-.043.017-.064.028l-3.588,1.769.643,1.3,1.15-.567-1.248,8.432a.729.729,0,0,0-.008.106,1.963,1.963,0,0,0,1.959,1.962,1.932,1.932,0,0,0,.686-.126q.033-.013.065-.028l3.574-1.771Zm-2.735,1.355-.8.4a.491.491,0,0,1-.427-.067.507.507,0,0,1-.219-.376l1.386-9.363.814-.4a.469.469,0,0,1,.417.064.5.5,0,0,1,.216.377Z" transform="translate(-162.384 -150.752)"/></g></g></g></svg>