<svg xmlns="http://www.w3.org/2000/svg" width="13.5" height="9" viewBox="0 0 13.5 9"><defs><style>.a{fill:#fff;}</style></defs><path class="a" d="M13.418,8.658A7.517,7.517,0,0,0,6.75,4.5,7.518,7.518,0,0,0,.082,8.658a.758.758,0,0,0,0,.684A7.517,7.517,0,0,0,6.75,13.5a7.518,7.518,0,0,0,6.668-4.158A.758.758,0,0,0,13.418,8.658ZM6.75,12.375A3.375,3.375,0,1,1,10.125,9,3.375,3.375,0,0,1,6.75,12.375Zm0-5.625a2.234,2.234,0,0,0-.593.089A1.121,1.121,0,0,1,4.589,8.407,2.245,2.245,0,1,0,6.75,6.75Z" transform="translate(0 -4.5)"/></svg>