<svg xmlns="http://www.w3.org/2000/svg" width="16.781" height="19.179" viewBox="0 0 16.781 19.179"><path d="M2.164,10.788H5.249a4.715,4.715,0,0,0,6.282,0h3.085a.6.6,0,0,0,.535-.868,25.316,25.316,0,0,1-1.579-3.579,8.693,8.693,0,0,1-.388-2.7V1.8L8.391,0,3.6,1.8V3.641a8.681,8.681,0,0,1-.387,2.7A25.348,25.348,0,0,1,1.629,9.92a.6.6,0,0,0,.535.868Zm4.728-8.1A.187.187,0,0,1,7.08,2.5h.812V1.686A.187.187,0,0,1,8.079,1.5H8.7a.187.187,0,0,1,.187.187V2.5H9.7a.187.187,0,0,1,.187.187v.624A.187.187,0,0,1,9.7,3.5H8.89v.812a.187.187,0,0,1-.187.187H8.079a.187.187,0,0,1-.187-.187V3.5H7.08a.187.187,0,0,1-.187-.187Zm-1.5,3.309h5.993v1.2a3,3,0,1,1-5.993,0Zm6.571,5.993L8.391,15.56,4.817,11.987A5.023,5.023,0,0,0,0,17a2.18,2.18,0,0,0,2.18,2.18H14.6A2.18,2.18,0,0,0,16.781,17,5.023,5.023,0,0,0,11.965,11.987Z"/></svg>