<svg xmlns="http://www.w3.org/2000/svg" width="14.091" height="16.104" viewBox="0 0 14.091 16.104"><path d="M7.045,8.052A4.026,4.026,0,1,0,3.019,4.026,4.026,4.026,0,0,0,7.045,8.052ZM3.271,13.336a.755.755,0,1,0,.755-.755A.753.753,0,0,0,3.271,13.336Zm6.794-4.259v1.541a2.52,2.52,0,0,1,2.013,2.466V14.4a.5.5,0,0,1-.406.494l-1.013.2a.25.25,0,0,1-.3-.2l-.1-.494a.249.249,0,0,1,.2-.3l.607-.123v-.9a1.51,1.51,0,1,0-3.019.06v.84l.607.123a.255.255,0,0,1,.2.3l-.1.494a.255.255,0,0,1-.3.2l-.981-.132a.5.5,0,0,1-.434-.5V13.084a2.523,2.523,0,0,1,2.013-2.466V9.2c-.069.022-.138.035-.208.06a5.441,5.441,0,0,1-3.611,0,3.476,3.476,0,0,0-.711-.164v2.567a1.761,1.761,0,1,1-1.006,0V9.131A4.216,4.216,0,0,0,0,13.286v1.409A1.411,1.411,0,0,0,1.409,16.1H12.682a1.411,1.411,0,0,0,1.409-1.409V13.286A4.221,4.221,0,0,0,10.065,9.077Z"/></svg>