<svg xmlns="http://www.w3.org/2000/svg" width="8.866" height="9.457" viewBox="0 0 8.866 9.457"><defs><style>.a{fill:#858585;}</style></defs><path class="a" d="M5.526,5.474H6.708V6.657H5.526Zm1.773,0H8.481V6.657H7.3Zm1.773,0h1.182V6.657H9.072ZM3.753,9.021H4.935V10.2H3.753Zm1.773,0H6.708V10.2H5.526Zm1.773,0H8.481V10.2H7.3ZM5.526,7.248H6.708V8.43H5.526Zm1.773,0H8.481V8.43H7.3Zm1.773,0h1.182V8.43H9.072Zm-5.32,0H4.935V8.43H3.753Zm6.5-5.32v.591H9.072V1.928H4.935v.591H3.753V1.928H2.571v9.457h8.866V1.928H10.255Zm.591,8.866H3.162v-6.5h7.684Z" transform="translate(-2.571 -1.928)"/></svg>