<svg xmlns="http://www.w3.org/2000/svg" width="13.087" height="13.087" viewBox="0 0 13.087 13.087"><defs><style>.a{fill:#fff;}</style></defs><path class="a" d="M17.252,16.538,15.594,14.88l1.658-1.658a.5.5,0,0,0-.711-.711l-1.658,1.658-1.658-1.658a.5.5,0,0,0-.711.711l1.658,1.658-1.658,1.658a.486.486,0,0,0,0,.711.5.5,0,0,0,.711,0l1.658-1.658,1.658,1.658a.505.505,0,0,0,.711,0A.5.5,0,0,0,17.252,16.538Z" transform="translate(-8.34 -8.337)"/><path class="a" d="M9.918,4.256a5.66,5.66,0,1,1-4,1.658,5.625,5.625,0,0,1,4-1.658m0-.881a6.543,6.543,0,1,0,6.543,6.543A6.542,6.542,0,0,0,9.918,3.375Z" transform="translate(-3.375 -3.375)"/></svg>