<svg xmlns="http://www.w3.org/2000/svg" width="15.882" height="14.666" viewBox="0 0 15.882 14.666"><g transform="translate(-3.382 -4.5)"><path d="M7.122,4.507c2.066,0,3.82,1.066,3.82,3.132V8.25h0V19.094a.075.075,0,0,1-.145.027v0a3.592,3.592,0,0,0-3.144-2.693A4.848,4.848,0,0,0,4.1,17.842a.412.412,0,0,1-.252.111H3.672c-.141,0-.29-.1-.29-.233V6.65C3.378,5.424,5.055,4.507,7.122,4.507Z" transform="translate(0 -0.003)"/><path d="M22.523,4.5c-2.066,0-3.82,1.066-3.82,3.132v.611h0V19.087a.075.075,0,0,0,.145.027v0a3.629,3.629,0,0,1,3.144-2.693,4.84,4.84,0,0,1,3.556,1.417.434.434,0,0,0,.252.111h.172c.141,0,.29-.1.29-.233V6.639C26.266,5.417,24.589,4.5,22.523,4.5Z" transform="translate(-6.998)"/></g></svg>