<svg xmlns="http://www.w3.org/2000/svg" width="16.216" height="14.414" viewBox="0 0 16.216 14.414"><path d="M8.107,3.237,1.955,8.662a1.3,1.3,0,0,1-.154.094v5.206a.45.45,0,0,0,.45.45H13.963a.45.45,0,0,0,.45-.45V8.758a1.314,1.314,0,0,1-.148-.09Zm2.7,7.348a.225.225,0,0,1-.225.225H9.008v1.577a.225.225,0,0,1-.225.225H7.432a.225.225,0,0,1-.225-.225V10.81H5.63a.225.225,0,0,1-.225-.225V9.233a.225.225,0,0,1,.225-.225H7.207V7.432a.225.225,0,0,1,.225-.225H8.783a.225.225,0,0,1,.225.225V9.008h1.577a.225.225,0,0,1,.225.225Zm5.256-3.933L8.86.289a1.122,1.122,0,0,0-1.5,0L.149,6.651a.45.45,0,0,0-.034.636l.6.671a.45.45,0,0,0,.636.034L7.81,2.3a.45.45,0,0,1,.6,0l6.456,5.694a.45.45,0,0,0,.636-.034l.6-.671a.45.45,0,0,0-.034-.636Z" transform="translate(0.001 0.001)"/></svg>