<svg xmlns="http://www.w3.org/2000/svg" width="13.965" height="14.896" viewBox="0 0 13.965 14.896"><defs><style>.a{fill:#858585;}</style></defs><path class="a" d="M7.226,7.514H9.088V9.376H7.226Zm2.793,0h1.862V9.376H10.019Zm2.793,0h1.862V9.376H12.812ZM4.433,13.1H6.295v1.862H4.433Zm2.793,0H9.088v1.862H7.226Zm2.793,0h1.862v1.862H10.019ZM7.226,10.307H9.088v1.862H7.226Zm2.793,0h1.862v1.862H10.019Zm2.793,0h1.862v1.862H12.812Zm-8.379,0H6.295v1.862H4.433ZM14.674,1.928v.931H12.812V1.928H6.295v.931H4.433V1.928H2.571v14.9H16.536V1.928H14.674ZM15.6,15.893H3.5V5.652H15.6Z" transform="translate(-2.571 -1.928)"/></svg>