<svg height="512pt" viewBox="0 0 512 512" width="512pt" xmlns="http://www.w3.org/2000/svg"><path d="m261.304688 70.382812 31.820312 31.820313-190.917969 190.917969-31.820312-31.820313zm0 0"/><path d="m460.5 54.445312c-1.019531 0-2.03125.03125-3.035156.089844.058594-1.003906.089844-2.015625.089844-3.03125 0-28.445312-23.058594-51.503906-51.5-51.503906-28.445313 0-51.503907 23.058594-51.503907 51.503906v31.699219l-40.214843 40.214844 37.121093 37.121093-21.210937 21.214844-37.125-37.121094-21.214844 21.210938 37.125 37.125-21.210938 21.210938-37.125-37.121094-21.210937 21.210937 37.121094 37.125-21.210938 21.210938-37.125-37.121094-21.210937 21.210937 37.121094 37.125-21.210938 21.210938-37.125-37.121094-21.214844 21.214844 37.125 37.121094-21.214844 21.214844-37.121093-37.125-40.21875 40.21875h-31.699219c-28.441406-.003907-51.5 23.054687-51.5 51.5 0 28.441406 23.058594 51.5 51.503906 51.5 1.015625 0 2.027344-.03125 3.03125-.089844-.058594 1.003906-.089844 2.015625-.089844 3.03125 0 28.445312 23.058594 51.503906 51.5 51.503906 28.445313 0 51.503907-23.058594 51.503907-51.503906v-31.699219l271.351562-271.347656h31.699219c28.441406 0 51.5-23.058594 51.5-51.503907 0-28.441406-23.058594-51.5-51.5-51.5zm0 0"/></svg>