<svg xmlns="http://www.w3.org/2000/svg" width="40.242" height="40.242" viewBox="0 0 40.242 40.242"><defs><style>.a{fill:#6a453b;}</style></defs><path class="a" d="M39.225,23.88H27.231a3.476,3.476,0,0,0-3.472,3.472V39.346a3.476,3.476,0,0,0,3.472,3.472H39.225A3.476,3.476,0,0,0,42.7,39.346V27.352A3.476,3.476,0,0,0,39.225,23.88Zm-6,15.7a6.234,6.234,0,1,1,6.235-6.235A6.241,6.241,0,0,1,33.228,39.584ZM39.663,28.4a1.475,1.475,0,1,1,1.475-1.475A1.477,1.477,0,0,1,39.663,28.4Z" transform="translate(-13.107 -13.174)"/><path class="a" d="M40.449,36.971a3.6,3.6,0,1,0,3.6,3.6A3.6,3.6,0,0,0,40.449,36.971Z" transform="translate(-20.328 -20.395)"/><path class="a" d="M20.121,0A20.121,20.121,0,1,0,40.242,20.121,20.122,20.122,0,0,0,20.121,0Zm12.1,26.172a6.113,6.113,0,0,1-6.106,6.106H14.124a6.113,6.113,0,0,1-6.106-6.106V14.178a6.113,6.113,0,0,1,6.106-6.106H26.118a6.113,6.113,0,0,1,6.106,6.106Z"/></svg>