<svg xmlns="http://www.w3.org/2000/svg" width="12.927" height="14.708" viewBox="0 0 12.927 14.708"><defs><style>.a{fill:#fedbab;}.b{fill:#fec478;}.c{fill:#1689fc;}.d{fill:#136ef1;}</style></defs><g transform="translate(-31)"><path class="a" d="M175.049,96.952a.864.864,0,0,0-.862-.862.862.862,0,1,0,0-1.724h-3.533a7.636,7.636,0,0,0,.517-3.074,1.289,1.289,0,0,0-.862-1.215,1.194,1.194,0,0,0-.431-.078h-.259a.446.446,0,0,0-.414.327l-.241.939c-.362,1.4-1.525,3.1-2.965,3.1V100.4l1.922.638a4.3,4.3,0,0,0,1.362.224h4.042a.862.862,0,1,0,0-1.724h.862a.862.862,0,1,0,0-1.724A.864.864,0,0,0,175.049,96.952Z" transform="translate(-131.122 -87.415)"/><path class="b" d="M304.447,101.261a.862.862,0,1,0,0-1.724h.862a.862.862,0,0,0,0-1.724.862.862,0,1,0,0-1.724.862.862,0,0,0,0-1.724h-3.533a7.637,7.637,0,0,0,.517-3.074,1.289,1.289,0,0,0-.862-1.215A1.194,1.194,0,0,0,301,90v11.261Z" transform="translate(-262.244 -87.415)"/><g transform="translate(31)"><path class="c" d="M34.016,220.618H31.431a.431.431,0,0,1-.431-.431v-7.756a.431.431,0,0,1,.431-.431h2.585a1.294,1.294,0,0,1,1.293,1.293v6.032A1.294,1.294,0,0,1,34.016,220.618Z" transform="translate(-31 -205.91)"/><circle class="c" cx="0.5" cy="0.5" r="0.5" transform="translate(1.463 12.354)"/><path class="c" d="M286.862.431v.862a.431.431,0,0,1-.862,0V.431a.431.431,0,0,1,.862,0Z" transform="translate(-278.675)"/><path class="c" d="M191.272,40.882l-.609-.609a.431.431,0,1,1,.609-.609l.609.609a.431.431,0,0,1-.609.609Z" transform="translate(-185.954 -38.401)"/></g><g transform="translate(38.756)"><path class="d" d="M360.379,40.882a.431.431,0,0,1,0-.609l.609-.609a.431.431,0,0,1,.609.609l-.609.609A.431.431,0,0,1,360.379,40.882Z" transform="translate(-358.551 -38.401)"/><path class="d" d="M301.431.431v.862a.427.427,0,0,1-.431.431V0A.427.427,0,0,1,301.431.431Z" transform="translate(-301)"/></g></g></svg>