<svg xmlns="http://www.w3.org/2000/svg" width="39.304" height="39.304" viewBox="0 0 39.304 39.304"><defs><style>.a{fill:#007ab9;}.b{fill:#fff;}</style></defs><g transform="translate(0 0.001)"><circle class="a" cx="19.652" cy="19.652" r="19.652" transform="translate(0 -0.001)"/><g transform="translate(9.482 8.396)"><path class="b" d="M48.98,36.805v8.1h-4.7V37.348c0-1.9-.678-3.194-2.379-3.194a2.569,2.569,0,0,0-2.409,1.718,3.215,3.215,0,0,0-.156,1.145v7.891h-4.7s.063-12.8,0-14.128h4.7v2c-.009.016-.023.031-.031.046h.031v-.046a4.664,4.664,0,0,1,4.234-2.334c3.09,0,5.407,2.019,5.407,6.358ZM29.726,23.969a2.448,2.448,0,1,0-.062,4.882h.03a2.449,2.449,0,1,0,.031-4.882ZM27.347,44.907h4.7V30.779h-4.7Z" transform="translate(-27.068 -23.969)"/></g></g></svg>