<svg xmlns="http://www.w3.org/2000/svg" width="19.99" height="19.99" viewBox="0 0 19.99 19.99"><defs><style>.a{fill:#858585;}</style></defs><g transform="translate(0 -0.001)"><g transform="translate(0 0.001)"><g transform="translate(0 0)"><circle class="a" cx="1" cy="1" r="1" transform="translate(11.994 11.995)"/><path class="a" d="M9.292,18.429H3.123a1.563,1.563,0,0,1-1.562-1.562v-6.4A1.563,1.563,0,0,1,3.123,8.9H14.368a1.563,1.563,0,0,1,1.562,1.562v1.562a.781.781,0,0,0,1.562,0V10.464a3.127,3.127,0,0,0-3.123-3.123h-.938V4.587A4.642,4.642,0,0,0,8.744,0,4.642,4.642,0,0,0,4.059,4.587V7.341H3.123A3.127,3.127,0,0,0,0,10.464v6.4a3.127,3.127,0,0,0,3.123,3.123H9.292a.781.781,0,1,0,0-1.562ZM5.621,4.587A3.079,3.079,0,0,1,8.744,1.563a3.079,3.079,0,0,1,3.123,3.024V7.341H5.621V4.587Z" transform="translate(0 -0.001)"/><path class="a" d="M272.434,322.145a.781.781,0,0,0-1.089.18L267.5,327.7a.446.446,0,0,1-.642.033l-2.487-2.427a.781.781,0,1,0-1.091,1.118l2.492,2.432.007.007a2.013,2.013,0,0,0,1.385.553q.066,0,.133,0a2.013,2.013,0,0,0,1.432-.746l.026-.035,3.864-5.4A.781.781,0,0,0,272.434,322.145Z" transform="translate(-252.77 -309.427)"/><ellipse class="a" cx="0.5" cy="1" rx="0.5" ry="1" transform="translate(9.994 11.995)"/><ellipse class="a" cx="0.5" cy="1" rx="0.5" ry="1" transform="translate(3.994 11.995)"/><ellipse class="a" cx="0.5" cy="1" rx="0.5" ry="1" transform="translate(6.994 11.995)"/></g></g></g></svg>