<svg id="Login_Top_Icon" data-name="Login Top Icon" xmlns="http://www.w3.org/2000/svg" xmlns:xlink="http://www.w3.org/1999/xlink" width="243.555" height="194" viewBox="0 0 243.555 194">
  <defs>
    <linearGradient id="linear-gradient" x1="664.46" y1="0.5" x2="665.458" y2="0.5" gradientUnits="objectBoundingBox">
      <stop offset="0" stop-color="#fff"/>
      <stop offset="1" stop-color="#90bfc0"/>
    </linearGradient>
    <linearGradient id="linear-gradient-2" x1="1107.734" y1="0.039" x2="1104.917" y2="0.678" gradientUnits="objectBoundingBox">
      <stop offset="0" stop-color="#fff"/>
      <stop offset="1" stop-color="#010101"/>
    </linearGradient>
    <linearGradient id="linear-gradient-3" x1="436.487" y1="0.5" x2="437.486" y2="0.5" xlink:href="#linear-gradient"/>
    <linearGradient id="linear-gradient-4" x1="843.528" y1="0.034" x2="841.341" y2="0.677" xlink:href="#linear-gradient-2"/>
  </defs>
  <circle id="Ellipse_1" data-name="Ellipse 1" cx="82" cy="82" r="82" transform="translate(48.171)" fill="#f3f3f3"/>
  <g id="hospital" transform="translate(55.218 8.023)">
    <path id="Path_150" data-name="Path 150" d="M73.457,142.123A68.842,68.842,0,1,0,4.65,73.28a68.964,68.964,0,0,0,68.807,68.842" transform="translate(1.196 1.227)" fill="#c0e7f5" fill-rule="evenodd"/>
    <path id="Path_151" data-name="Path 151" d="M124.874,117.711c-.644.718-1.285,1.476-1.97,2.159v.036c-.114.114-.227.228-.341.341-.8.834-1.592,1.63-2.426,2.426l-.377-.948c-16.33-.909-43.95-1.97-43.95-1.97L19.09,49.056,36.481,46.9,37.7,35.908,97.822,96.834l16.784,12.919L96.155,66.864l8.485-1.061L76.3,30.493l13.6-1.668.947-8.6,46.982,47.587L141.7,70.8v1.819a69.852,69.852,0,0,1-1.4,13.9,68.761,68.761,0,0,1-15.422,31.183" transform="translate(1.797 1.885)" fill="#9adaed" fill-rule="evenodd"/>
    <path id="Path_153" data-name="Path 153" d="M37.116,104.506a5.188,5.188,0,0,1,.379,2.046,5.857,5.857,0,0,1-11.178,2.427,5.7,5.7,0,0,1-3.9,1.515,5.854,5.854,0,0,1,0-11.707h.19a3.728,3.728,0,0,1-.037-.645A5.837,5.837,0,0,1,28.4,92.307a6.054,6.054,0,0,1,1.669.228,4.587,4.587,0,0,1,4.016-2.767c2.615,0,4.7,2.615,4.7,5.835a6.933,6.933,0,0,1-.681,3.107,6.1,6.1,0,0,1,.343,2.046,5.876,5.876,0,0,1-1.328,3.75" transform="translate(-25.307 13.782)" fill="#0ce0ff" fill-rule="evenodd"/>
    <path id="Path_188" data-name="Path 188" d="M52.822,115.778a9.156,9.156,0,0,1,.669,3.61,10.336,10.336,0,0,1-19.727,4.283,10.061,10.061,0,0,1-6.886,2.673,10.33,10.33,0,0,1,0-20.661h.335a6.579,6.579,0,0,1-.066-1.138,10.3,10.3,0,0,1,10.295-10.3,10.685,10.685,0,0,1,2.945.4c1.471-2.945,4.077-4.883,7.087-4.883,4.614,0,8.291,4.614,8.291,10.3a12.235,12.235,0,0,1-1.2,5.484,10.77,10.77,0,0,1,.6,3.61,10.371,10.371,0,0,1-2.344,6.618" transform="translate(-71.798 -63.868)" fill="#f5f5f5" fill-rule="evenodd"/>
    <path id="Path_189" data-name="Path 189" d="M39.893,106.5a5.89,5.89,0,0,1,.43,2.322,6.649,6.649,0,0,1-12.689,2.755A6.472,6.472,0,0,1,23.2,113.3a6.645,6.645,0,0,1,0-13.29h.215a4.232,4.232,0,0,1-.043-.732A6.626,6.626,0,0,1,30,92.65a6.873,6.873,0,0,1,1.894.259,5.208,5.208,0,0,1,4.559-3.141c2.968,0,5.333,2.968,5.333,6.624a7.87,7.87,0,0,1-.773,3.527,6.928,6.928,0,0,1,.389,2.322,6.671,6.671,0,0,1-1.508,4.257" transform="translate(252.035 -36.951) rotate(65)" fill="#f5f5f5" fill-rule="evenodd"/>
    <path id="Path_154" data-name="Path 154" d="M106.977,75.385a4.179,4.179,0,0,1-.377-8.3c0-.151-.037-.265-.037-.38a3.139,3.139,0,0,1,3.068-3.219,3.287,3.287,0,0,1,1.364.341,6.112,6.112,0,0,1,6.061-4.4,6.02,6.02,0,0,1,6.216,5.645,5.589,5.589,0,0,1,5.267,5.381,5.5,5.5,0,0,1-3.978,5.153h-3.637Z" transform="translate(5.296 3.519)" fill="#dcf1fa" fill-rule="evenodd"/>
    <path id="Path_155" data-name="Path 155" d="M130.4,107.009a68.837,68.837,0,0,1-114.8,0H130.4Z" transform="translate(1.652 5.501)" fill="#24b34b" fill-rule="evenodd"/>
    <path id="Path_156" data-name="Path 156" d="M22.055,49.846a4.388,4.388,0,0,1-.378-8.713,1.3,1.3,0,0,1-.038-.379,3.3,3.3,0,0,1,3.182-3.372,3.005,3.005,0,0,1,1.44.379A6.494,6.494,0,0,1,32.626,33.1a6.379,6.379,0,0,1,6.555,5.95,5.838,5.838,0,0,1,5.494,5.645,5.7,5.7,0,0,1-4.168,5.379H36.682Z" transform="translate(1.75 2.421)" fill="#dcf1fa" fill-rule="evenodd"/>
    <path id="Path_157" data-name="Path 157" d="M28.833,113.142a.746.746,0,0,0,.72-.721.719.719,0,0,0-.72-.718.728.728,0,0,0-.758.718.753.753,0,0,0,.758.721" transform="translate(2.171 5.696)" fill="#9fcc3b" fill-rule="evenodd"/>
    <path id="Path_158" data-name="Path 158" d="M32.9,118.525a.72.72,0,0,0,.721-.72.7.7,0,0,0-.721-.72.719.719,0,0,0-.719.72.744.744,0,0,0,.719.72" transform="translate(2.343 5.92)" fill="#9fcc3b" fill-rule="evenodd"/>
    <path id="Path_159" data-name="Path 159" d="M38.725,113.614a.7.7,0,0,0,.72-.719.719.719,0,0,0-.72-.72.744.744,0,0,0-.719.72.717.717,0,0,0,.719.719" transform="translate(2.585 5.716)" fill="#199146" fill-rule="evenodd"/>
    <path id="Path_160" data-name="Path 160" d="M40.471,123.579a.719.719,0,0,0,.72-.718.745.745,0,0,0-.72-.721.72.72,0,0,0-.721.721.7.7,0,0,0,.721.718" transform="translate(2.658 6.131)" fill="#9fcc3b" fill-rule="evenodd"/>
    <path id="Path_161" data-name="Path 161" d="M46.836,118.853a.745.745,0,0,0,.72-.72.753.753,0,0,0-.72-.758.728.728,0,0,0-.719.758.719.719,0,0,0,.719.72" transform="translate(2.923 5.932)" fill="#9fcc3b" fill-rule="evenodd"/>
    <path id="Path_162" data-name="Path 162" d="M49.964,128.746a.7.7,0,0,0,.72-.721.719.719,0,0,0-.72-.718.744.744,0,0,0-.719.718.718.718,0,0,0,.719.721" transform="translate(3.053 6.346)" fill="#199146" fill-rule="evenodd"/>
    <path id="Path_163" data-name="Path 163" d="M55.166,120.016a.72.72,0,0,0,.719-.72.744.744,0,0,0-.719-.719.72.72,0,0,0-.721.719.7.7,0,0,0,.721.72" transform="translate(3.27 5.982)" fill="#199146" fill-rule="evenodd"/>
    <path id="Path_164" data-name="Path 164" d="M52,113.433a.745.745,0,0,0,.721-.72.719.719,0,0,0-.721-.72.7.7,0,0,0-.72.72.718.718,0,0,0,.72.72" transform="translate(3.138 5.708)" fill="#199146" fill-rule="evenodd"/>
    <path id="Path_165" data-name="Path 165" d="M64.15,119.907a.745.745,0,0,0,.72-.72.718.718,0,0,0-.72-.719.7.7,0,0,0-.721.719.72.72,0,0,0,.721.72" transform="translate(3.644 5.978)" fill="#199146" fill-rule="evenodd"/>
    <path id="Path_166" data-name="Path 166" d="M61.531,114.2a.7.7,0,0,0,.719-.719.718.718,0,0,0-.719-.72.745.745,0,0,0-.721.72.72.72,0,0,0,.721.719" transform="translate(3.535 5.74)" fill="#9fcc3b" fill-rule="evenodd"/>
    <path id="Path_167" data-name="Path 167" d="M62.586,130.746a.7.7,0,0,0,.72-.719.72.72,0,0,0-.72-.72.745.745,0,0,0-.721.72.72.72,0,0,0,.721.719" transform="translate(3.579 6.43)" fill="#199146" fill-rule="evenodd"/>
    <path id="Path_168" data-name="Path 168" d="M81.608,131.364a.728.728,0,0,0,.758-.719.739.739,0,0,0-1.478,0,.72.72,0,0,0,.72.719" transform="translate(4.372 6.455)" fill="#199146" fill-rule="evenodd"/>
    <path id="Path_169" data-name="Path 169" d="M74.48,123.035a.7.7,0,0,0,.718-.719.719.719,0,0,0-.718-.72.744.744,0,0,0-.72.72.718.718,0,0,0,.72.719" transform="translate(4.075 6.108)" fill="#199146" fill-rule="evenodd"/>
    <path id="Path_170" data-name="Path 170" d="M83.756,113a.72.72,0,0,0,.719-.719.745.745,0,0,0-.719-.72.753.753,0,0,0-.758.72.729.729,0,0,0,.758.719" transform="translate(4.46 5.69)" fill="#199146" fill-rule="evenodd"/>
    <path id="Path_171" data-name="Path 171" d="M89.283,126.088a.719.719,0,0,0,.72-.719.7.7,0,0,0-.72-.718.718.718,0,0,0-.72.718.745.745,0,0,0,.72.719" transform="translate(4.691 6.236)" fill="#199146" fill-rule="evenodd"/>
    <path id="Path_172" data-name="Path 172" d="M101.068,117.36a.719.719,0,0,0,.719-.719.744.744,0,0,0-.719-.72.719.719,0,0,0-.72.72.7.7,0,0,0,.72.719" transform="translate(5.182 5.872)" fill="#199146" fill-rule="evenodd"/>
    <path id="Path_173" data-name="Path 173" d="M112.561,111.832a.744.744,0,0,0,.72-.718.754.754,0,0,0-.72-.759.73.73,0,0,0-.72.759.719.719,0,0,0,.72.718" transform="translate(5.661 5.64)" fill="#199146" fill-rule="evenodd"/>
    <path id="Path_174" data-name="Path 174" d="M73.57,115.834a.753.753,0,0,0,.719-.758.744.744,0,0,0-.719-.72.719.719,0,0,0-.72.72.728.728,0,0,0,.72.758" transform="translate(4.037 5.807)" fill="#9fcc3b" fill-rule="evenodd"/>
    <path id="Path_175" data-name="Path 175" d="M70.914,131.618a.719.719,0,0,0,.721-.72.7.7,0,0,0-.721-.718.717.717,0,0,0-.718.718.743.743,0,0,0,.718.72" transform="translate(3.926 6.466)" fill="#9fcc3b" fill-rule="evenodd"/>
    <path id="Path_176" data-name="Path 176" d="M85.211,121.689a.72.72,0,0,0,.72-.719.739.739,0,0,0-1.478,0,.728.728,0,0,0,.758.719" transform="translate(4.52 6.052)" fill="#9fcc3b" fill-rule="evenodd"/>
    <path id="Path_177" data-name="Path 177" d="M93.648,114.161a.7.7,0,0,0,.72-.72.721.721,0,0,0-.72-.721.747.747,0,0,0-.72.721.72.72,0,0,0,.72.72" transform="translate(4.873 5.738)" fill="#9fcc3b" fill-rule="evenodd"/>
    <path id="Path_178" data-name="Path 178" d="M99.213,125.4a.744.744,0,0,0,.719-.72.719.719,0,0,0-.719-.72.7.7,0,0,0-.72.72.718.718,0,0,0,.72.72" transform="translate(5.105 6.207)" fill="#9fcc3b" fill-rule="evenodd"/>
    <path id="Path_179" data-name="Path 179" d="M112.816,117.617a.745.745,0,0,0,.719-.72.753.753,0,0,0-.719-.758.728.728,0,0,0-.72.758.72.72,0,0,0,.72.72" transform="translate(5.672 5.881)" fill="#9fcc3b" fill-rule="evenodd"/>
    <path id="Path_180" data-name="Path 180" d="M106.088,112.7a.717.717,0,0,0,.718-.718.744.744,0,0,0-.718-.719.72.72,0,0,0-.721.719.7.7,0,0,0,.721.718" transform="translate(5.391 5.678)" fill="#9fcc3b" fill-rule="evenodd"/>
    <path id="Path_181" data-name="Path 181" d="M66.768,125.508a.72.72,0,0,0,.721-.72.7.7,0,0,0-.721-.719.718.718,0,0,0-.719.719.744.744,0,0,0,.719.72" transform="translate(3.753 6.211)" fill="#9fcc3b" fill-rule="evenodd"/>
    <path id="Path_182" data-name="Path 182" d="M55.166,125.035a.744.744,0,0,0,.719-.719.72.72,0,0,0-.719-.72.7.7,0,0,0-.721.72.72.72,0,0,0,.721.719" transform="translate(3.27 6.192)" fill="#9fcc3b" fill-rule="evenodd"/>
    <rect id="Rectangle_13" data-name="Rectangle 13" width="31.751" height="62.744" transform="translate(58.776 49.654)" fill="#fff"/>
    <rect id="Rectangle_14" data-name="Rectangle 14" width="26.068" height="56.907" transform="translate(61.618 52.57)" fill="#c4dbe3"/>
    <path id="Path_183" data-name="Path 183" d="M68.241,53.541H73.7v3.9h3.865V62.9H73.7v3.9H68.241V62.9h-3.9V57.445h3.9Z" transform="translate(3.682 3.273)" fill="#dd1f26" fill-rule="evenodd"/>
    <rect id="Rectangle_15" data-name="Rectangle 15" width="16.066" height="27.582" transform="translate(66.619 84.815)" fill="#00a6dc"/>
    <rect id="Rectangle_16" data-name="Rectangle 16" width="21.256" height="1.743" transform="translate(64.118 109.1)" fill="#c4dbe3"/>
    <rect id="Rectangle_17" data-name="Rectangle 17" width="21.256" height="1.779" transform="translate(64.118 110.843)" fill="#00a6dc"/>
    <rect id="Rectangle_18" data-name="Rectangle 18" width="21.256" height="1.745" transform="translate(64.118 112.622)" fill="#c4dbe3"/>
    <rect id="Rectangle_19" data-name="Rectangle 19" width="22.885" height="53.992" transform="translate(35.892 58.406)" fill="#c4dbe3"/>
    <rect id="Rectangle_20" data-name="Rectangle 20" width="22.885" height="7.995" transform="translate(35.892 62.157)" fill="#fff"/>
    <rect id="Rectangle_21" data-name="Rectangle 21" width="4.129" height="10.873" transform="translate(38.848 72.992)" fill="#00a6dc"/>
    <rect id="Rectangle_22" data-name="Rectangle 22" width="4.131" height="10.873" transform="translate(45.553 72.992)" fill="#00a6dc"/>
    <rect id="Rectangle_23" data-name="Rectangle 23" width="4.131" height="10.873" transform="translate(52.259 72.992)" fill="#00a6dc"/>
    <rect id="Rectangle_24" data-name="Rectangle 24" width="4.129" height="10.911" transform="translate(38.848 87.808)" fill="#00a6dc"/>
    <rect id="Rectangle_25" data-name="Rectangle 25" width="4.131" height="10.911" transform="translate(45.553 87.808)" fill="#00a6dc"/>
    <rect id="Rectangle_26" data-name="Rectangle 26" width="4.131" height="10.911" transform="translate(52.259 87.808)" fill="#00a6dc"/>
    <rect id="Rectangle_27" data-name="Rectangle 27" width="22.885" height="7.995" transform="translate(35.892 101.447)" fill="#fff"/>
    <rect id="Rectangle_28" data-name="Rectangle 28" width="22.884" height="53.992" transform="translate(90.564 58.406)" fill="#c4dbe3"/>
    <rect id="Rectangle_29" data-name="Rectangle 29" width="22.884" height="7.995" transform="translate(90.564 62.157)" fill="#fff"/>
    <rect id="Rectangle_30" data-name="Rectangle 30" width="4.168" height="10.873" transform="translate(106.325 72.992)" fill="#00a6dc"/>
    <rect id="Rectangle_31" data-name="Rectangle 31" width="4.169" height="10.873" transform="translate(99.619 72.992)" fill="#00a6dc"/>
    <rect id="Rectangle_32" data-name="Rectangle 32" width="4.168" height="10.873" transform="translate(92.913 72.992)" fill="#00a6dc"/>
    <rect id="Rectangle_33" data-name="Rectangle 33" width="4.168" height="10.911" transform="translate(106.325 87.808)" fill="#00a6dc"/>
    <rect id="Rectangle_34" data-name="Rectangle 34" width="4.169" height="10.911" transform="translate(99.619 87.808)" fill="#00a6dc"/>
    <rect id="Rectangle_35" data-name="Rectangle 35" width="4.168" height="10.911" transform="translate(92.913 87.808)" fill="#00a6dc"/>
    <rect id="Rectangle_36" data-name="Rectangle 36" width="22.884" height="7.995" transform="translate(90.564 101.447)" fill="#fff"/>
    <rect id="Rectangle_37" data-name="Rectangle 37" width="37.244" height="5.494" transform="translate(56.011 81.024)" fill="#312e2f"/>
    <path id="Path_184" data-name="Path 184" d="M75.379,30.647a3.454,3.454,0,0,1-.3-6.858,1.051,1.051,0,0,1-.038-.341,2.572,2.572,0,0,1,2.5-2.614,2.294,2.294,0,0,1,1.136.265,5.153,5.153,0,0,1,5.04-3.674,5.031,5.031,0,0,1,5.153,4.7,4.6,4.6,0,0,1,4.319,4.471,4.519,4.519,0,0,1-3.3,4.245H86.9Z" transform="translate(4.008 1.768)" fill="#dcf1fa" fill-rule="evenodd"/>
  </g>
  <g id="loginimage" transform="translate(65.598 54.04)">
    <path id="Path_4" data-name="Path 4" d="M43.4,49.17c3.5,1.145,9.939,7.153,10.353,6.866s7.569-.79,16.395.88L70.8,59.9s-16.558.81-18.331.526-9.65-4.39-9.65-4.39Z" transform="translate(-3.696 -1.844)" fill="#f3c19e"/>
    <g id="Group_4" data-name="Group 4" transform="translate(48.236 52.874)">
      <ellipse id="Ellipse_8" data-name="Ellipse 8" cx="1.091" cy="2.054" rx="1.091" ry="2.054" transform="translate(4.346 1.007) rotate(97.106)" fill="#87888c"/>
      <ellipse id="Ellipse_9" data-name="Ellipse 9" cx="1.091" cy="2.054" rx="1.091" ry="2.054" transform="translate(4.473 0.508) rotate(97.106)" fill="#727276"/>
    </g>
    <path id="Path_5" data-name="Path 5" d="M47.908,51.615a39.8,39.8,0,0,1-1.32,6.81l4.867,2.7a11.886,11.886,0,0,0,2.03-6.371Z" transform="translate(-3.919 -1.988)" fill="#745050"/>
    <path id="Path_6" data-name="Path 6" d="M53.549,54.755l-5.577-3.14s-.1.98-.31,2.314c1.819,1.076,3.75,2,5.688,2.938A8.224,8.224,0,0,0,53.549,54.755Z" transform="translate(-3.983 -1.988)" fill="#1f1c1c"/>
    <path id="Path_7" data-name="Path 7" d="M43.383,48.172c.852-1.153,2.966,1.888,2.966,1.888s-1.027,2.914-.59,8.642A8.941,8.941,0,0,1,42.8,56.507S41.97,50.085,43.383,48.172Z" transform="translate(-3.681 -1.769)" fill="#57c0a0"/>
    <g id="Group_5" data-name="Group 5" transform="translate(24.457 56.139)">
      <rect id="Rectangle_3" data-name="Rectangle 3" width="3.058" height="50.103" transform="translate(80.222 3.674)" fill="#828182"/>
      <rect id="Rectangle_4" data-name="Rectangle 4" width="3.059" height="50.103" transform="translate(19.475 3.674)" fill="#828182"/>
      <rect id="Rectangle_5" data-name="Rectangle 5" width="60.566" height="28.818" transform="translate(4.813 10.151)" fill="#747274"/>
      <path id="Path_8" data-name="Path 8" d="M32.346,69.327V98.145H48.768c13.976-9.214,29.091-16.893,44.144-24.439v-4.38H32.346Z" transform="translate(-27.533 -59.176)" fill="#cdc8cc"/>
      <rect id="Rectangle_6" data-name="Rectangle 6" width="3.058" height="53.993" transform="translate(3.285 3.674)" fill="#828182"/>
      <rect id="Rectangle_7" data-name="Rectangle 7" width="3.058" height="53.993" transform="translate(63.85 3.674)" fill="#828182"/>
      <path id="Path_9" data-name="Path 9" d="M113.92,61.179c0,.8-.924,1.442-2.064,1.442H29.3c-1.141,0-2.066-.644-2.066-1.442v-1.2c0-.8.925-1.442,2.066-1.442h82.56c1.14,0,2.064.646,2.064,1.442Z" transform="translate(-27.23 -58.537)" fill="#a6a4a6"/>
    </g>
    <g id="Group_6" data-name="Group 6" transform="translate(15.138 59.547)">
      <path id="Path_10" data-name="Path 10" d="M57.774,117.525s-.61.72-2.686.093c0,0-3.6-13.654-5.557-20.727H52.7C53.9,101.85,55.974,110.385,57.774,117.525Z" transform="translate(-19.231 -64.215)" fill="#5f4839"/>
      <path id="Path_11" data-name="Path 11" d="M31.593,96.891h3.164c-1.95,7.074-5.554,20.727-5.554,20.727-2.078.627-2.689-.093-2.689-.093C28.318,110.385,30.393,101.85,31.593,96.891Z" transform="translate(-17.869 -64.215)" fill="#5f4839"/>
      <path id="Path_12" data-name="Path 12" d="M48.33,96.891s3.348,13.991,6.071,24.775c0,0-.609.719-2.68.086,0,0-6.558-24.861-6.784-24.861H48.33Z" transform="translate(-18.959 -64.215)" fill="#8e7563"/>
      <path id="Path_13" data-name="Path 13" d="M27.176,96.891H30.56c-.216,0-6.775,24.861-6.775,24.861-2.079.633-2.681-.086-2.681-.086C23.82,110.882,27.176,96.891,27.176,96.891Z" transform="translate(-17.549 -64.215)" fill="#8e7563"/>
      <path id="Path_14" data-name="Path 14" d="M27.832,62.16s5.832,15.165,7.932,23.58a67.3,67.3,0,0,0-8.8.737c-3.341-11.107-8.433-23.722-8.433-23.722S21.868,62.756,27.832,62.16Z" transform="translate(-17.397 -62.16)" fill="#5f4839"/>
      <path id="Path_15" data-name="Path 15" d="M26.9,86.515a3.437,3.437,0,0,0-2.79,1.817c-.494-5.349-3.572-15.645-6.781-23.926l1.138-1.613S23.555,75.407,26.9,86.515Z" transform="translate(-17.325 -62.197)" fill="#8e7563"/>
      <path id="Path_16" data-name="Path 16" d="M51.576,95.069H27.142v1.714H51.576Z" transform="translate(-17.906 -64.108)" fill="#a18d7d"/>
      <path id="Path_17" data-name="Path 17" d="M50.943,94.6H26.8c-1.248-.028-3.153-2.827-2.281-4.822v-.007a3.437,3.437,0,0,1,2.79-1.817,67.3,67.3,0,0,1,8.8-.737c5.388-.17,11.409,0,14.11.788,4.858,1.406,1.193,6.593,1.193,6.593Z" transform="translate(-17.738 -63.64)" fill="#160b0c"/>
    </g>
    <g id="Group_7" data-name="Group 7" transform="translate(21.383 44.794)">
      <path id="Path_18" data-name="Path 18" d="M66.016,118.836l-2.937-.684c-.684,2.948-.133,3.024-.133,3.024l9.032.135C71.757,119.655,66.016,118.836,66.016,118.836Z" transform="translate(-26.258 -50.72)" fill="#6a0c0d"/>
      <path id="Path_19" data-name="Path 19" d="M64.708,87.752S62.863,79.616,46.489,76.36l-8.318.568c-.553,6.6.846,7.229,7.483,7.646S60.336,89.3,59.567,95.75c-1.745,14.641,1.71,21.1,1.71,21.1L65.9,116.6S67.705,90.751,64.708,87.752Z" transform="translate(-24.797 -48.247)" fill="#373526"/>
      <path id="Path_20" data-name="Path 20" d="M65.978,88.02s-.851-3.719-6.457-7.133c8.014,9.276,6.259,23.363,5.528,36.1l2.118-.112S68.975,91.019,65.978,88.02Z" transform="translate(-26.067 -48.515)" fill="#100e0d"/>
      <path id="Path_21" data-name="Path 21" d="M59.352,123.5l-2.937-.684c-.685,2.948-.133,3.025-.133,3.025l9.032.135C65.093,124.323,59.352,123.5,59.352,123.5Z" transform="translate(-25.863 -50.996)" fill="#8f191c"/>
      <path id="Path_22" data-name="Path 22" d="M58.224,92.452s-1.984-9.228-18.36-12.484l-8.177,1.658c-.552,6.6.846,7.229,7.483,7.646S53.852,94,53.083,100.448c-1.744,14.642,1.71,21.1,1.71,21.1l4.328-.538S61.222,95.451,58.224,92.452Z" transform="translate(-24.414 -48.46)" fill="#4a4334"/>
      <path id="Path_23" data-name="Path 23" d="M59.209,92.59S57.853,86.327,48.216,82.3c11.792,8.541,12.3,24.573,9.729,39.115l2.161-.268S62.207,95.589,59.209,92.59Z" transform="translate(-25.398 -48.598)" fill="#100e0d"/>
      <path id="Path_24" data-name="Path 24" d="M24.111,53.65C28.951,43.2,40.477,46.723,43.1,48.564,42.973,70.739,47.6,75.017,47.6,75.017,34.7,80.6,31.745,85.449,31.745,85.449,28.46,72.127,23,56.056,24.111,53.65Z" transform="translate(-23.963 -46.478)" fill="#4aab8e"/>
      <path id="Path_25" data-name="Path 25" d="M34.475,70.7a39.522,39.522,0,0,0,8.777,6.42c1.34-.682,2.825-1.384,4.475-2.1,0,0-4.622-4.278-4.492-26.453C40.916,46.939,31.666,44.01,26.2,50.533,32.155,55.905,29.783,66,34.475,70.7Z" transform="translate(-24.095 -46.479)" fill="#4aab8e"/>
      <path id="Path_26" data-name="Path 26" d="M34.343,70.951c-4.693-4.694-2.32-14.791-8.278-20.163A13.888,13.888,0,0,0,24.111,53.9c-.949,2.047,2.868,13.992,6.049,25.716a18.989,18.989,0,0,0,5.229,2.521,48.586,48.586,0,0,1,7.732-4.772A39.506,39.506,0,0,1,34.343,70.951Z" transform="translate(-23.963 -46.733)" fill="#dbece7"/>
      <path id="Path_27" data-name="Path 27" d="M42.91,68.323C42.074,64.18,41.12,56.8,40.59,52.53c-2.141,2.453-6.41,2.031-9.254-.167.86,5.1,2.019,13.313,3.284,18.287C37.262,69.342,40.066,68.931,42.91,68.323Z" transform="translate(-24.399 -46.827)" fill="#3c8b73"/>
      <path id="Path_28" data-name="Path 28" d="M36.484,51.869c.876,0,2.628-1.313,2.628-2.188a7.141,7.141,0,0,0,.116-2.778,14.069,14.069,0,0,0-9.172.773A6.212,6.212,0,0,0,36.484,51.869Z" transform="translate(-24.324 -46.478)" fill="#f3c19e"/>
    </g>
    <g id="Group_17" data-name="Group 17" transform="translate(23.518 18.017)">
      <g id="Group_9" data-name="Group 9">
        <path id="Path_29" data-name="Path 29" d="M36.15,43.217c.521,2.1,1.98,4.709,1.859,4.934-.155.274-3.907,2.4-6.2-.555a45.67,45.67,0,0,1-2.062-9.583c.088.035.175.067.262.1h0a6.078,6.078,0,0,0,1.367,3.053C32.74,42.529,34.448,42.641,36.15,43.217Z" transform="translate(-26.44 -19.2)" fill="#f3c19e"/>
        <path id="Path_30" data-name="Path 30" d="M38.323,48.457c.122-.225-1.338-2.831-1.859-4.934a10.239,10.239,0,0,0-1.4-.342,15.291,15.291,0,0,0,1.79,6.011A3.9,3.9,0,0,0,38.323,48.457Z" transform="translate(-26.755 -19.506)" fill="#86532f"/>
        <path id="Path_31" data-name="Path 31" d="M31.378,41.162a6.082,6.082,0,0,1-1.367-3.053h0c-.088-.029-.175-.061-.262-.1a35.986,35.986,0,0,0,1.111,6.3,6.11,6.11,0,0,1,5.439-.578c-.053-.174-.1-.348-.144-.517C34.448,42.641,32.74,42.529,31.378,41.162Z" transform="translate(-26.44 -19.2)" fill="#f4cbae"/>
        <path id="Path_32" data-name="Path 32" d="M31.077,26.341a7.33,7.33,0,0,1,1.267.468,8.927,8.927,0,0,0-1.7,7.074L29.2,33.4h0a2.494,2.494,0,0,0-.824-.509C23.828,26,27.554,21.644,30.032,23.6h0A3.121,3.121,0,0,0,31.077,26.341Z" transform="translate(-26.232 -18.319)" fill="#a34223"/>
        <path id="Path_33" data-name="Path 33" d="M27.462,26.943c.4-1.666,1.046-2.787,2.554-2.921a3.393,3.393,0,0,1,.019-.426h0c-2.478-1.951-6.2,2.407-1.657,9.292a2.108,2.108,0,0,1,.412.2A9.207,9.207,0,0,1,27.462,26.943Z" transform="translate(-26.232 -18.319)" fill="#20130b"/>
        <path id="Path_34" data-name="Path 34" d="M31.257,26.346A3.12,3.12,0,0,1,30.214,23.6h0a2.248,2.248,0,0,0-.752-.392A3.744,3.744,0,0,0,31.774,27.9a6.6,6.6,0,0,1,.75-1.082A7.33,7.33,0,0,0,31.257,26.346Z" transform="translate(-26.411 -18.324)" fill="#eae1df"/>
        <path id="Path_35" data-name="Path 35" d="M40.7,25.7c-2.749.711-6.086,2.142-8.348,1.262a8.927,8.927,0,0,0-1.7,7.074l-1.441-.485h0a2.494,2.494,0,0,0-.824-.509c-2.1-.784-3.475,2.571,1.161,4.245.088.035.175.067.262.1h0a7.814,7.814,0,0,0,1.228,3.371c1.36,1.367,7.311,2.731,8.6,2.1.739-.361,1.554-2.234,1.772-3.1C42.353,36.04,42.82,30.561,40.7,25.7Z" transform="translate(-26.244 -18.471)" fill="#f3c19e"/>
        <path id="Path_36" data-name="Path 36" d="M41.549,25.7c-.186.048-.377.1-.568.154,1.521,5.615,1.781,11.23-.267,16.844a7.215,7.215,0,0,0,1.551-2.947C43.2,36.04,43.664,30.561,41.549,25.7Z" transform="translate(-27.089 -18.471)" fill="#86532f"/>
        <path id="Path_37" data-name="Path 37" d="M40.962,25.7c-2.749.711-6.086,2.142-8.348,1.262a8.885,8.885,0,0,0-1.726,6.86,8.659,8.659,0,0,1,1.949-5.562c2.716-.369,5.241,0,8.433-1.786C41.172,26.214,41.073,25.955,40.962,25.7Z" transform="translate(-26.501 -18.471)" fill="#f4e1d4"/>
        <path id="Path_38" data-name="Path 38" d="M29.821,34.211l-.53-.179h0c-.035-.031-.069-.057-.1-.086-.5-.318-1.358.541-1.358.541a3.737,3.737,0,0,0,.212,2.506,7.459,7.459,0,0,0,1.588.775c.088.035.175.067.262.1h0a7.814,7.814,0,0,0,1.228,3.371c1.312,1.315,6.874,2.63,8.439,2.16C31.7,42.63,30.473,39.58,29.821,34.211Z" transform="translate(-26.319 -18.955)" fill="#f4e1d4"/>
        <path id="Path_39" data-name="Path 39" d="M32.582,26.506a7.407,7.407,0,0,0-1.267-.468,3.12,3.12,0,0,1-1.042-2.745c.182-1.786.527-3.919,3.637-4.82,3.817-1.106,10.112.146,10.112.146s2.115,3.829-2.485,7.409C41.023,26.428,34.844,27.387,32.582,26.506Z" transform="translate(-26.47 -18.017)" fill="#cf5327"/>
        <path id="Path_40" data-name="Path 40" d="M31.249,20.3a6.079,6.079,0,0,0-.977,3.129,3.125,3.125,0,0,0,1.042,2.745,7.33,7.33,0,0,1,1.267.468,5.7,5.7,0,0,0,1.448.3c-.262-.134-.524-.278-.786-.443A5.694,5.694,0,0,1,31.249,20.3Z" transform="translate(-26.47 -18.152)" fill="#eae1df"/>
        <g id="Group_8" data-name="Group 8" transform="translate(12.618 0.127)">
          <path id="Path_41" data-name="Path 41" d="M41.807,21.852a7.67,7.67,0,0,0-.113-3.642c-.194-.02-.391-.04-.6-.058a9.209,9.209,0,0,1-1.455,7.858A11.757,11.757,0,0,0,41.807,21.852Z" transform="translate(-39.644 -18.152)" fill="#3a2114"/>
          <path id="Path_42" data-name="Path 42" d="M43.519,21.571a9.828,9.828,0,0,0,.214-3.086c-.319-.051-.709-.108-1.156-.165a7.26,7.26,0,0,1-.094,4.179A16.3,16.3,0,0,1,40.3,26.508c.2-.033.379-.066.552-.1.2-.217.388-.44.567-.669A10.5,10.5,0,0,0,43.519,21.571Z" transform="translate(-39.683 -18.162)" fill="#3a2114"/>
          <path id="Path_43" data-name="Path 43" d="M44.685,18.651s-.2-.039-.539-.1a10.409,10.409,0,0,1-.09,2.43,9.851,9.851,0,0,1-1.868,4.421c-.227.31-.469.609-.723.9a2.576,2.576,0,0,0,.735-.246C46.8,22.48,44.685,18.651,44.685,18.651Z" transform="translate(-39.752 -18.176)" fill="#3a2114"/>
        </g>
      </g>
      <g id="Group_16" data-name="Group 16" transform="translate(1.262 11.478)">
        <path id="Path_44" data-name="Path 44" d="M32.234,30.712a5.06,5.06,0,0,1,.983-.371,3.839,3.839,0,0,1,1.08-.122,2.022,2.022,0,0,1,1.109.223,1.4,1.4,0,0,1,.678.947l-.068.052c-.385-.083-.675-.155-.963-.23s-.535-.246-.842-.321a4.923,4.923,0,0,0-.948-.129,6.885,6.885,0,0,0-1.009.031Z" transform="translate(-27.849 -30.216)" fill="#ac5826"/>
        <path id="Path_45" data-name="Path 45" d="M39.975,31.367a1.141,1.141,0,0,1,.41-.844,1.453,1.453,0,0,1,.879-.275,2.424,2.424,0,0,1,1.656.421l-.036.077a2.89,2.89,0,0,0-1.467.162c-.219.088-.369.272-.583.333a3.84,3.84,0,0,1-.8.184Z" transform="translate(-28.307 -30.217)" fill="#ac5826"/>
        <path id="Path_46" data-name="Path 46" d="M29.319,36.574a2.982,2.982,0,0,0-.421-1.569,2.54,2.54,0,0,0-.53-.629,2.653,2.653,0,0,0-.7-.419l-.031.066c.184.263.314.477.436.691l.151.312.119.3c.056.151.1.3.137.458a3.629,3.629,0,0,0-.88-.021l-.029.066c.546.278,1.1.536,1.655.8l.092.044v-.1Z" transform="translate(-27.573 -30.438)" fill="#e78867"/>
        <g id="Group_10" data-name="Group 10" transform="translate(9.631 2.09)">
          <path id="Path_47" data-name="Path 47" d="M40.27,37.008s-.019.337-.675.714a9.807,9.807,0,0,1-1.786-.279A3.443,3.443,0,0,0,40.27,37.008Z" transform="translate(-37.81 -32.708)" fill="#b3715a"/>
          <path id="Path_48" data-name="Path 48" d="M38.881,32.438a5.774,5.774,0,0,0,.471,2.188,13.753,13.753,0,0,0,.991,2.1l-.053.017a4.088,4.088,0,0,1-.9-.946,5,5,0,0,1-.566-1.061,3.7,3.7,0,0,1-.245-1.138,2.081,2.081,0,0,1,.246-1.161Z" transform="translate(-37.855 -32.438)" fill="#d59671"/>
        </g>
        <path id="Path_49" data-name="Path 49" d="M40.726,40.417a.585.585,0,0,1,.092.668.764.764,0,0,1-.255.3,1.084,1.084,0,0,1-.359.144.887.887,0,0,1-.618-.139.815.815,0,0,1-.353-.505l.024-.051a1.631,1.631,0,0,0,.863.151.613.613,0,0,0,.373-.184.754.754,0,0,0,.181-.389Z" transform="translate(-28.263 -30.82)" fill="#edab85"/>
        <g id="Group_11" data-name="Group 11" transform="translate(8.802 8.281)">
          <path id="Path_50" data-name="Path 50" d="M36.929,40.326c.083-.007,1.366-.108,2.734-.316a9.188,9.188,0,0,0,2.132-.416l-.118-.576c-.15.042-.219.248-.383.3a21.837,21.837,0,0,1-3.936.569.7.7,0,0,1-.429-.133v.569Z" transform="translate(-36.929 -39.018)" fill="#d59671"/>
        </g>
        <g id="Group_13" data-name="Group 13" transform="translate(4.562 1.982)">
          <g id="Group_12" data-name="Group 12" transform="translate(0 0.354)">
            <path id="Path_51" data-name="Path 51" d="M34.958,32.793A2.274,2.274,0,0,1,36.4,34.66a4.754,4.754,0,0,1-.845.235v0a1.066,1.066,0,0,1-.617-2.027Z" transform="translate(-32.532 -32.705)" fill="#7cabab"/>
            <path id="Path_52" data-name="Path 52" d="M34.828,32.858a1.066,1.066,0,0,0,.617,2.027v0a2.809,2.809,0,0,1-3.023-1.068,2.085,2.085,0,0,1,2.425-1.034Z" transform="translate(-32.422 -32.699)" fill="#fff"/>
          </g>
          <path id="Path_53" data-name="Path 53" d="M32.426,33.8a1.717,1.717,0,0,1,.82-1.162,2.03,2.03,0,0,1,1.494-.272,1.924,1.924,0,0,1,1.248.882,2.123,2.123,0,0,1,.3,1.385,4.85,4.85,0,0,0-.749-1.04,1.938,1.938,0,0,0-.952-.523,2.18,2.18,0,0,0-1.1.072A2.759,2.759,0,0,0,32.426,33.8Z" transform="translate(-32.422 -32.323)" fill="#7a3318"/>
          <path id="Path_54" data-name="Path 54" d="M34.69,34.051a.377.377,0,1,1-.714-.243.377.377,0,0,1,.714.243Z" transform="translate(-32.513 -32.396)" fill="#fff"/>
          <path id="Path_55" data-name="Path 55" d="M36.2,34.041a.513.513,0,1,1-.32-.65A.511.511,0,0,1,36.2,34.041Z" transform="translate(-32.586 -32.385)" fill="#010101"/>
        </g>
        <g id="Group_15" data-name="Group 15" transform="translate(11.751 1.798)">
          <g id="Group_14" data-name="Group 14" transform="translate(0 0.312)">
            <path id="Path_56" data-name="Path 56" d="M42.779,33.665a2.249,2.249,0,0,1-.6.791l0,0c-1.107.23-1.354-1.437,0-1.941C42.527,32.659,42.708,33.119,42.779,33.665Z" transform="translate(-40.133 -32.462)" fill="#7cabab"/>
            <path id="Path_57" data-name="Path 57" d="M42.1,32.508c-1.356.5-1.109,2.171,0,1.941l0,0c-.454.344-1.149.439-2.043-.77C41.049,32.6,41.7,32.335,42.1,32.508Z" transform="translate(-40.063 -32.459)" fill="#fff"/>
          </g>
          <path id="Path_58" data-name="Path 58" d="M40.063,33.661a2.632,2.632,0,0,1,.524-.857,2.1,2.1,0,0,1,.873-.614,1.052,1.052,0,0,1,.649-.018.861.861,0,0,1,.5.425,1.434,1.434,0,0,1,.1,1.045,3.7,3.7,0,0,0-.5-.757.478.478,0,0,0-.548-.09,4.309,4.309,0,0,0-.752.387A9.044,9.044,0,0,1,40.063,33.661Z" transform="translate(-40.063 -32.128)" fill="#7a3318"/>
          <ellipse id="Ellipse_10" data-name="Ellipse 10" cx="0.337" cy="0.434" rx="0.337" ry="0.434" transform="translate(2.041 0.757) rotate(14.152)" fill="#010101"/>
          <circle id="Ellipse_11" data-name="Ellipse 11" cx="0.297" cy="0.297" r="0.297" transform="translate(0.968 1.126)" fill="#fff"/>
        </g>
      </g>
    </g>
    <g id="Group_18" data-name="Group 18" transform="translate(76.33 59.38)">
      <path id="Path_59" data-name="Path 59" d="M82.366,117.667s.614.723,2.7.093c0,0,3.624-13.732,5.588-20.847H87.471C86.267,101.9,84.178,110.484,82.366,117.667Z" transform="translate(-82.366 -64.049)" fill="#5f4839"/>
      <path id="Path_60" data-name="Path 60" d="M108.7,96.912h-3.184c1.963,7.115,5.586,20.847,5.586,20.847,2.09.63,2.7-.093,2.7-.093C111.994,110.484,109.906,101.9,108.7,96.912Z" transform="translate(-83.736 -64.049)" fill="#5f4839"/>
      <path id="Path_61" data-name="Path 61" d="M91.789,96.912s-3.368,14.072-6.106,24.918c0,0,.612.723,2.7.087,0,0,6.6-25.005,6.824-25.005Z" transform="translate(-82.562 -64.049)" fill="#8e7563"/>
      <path id="Path_62" data-name="Path 62" d="M113.065,96.912h-3.4c.218,0,6.814,25.005,6.814,25.005,2.091.636,2.7-.087,2.7-.087C116.439,110.984,113.065,96.912,113.065,96.912Z" transform="translate(-83.981 -64.049)" fill="#8e7563"/>
      <path id="Path_63" data-name="Path 63" d="M111.913,61.982s-5.866,15.252-7.977,23.716a67.879,67.879,0,0,1,8.846.741c3.36-11.171,8.481-23.858,8.481-23.858S117.91,62.581,111.913,61.982Z" transform="translate(-83.643 -61.982)" fill="#5f4839"/>
      <path id="Path_64" data-name="Path 64" d="M113.339,86.477a3.453,3.453,0,0,1,2.8,1.827c.5-5.381,3.594-15.735,6.821-24.064l-1.146-1.622S116.7,75.306,113.339,86.477Z" transform="translate(-84.199 -62.02)" fill="#8e7563"/>
      <path id="Path_65" data-name="Path 65" d="M87.575,95.08h24.577V96.8H87.575Z" transform="translate(-82.674 -63.941)" fill="#a18d7d"/>
      <path id="Path_66" data-name="Path 66" d="M87.961,94.609h24.281c1.257-.028,3.171-2.842,2.294-4.849v-.006a3.452,3.452,0,0,0-2.8-1.827,67.874,67.874,0,0,0-8.846-.741c-5.419-.171-11.475,0-14.193.794-4.887,1.413-1.2,6.63-1.2,6.63h.469Z" transform="translate(-82.59 -63.47)" fill="#160b0c"/>
    </g>
    <g id="Group_41" data-name="Group 41" transform="translate(49.739 18.017)">
      <g id="Group_40" data-name="Group 40">
        <path id="Path_67" data-name="Path 67" d="M79.091,53.369s5.42-2.014,7.454-6.719l1.311,8.232a29.5,29.5,0,0,1-8.511,3.655c-3.026.5-11.264-1.577-11.264-1.577l.682-2.321C71.408,55.9,79.091,53.369,79.091,53.369Z" transform="translate(-54.93 -19.712)" fill="#81b6bb"/>
        <path id="Path_68" data-name="Path 68" d="M97.081,41.38l-10.215.843s-1.4,22.687-2.239,39.39a135.475,135.475,0,0,0,21.966,2.223c.468-5.033.891-10.946,1.072-17.172C108.167,49.278,104.514,44.869,97.081,41.38Z" transform="translate(-55.909 -19.4)" fill="#745050"/>
        <g id="Group_19" data-name="Group 19" transform="translate(30.952 21.98)">
          <path id="Path_69" data-name="Path 69" d="M87.075,42.244l5.03-.415c-.672.873-1.475,1.677-2.147,2.517-.686.86-1.354,1.736-1.992,2.633A6.876,6.876,0,0,1,87.075,42.244Z" transform="translate(-87.003 -41.407)" fill="#8d6c6b"/>
          <path id="Path_70" data-name="Path 70" d="M91.447,43.606q-.563,1.049-1.1,2.11c-.421.838-.83,1.681-1.235,2.526a5.334,5.334,0,0,1-.727-.713q1.164-1.662,2.462-3.231C91.041,44.066,91.243,43.836,91.447,43.606Z" transform="translate(-87.084 -41.512)" fill="#8d6c6b"/>
          <path id="Path_71" data-name="Path 71" d="M91.889,43.057a16.516,16.516,0,0,0,1.053-1.292l.228-.019c-.054.207-.111.41-.166.615-.195.384-.421.756-.62,1.139-.373.714-.692,1.457-.994,2.2-.417,1.029-.795,2.074-1.162,3.121a6.924,6.924,0,0,1-.947-.6c.5-1.05,1.013-2.1,1.544-3.134C91.171,44.41,91.508,43.718,91.889,43.057Z" transform="translate(-87.137 -41.402)" fill="#8d6c6b"/>
          <path id="Path_72" data-name="Path 72" d="M92.987,42.725Q92.133,46,91.171,49.252a2.7,2.7,0,0,1-.43-.146c-.137-.062-.271-.128-.4-.195.4-1.151.813-2.3,1.287-3.417C92.032,44.537,92.512,43.645,92.987,42.725Z" transform="translate(-87.2 -41.46)" fill="#8d6c6b"/>
          <path id="Path_73" data-name="Path 73" d="M93.963,41.69c-.365,2.516-.823,5.015-1.343,7.5a3.039,3.039,0,0,1-.8.083q1.118-3.769,2.092-7.581Z" transform="translate(-87.287 -41.398)" fill="#8d6c6b"/>
          <path id="Path_74" data-name="Path 74" d="M93.737,48.873a4.338,4.338,0,0,1-.758.316q.642-3.086,1.14-6.2Q94.023,45.938,93.737,48.873Z" transform="translate(-87.356 -41.475)" fill="#8d6c6b"/>
          <path id="Path_75" data-name="Path 75" d="M95.152,41.6c.062,1.94.276,3.881.468,5.819a9.365,9.365,0,0,1-1.12.959q.309-3.37.373-6.753Z" transform="translate(-87.446 -41.393)" fill="#8d6c6b"/>
          <path id="Path_76" data-name="Path 76" d="M97.842,41.38c.525.246,1.028.5,1.514.756a21.427,21.427,0,0,1-1.029,1.93,27.527,27.527,0,0,0-.837-2.657Z" transform="translate(-87.623 -41.38)" fill="#8d6c6b"/>
          <path id="Path_77" data-name="Path 77" d="M96.89,41.456a27.546,27.546,0,0,1,1,3.206,18.234,18.234,0,0,1-1.121,1.573,43,43,0,0,1-.593-4.719Z" transform="translate(-87.545 -41.385)" fill="#8d6c6b"/>
          <path id="Path_78" data-name="Path 78" d="M95.694,41.556a45.377,45.377,0,0,0,.664,5.1c-.226.263-.456.517-.689.75-.192-1.936-.4-3.875-.467-5.812Z" transform="translate(-87.488 -41.39)" fill="#8d6c6b"/>
        </g>
        <path id="Path_79" data-name="Path 79" d="M81.134,123.525l2.636-.755c.756,2.646,0,3.275,0,3.275H75.833C75.958,124.534,81.134,123.525,81.134,123.525Z" transform="translate(-55.389 -24.217)" fill="#3b3d35"/>
        <path id="Path_80" data-name="Path 80" d="M84.754,89.385c-6.858,2-7.332,4.529-7.531,7.112a80.91,80.91,0,0,0,2.133,25.369l5.4.312S79.65,97.486,87.4,93.237Z" transform="translate(-55.458 -22.241)" fill="#018f91"/>
        <path id="Path_81" data-name="Path 81" d="M80.38,93.37a5.806,5.806,0,0,1,4.489-3.821l-.114-.166c-6.858,2-7.332,4.529-7.531,7.112a80.91,80.91,0,0,0,2.133,25.369l1.412.081C79.123,113.708,78.615,101.688,80.38,93.37Z" transform="translate(-55.458 -22.241)" fill="#1b2424"/>
        <path id="Path_82" data-name="Path 82" d="M87.425,93.237l-2.642-3.852c-5.348,1.564-6.813,3.442-7.294,5.419a13.83,13.83,0,0,1,6.529,3.615C84.673,96.038,85.748,94.157,87.425,93.237Z" transform="translate(-55.487 -22.241)" fill="#81c8c9"/>
        <path id="Path_83" data-name="Path 83" d="M73.189,119.36l3.275-.757a4.366,4.366,0,0,1-.314,3.087l-8.127.316C68.778,120.557,73.189,119.36,73.189,119.36Z" transform="translate(-54.927 -23.97)" fill="#3b3d35"/>
        <path id="Path_84" data-name="Path 84" d="M77.688,91.288c4.3-2.761,10.009-6.007,11.074-6.753l-5.469-1.984-5.826,2.281c-6.859,2.006-7.333,4.53-7.532,7.113a80.958,80.958,0,0,0,2.133,25.367l5.4.313S72.628,94.537,77.688,91.288Z" transform="translate(-55.027 -21.836)" fill="#018f91"/>
        <path id="Path_85" data-name="Path 85" d="M76.466,85.309c-5.9,1.951-6.34,4.349-6.528,6.8a80.957,80.957,0,0,0,2.133,25.367l1.882.109C71.069,106.372,69.957,87.813,76.466,85.309Z" transform="translate(-55.027 -22)" fill="#1b2424"/>
        <path id="Path_86" data-name="Path 86" d="M77.838,91.288c4.3-2.761,10.009-6.007,11.074-6.753l-5.469-1.984-5.826,2.281a15.506,15.506,0,0,0-5.373,2.474c1.28,2.295,2.846,4.39,3.889,6.792A4.709,4.709,0,0,1,77.838,91.288Z" transform="translate(-55.177 -21.836)" fill="#81c8c9"/>
        <path id="Path_87" data-name="Path 87" d="M88.233,52.876c-.123.117-.243.232-.368.347.575-3.737.877-7.473,1.134-11.191l-2.781.23S85.028,61.454,84.189,77.53c-.073,1.4-10.492,4.606-10.492,4.606l3.064,6.42c1.565-.521,9.26-6.565,9.5-6.526.253-8.831.461-17.685,1.224-26.54A21.669,21.669,0,0,1,88.233,52.876Z" transform="translate(-55.263 -19.438)" fill="#8cc4cb"/>
        <path id="Path_88" data-name="Path 88" d="M97.693,41.876c-2.9,3.74-5.556,7.6-9.155,10.991a21.468,21.468,0,0,0-.745,2.615c-.763,8.855-.971,17.711-1.224,26.54.721.117-8.411,8.231-7.686,8.34,4.318.646,12.739,4.311,12.739,4.311s13.283-3.147,14.628-10.807c.468-5.033.891-10.946,1.072-17.172C107.8,50.071,104.482,45.311,97.693,41.876Z" transform="translate(-55.567 -19.429)" fill="#acd9de"/>
        <path id="Path_89" data-name="Path 89" d="M88.337,55.481a21.373,21.373,0,0,1,.745-2.615c3.6-3.391,6.255-7.251,9.155-10.991a19.52,19.52,0,0,1,3.937,2.541,28.433,28.433,0,0,1-4.834,7.957,20.151,20.151,0,0,0-2.2-.441v2.7a16.867,16.867,0,0,1-7.093,4.6C88.136,57.987,88.23,56.733,88.337,55.481Z" transform="translate(-56.112 -19.429)" fill="#e1e9ea"/>
        <path id="Path_90" data-name="Path 90" d="M100.148,62.371c-.144,0-.286-.017-.429-.023l0,.008C99.86,62.361,100,62.369,100.148,62.371Z" transform="translate(-56.802 -20.641)" fill="#e1e9ea"/>
        <path id="Path_91" data-name="Path 91" d="M85.781,49.6c.464-.188.933-.379,1.407-.568a9.092,9.092,0,0,0-1.466-1.724l.542-2.9,3.615-4.547c.1.661-1.166,13.082-1.166,13.082l-3.343,5.259Z" transform="translate(-55.954 -19.31)" fill="#acd9de"/>
        <path id="Path_92" data-name="Path 92" d="M89.935,39.866c.041.288-.176,2.811-.43,5.566a11.913,11.913,0,0,1-3.2-.931l.016-.088Z" transform="translate(-56.009 -19.31)" fill="#e1e9ea"/>
        <path id="Path_93" data-name="Path 93" d="M87.473,58.614,88.6,53.043A44.279,44.279,0,0,0,98.04,40.7L102.2,43.33a56.716,56.716,0,0,1-5.016,7.441c-1,.106-2.011.205-2.991.212.14.89.246,1.8.332,2.71A25.18,25.18,0,0,1,87.473,58.614Z" transform="translate(-56.078 -19.36)" fill="#cdebef"/>
        <g id="Group_20" data-name="Group 20" transform="translate(1.166 29.625)">
          <path id="Path_94" data-name="Path 94" d="M71.681,64.982c-.154,0-.308-.006-.461-.018-3.725-.3-6.488-2.65-9.159-4.928-.9-.766-1.747-1.489-2.615-2.119a26.16,26.16,0,0,0-4.1-2l.24-.612a26.265,26.265,0,0,1,4.251,2.083c.889.644,1.746,1.376,2.656,2.152,2.592,2.209,5.271,4.493,8.784,4.773,4.968.406,11.172-6.246,13.825-14.8l.627.194C83.066,58.277,76.854,64.982,71.681,64.982Z" transform="translate(-55.342 -49.506)" fill="#010101"/>
        </g>
        <path id="Path_95" data-name="Path 95" d="M55.673,56.245a1.04,1.04,0,0,1-.932.162,1.017,1.017,0,0,1-.638-.4C54.111,54.678,55.883,54.971,55.673,56.245Z" transform="translate(-54.103 -20.214)" fill="#87888c"/>
        <g id="Group_23" data-name="Group 23" transform="translate(2.086 32.424)">
          <g id="Group_21" data-name="Group 21">
            <path id="Path_96" data-name="Path 96" d="M56.866,57.321c-.054.067-.467.594-.058.564a23.457,23.457,0,0,0,2.864-1.195s1.961,1.238,3.165.769a8.59,8.59,0,0,0,2.124-1.146c-.037-.018.106-1.394.106-1.394-2.213.038-4.724-2.5-6.578-2.438-.652.021-2.547,3.2-2.1,4.468.113.327.2.188.289-.114C56.646,57.047,56.587,57.553,56.866,57.321Z" transform="translate(-56.32 -52.481)" fill="#e6a88d"/>
          </g>
          <g id="Group_22" data-name="Group 22" transform="translate(2.263 0.005)">
            <path id="Path_97" data-name="Path 97" d="M62.936,56.5a9.155,9.155,0,0,1-4.211-1,3.051,3.051,0,0,0,.036-3.014c1.354.038,3.034,1.353,4.688,2.034a4.5,4.5,0,0,0,1.76.4s-.143,1.376-.106,1.394a8.59,8.59,0,0,1-2.124,1.146,1.629,1.629,0,0,1-.551.1C62.592,57.24,63.033,56.294,62.936,56.5Z" transform="translate(-58.725 -52.486)" fill="#f4f1f0"/>
          </g>
        </g>
        <path id="Path_98" data-name="Path 98" d="M86.355,40.273l.387-3.527L86.523,32l-.807,6.662c-.028.358-.062.717-.1,1.071a12.041,12.041,0,0,0,.074,4.371l.739-.29A10.247,10.247,0,0,1,86.355,40.273Z" transform="translate(-55.959 -18.844)" fill="#727276"/>
        <g id="Group_39" data-name="Group 39" transform="translate(26.665)">
          <path id="Path_99" data-name="Path 99" d="M97.587,23.62c-2.454,1.056-8.337,1.861-11.149,1.056-.287.789-.14,4.38,0,6.291s.19,3.637.19,5.138c.048-.072.1-.147.154-.22-.06,1.165-.227,3.6-.248,4.06-.1,1.89-.66,2.362,2.74,2.929.221.039.447.069.66.1,3.059.383,5.273-.238,6.427-1.356,1.042-1.013,1.534-3.3,1.724-5.916.044-.645.073-1.311.087-1.979.011-.616.011-1.232,0-1.849A81.117,81.117,0,0,0,97.587,23.62ZM87.134,35.44A6.754,6.754,0,0,1,88.707,34.1a6.864,6.864,0,0,1-.221.9,3.984,3.984,0,0,0,2.646,0,.338.338,0,0,0,.208-.444l.018,0C91.969,34.871,90.284,35.775,87.134,35.44Z" transform="translate(-82.672 -18.349)" fill="#f3c19e"/>
          <path id="Path_100" data-name="Path 100" d="M86.517,27.38a5.487,5.487,0,0,0,.645.14,21.753,21.753,0,0,0,.413,7.681,6.64,6.64,0,0,0-.946,1.125c0-1.5-.049-3.239-.19-5.138A10.366,10.366,0,0,1,86.517,27.38Z" transform="translate(-82.675 -18.571)" fill="#86532f"/>
          <path id="Path_101" data-name="Path 101" d="M97.587,23.62c-2.454,1.056-8.337,1.861-11.149,1.056a9.245,9.245,0,0,0-.166,2.279,11.582,11.582,0,0,0,10.645-.941c.457,1.757.881,3.513,1.241,5.27C98.06,27.242,97.587,23.62,97.587,23.62Z" transform="translate(-82.672 -18.349)" fill="#f4e1d4"/>
          <g id="Group_26" data-name="Group 26">
            <path id="Path_102" data-name="Path 102" d="M96.59,42.747c-1.153,1.118-3.368,1.739-6.427,1.356C90.859,47.913,93.878,46.715,96.59,42.747Z" transform="translate(-82.902 -19.481)" fill="#f3c19e"/>
            <path id="Path_103" data-name="Path 103" d="M96.59,42.747A13.885,13.885,0,0,1,94.6,45.114a9.535,9.535,0,0,0-4.017.289,4.622,4.622,0,0,1-.418-1.3C93.222,44.486,95.437,43.865,96.59,42.747Z" transform="translate(-82.902 -19.481)" fill="#f4cbae"/>
            <path id="Path_104" data-name="Path 104" d="M98.913,34.23c-.013.669-.042,1.334-.087,1.979,4.175,0,4.258-4.8,1.78-3.829-.549.58-1.115,1.187-1.682,1.849h-.011Z" transform="translate(-83.415 -18.859)" fill="#f3c19e"/>
            <path id="Path_105" data-name="Path 105" d="M98.913,34.247h.011c.518-.606,1.035-1.161,1.539-1.7a1.94,1.94,0,0,1,.609,1.968,4.615,4.615,0,0,1-1.491,1.65,4.886,4.886,0,0,1-.755.057C98.87,35.581,98.9,34.916,98.913,34.247Z" transform="translate(-83.415 -18.877)" fill="#f4e1d4"/>
            <path id="Path_106" data-name="Path 106" d="M97.361,23.288a3.972,3.972,0,0,1,1.478-.495c-4.491-9.081-12.792-1.057-15.729-4.777,0,0-2.408,5.575,1.943,8.043C85.391,26.25,95.494,26.61,97.361,23.288Z" transform="translate(-82.446 -18.017)" fill="#946e52"/>
            <g id="Group_24" data-name="Group 24" transform="translate(0.001 0.374)">
              <path id="Path_107" data-name="Path 107" d="M89.124,24.847a4.85,4.85,0,0,1-3.962-5.759,3.2,3.2,0,0,1-.955-.259A8.407,8.407,0,0,0,88.44,26.2c2.742-.1,6.478-.555,8.274-2A24.7,24.7,0,0,1,89.124,24.847Z" transform="translate(-82.551 -18.44)" fill="#242529"/>
              <path id="Path_108" data-name="Path 108" d="M83.783,18.595a2.393,2.393,0,0,1-.25-.18,10.827,10.827,0,0,0,.209,3.414,9.649,9.649,0,0,0,2.525,4.355c.43.014.962.019,1.553.008A8.762,8.762,0,0,1,83.783,18.595Z" transform="translate(-82.508 -18.415)" fill="#242529"/>
              <path id="Path_109" data-name="Path 109" d="M82.6,19.892c-.345,1.835-.331,4.655,2.392,6.24a9.515,9.515,0,0,1-2.278-4.869C82.674,20.882,82.624,20.4,82.6,19.892Z" transform="translate(-82.447 -18.502)" fill="#242529"/>
            </g>
            <path id="Path_110" data-name="Path 110" d="M86.475,35.939a2.621,2.621,0,0,0-.851.93l.828.039c3.272.148,7.487.309,7.487.309a3.512,3.512,0,0,0-.589-.8A4.453,4.453,0,0,0,91.2,35.165l-2.646-.23A6.754,6.754,0,0,0,86.475,35.939Z" transform="translate(-82.634 -19.018)" fill="#946e52"/>
            <path id="Path_111" data-name="Path 111" d="M88.7,34.843c.042-.027.084-.056.127-.083l2.647.457c.9.459,0,2.2-2.745,1.322C88.015,36.061,88.355,35.433,88.7,34.843Z" transform="translate(-82.793 -19.008)" fill="#cdcccc"/>
            <path id="Path_112" data-name="Path 112" d="M98.881,33.685h.011c.568-.662,1.134-1.27,1.682-1.849,2.192-2.315,4-4.05,3.489-6.069a3.78,3.78,0,0,0-4.287-2.676,3.972,3.972,0,0,0-1.478.495,81.264,81.264,0,0,1,.586,8.25C98.893,32.453,98.893,33.069,98.881,33.685Z" transform="translate(-83.384 -18.315)" fill="#7e5a45"/>
            <path id="Path_113" data-name="Path 113" d="M99.15,25.642a11.123,11.123,0,0,0-.492,1.545c-.165-2.122-.358-3.6-.358-3.6a3.972,3.972,0,0,1,1.478-.495,4.274,4.274,0,0,1,1.757.133A3.847,3.847,0,0,0,99.15,25.642Z" transform="translate(-83.384 -18.315)" fill="#cdcccc"/>
            <path id="Path_114" data-name="Path 114" d="M98.929,34.339h-.011c0-.08,0-.158,0-.236.018.06.039.122.057.184Z" transform="translate(-83.421 -18.969)" fill="#6d717f"/>
            <g id="Group_25" data-name="Group 25" transform="translate(15.462 5.574)">
              <path id="Path_115" data-name="Path 115" d="M98.92,32.382c0-.078,0-.155,0-.234q-.011-.731-.04-1.441a9.057,9.057,0,0,0,3.194-2.4,12.418,12.418,0,0,1-2.638,3.6C99.27,32.069,99.095,32.228,98.92,32.382Z" transform="translate(-98.88 -24.2)" fill="#242529"/>
              <path id="Path_116" data-name="Path 116" d="M100.267,31.967a13.794,13.794,0,0,0,2.462-3.563,8.868,8.868,0,0,1-.392,1.9c-.517.583-1.1,1.194-1.725,1.85-.533.563-1.085,1.156-1.636,1.8-.019-.061-.04-.124-.057-.184,0-.182,0-.362,0-.544A9.646,9.646,0,0,0,100.267,31.967Z" transform="translate(-98.882 -24.206)" fill="#242529"/>
              <path id="Path_117" data-name="Path 117" d="M103.123,23.942a3.406,3.406,0,0,1,1.227,1.877,3.656,3.656,0,0,1-.825,3.053,9.11,9.11,0,0,0,.109-1.962A7.8,7.8,0,0,0,103.123,23.942Z" transform="translate(-99.131 -23.942)" fill="#242529"/>
            </g>
          </g>
          <path id="Path_118" data-name="Path 118" d="M91.607,35.273a10.823,10.823,0,0,1-2.983.209C89.018,32.506,89.65,28.993,91.607,35.273Z" transform="translate(-82.811 -18.831)" fill="#f8a890"/>
          <g id="Group_31" data-name="Group 31" transform="translate(3.423 8.615)">
            <g id="Group_28" data-name="Group 28" transform="translate(5.335 2.655)">
              <g id="Group_27" data-name="Group 27" transform="translate(0.011 0.253)">
                <path id="Path_119" data-name="Path 119" d="M95.565,31.677c.076.345-.786.914-1.756,1.006a1.337,1.337,0,0,0-.336-2.379A1.7,1.7,0,0,1,95.565,31.677Z" transform="translate(-91.867 -30.264)" fill="#fff"/>
                <path id="Path_120" data-name="Path 120" d="M93.373,30.306a1.337,1.337,0,0,1,.336,2.379,2.074,2.074,0,0,1-1.943-.762,1.917,1.917,0,0,1,1.6-1.617Z" transform="translate(-91.766 -30.267)" fill="#7e5a45"/>
              </g>
              <path id="Path_121" data-name="Path 121" d="M91.766,31.907a1.581,1.581,0,0,1,.469-1.281,2.136,2.136,0,0,1,1.287-.619,1.826,1.826,0,0,1,1.386.4,1.61,1.61,0,0,1,.557,1.251,2.149,2.149,0,0,0-.789-.933,1.757,1.757,0,0,0-1.1-.218,2.241,2.241,0,0,0-1.079.411A2.047,2.047,0,0,0,91.766,31.907Z" transform="translate(-91.755 -29.996)" fill="#462917"/>
              <circle id="Ellipse_12" data-name="Ellipse 12" cx="0.47" cy="0.47" r="0.47" transform="translate(1.951 1.124)" fill="#fff"/>
              <circle id="Ellipse_13" data-name="Ellipse 13" cx="0.618" cy="0.618" r="0.618" transform="translate(0.312 0.734)" fill="#010101"/>
            </g>
            <g id="Group_30" data-name="Group 30" transform="translate(0.386 2.688)">
              <g id="Group_29" data-name="Group 29" transform="translate(0.033 0.233)">
                <path id="Path_122" data-name="Path 122" d="M86.8,30.557c.757-.348,1.844.9.568,1.761l0,.012a1.72,1.72,0,0,1-.84-.82,2.356,2.356,0,0,1,.273-.953Z" transform="translate(-86.529 -30.292)" fill="#7e5a45"/>
                <path id="Path_123" data-name="Path 123" d="M86.822,30.544c.3-.466.928-.528,2.205,1.6a1.88,1.88,0,0,1-1.64.177l0-.012C88.666,31.446,87.579,30.2,86.822,30.544Z" transform="translate(-86.546 -30.279)" fill="#fff"/>
              </g>
              <path id="Path_124" data-name="Path 124" d="M89.01,32.127c-.27-.245-.5-.5-.728-.756a7.184,7.184,0,0,0-.7-.69.9.9,0,0,0-.334-.18c-.087-.019-.161.006-.262.107a3.163,3.163,0,0,0-.453.875,1.637,1.637,0,0,1,.138-1.1.782.782,0,0,1,.242-.255.66.66,0,0,1,.379-.093,1.124,1.124,0,0,1,.6.26,3.033,3.033,0,0,1,.7.849A3.993,3.993,0,0,1,89.01,32.127Z" transform="translate(-86.494 -30.031)" fill="#462917"/>
              <circle id="Ellipse_14" data-name="Ellipse 14" cx="0.399" cy="0.399" r="0.399" transform="translate(0.001 0.835)" fill="#010101"/>
              <circle id="Ellipse_15" data-name="Ellipse 15" cx="0.367" cy="0.367" r="0.367" transform="translate(0.994 1.277)" fill="#fff"/>
            </g>
            <path id="Path_125" data-name="Path 125" d="M88.624,35.659a2.436,2.436,0,0,0,.893.351,3.093,3.093,0,0,0,.968.034,3.479,3.479,0,0,0,.48-.1c.078-.024.155-.053.232-.082a1.026,1.026,0,0,0,.244-.124.424.424,0,0,0,.167-.286.6.6,0,0,0-.046-.278,1.069,1.069,0,0,0-.293-.394,1.79,1.79,0,0,1,.112.441c.018.147-.027.245-.105.273-.024.012-.119.035-.183.056s-.144.036-.216.05a3.842,3.842,0,0,1-.437.073A7.987,7.987,0,0,1,88.624,35.659Z" transform="translate(-86.234 -27.624)" fill="#b07c5f"/>
            <path id="Path_126" data-name="Path 126" d="M89.381,28.818c-.092,1.089-.236,2.168-.412,3.241-.087.537-.231,1.063-.278,1.6s-.075,1.08-.094,1.635l.054.02a4.824,4.824,0,0,0,.6-1.563,10.016,10.016,0,0,0,.168-1.643,23.894,23.894,0,0,0,.02-3.293Z" transform="translate(-86.233 -27.271)" fill="#d59671"/>
            <path id="Path_127" data-name="Path 127" d="M91.686,28.037a3.988,3.988,0,0,1,1.377-.687,4.658,4.658,0,0,1,1.019-.168c-.243.293-.482.587-.713.89.366-.31.739-.608,1.118-.9h.071c.135.008.268.02.4.039a4.81,4.81,0,0,0-.5.455,5.628,5.628,0,0,1,.7-.421,3.187,3.187,0,0,1,.874.288,10.862,10.862,0,0,1-1.366.521c-.439.138-.869.261-1.293.382s-.838.243-1.258.377-.836.287-1.325.49A2.46,2.46,0,0,1,91.686,28.037Z" transform="translate(-86.363 -27.174)" fill="#7e5a45"/>
            <path id="Path_128" data-name="Path 128" d="M86.634,28.321a2.759,2.759,0,0,0-.329-.188,1.285,1.285,0,0,1,.387-.211,5.352,5.352,0,0,1,.584.356c-.093-.143-.2-.282-.3-.418a1.5,1.5,0,0,1,.506.018,1.552,1.552,0,0,1,.678.325,1.24,1.24,0,0,1,.423.66,3.439,3.439,0,0,1-.723.02,3.936,3.936,0,0,1-.569-.079,4.125,4.125,0,0,1-.548-.151c-.194-.066-.39-.148-.657-.267a.974.974,0,0,1,.158-.194A2.7,2.7,0,0,1,86.634,28.321Z" transform="translate(-86.084 -27.214)" fill="#7e5a45"/>
          </g>
          <g id="Group_32" data-name="Group 32" transform="translate(15.203 1.194)">
            <path id="Path_129" data-name="Path 129" d="M99.869,23a7.92,7.92,0,0,1,.839-.614,3.8,3.8,0,0,1,.912-.435,1.13,1.13,0,0,1,.877.038.987.987,0,0,1,.438.668l.552-.13a1.623,1.623,0,0,0-.3-.549,1.3,1.3,0,0,0-.5-.374,1.489,1.489,0,0,0-1.154.082,3.943,3.943,0,0,0-.9.587A8.124,8.124,0,0,0,99.869,23Z" transform="translate(-98.68 -19.418)" fill="#7e5a45"/>
            <path id="Path_130" data-name="Path 130" d="M99.869,22.868a8.221,8.221,0,0,0,1.326-1.522,4.49,4.49,0,0,0,.475-.928,3.009,3.009,0,0,0,.138-.525,1.612,1.612,0,0,0,0-.607l-.541.171a1.188,1.188,0,0,1,.046.388,2.493,2.493,0,0,1-.055.456,4.262,4.262,0,0,1-.312.907A8.106,8.106,0,0,1,99.869,22.868Z" transform="translate(-98.68 -19.286)" fill="#7e5a45"/>
            <path id="Path_131" data-name="Path 131" d="M99.357,22.847a7.288,7.288,0,0,0,.151-1.619,4.16,4.16,0,0,0-.1-.835,2.09,2.09,0,0,0-.388-.821l-.41.391a2.377,2.377,0,0,1,.62,1.3A7.127,7.127,0,0,1,99.357,22.847Z" transform="translate(-98.605 -19.303)" fill="#7e5a45"/>
          </g>
          <path id="Path_132" data-name="Path 132" d="M99.735,35.459a3.074,3.074,0,0,1,.342-1.614,2.686,2.686,0,0,1,.5-.664,2.636,2.636,0,0,1,.686-.463l.036.065a7.255,7.255,0,0,0-.4.723l-.136.323-.107.315c-.045.154-.078.312-.112.469a3.65,3.65,0,0,1,.891-.068l.032.064c-.537.311-1.085.6-1.63.9l-.09.05Z" transform="translate(-83.469 -18.887)" fill="#e78867"/>
          <g id="Group_38" data-name="Group 38" transform="translate(3.035 10.284)">
            <g id="Group_33" data-name="Group 33" transform="translate(4.974)">
              <path id="Path_133" data-name="Path 133" d="M93.3,34.685a1.618,1.618,0,0,0,.232-.016,1.92,1.92,0,0,0,1.417-1.1,3.459,3.459,0,0,0,.3-2.059c-.221-1.566-1.347-2.718-2.535-2.549a1.91,1.91,0,0,0-1.414,1.1A3.449,3.449,0,0,0,91,32.121,2.7,2.7,0,0,0,93.3,34.685Zm-.349-5.055c.755,0,1.47.87,1.628,1.979a2.772,2.772,0,0,1-.236,1.65,1.265,1.265,0,0,1-.906.737c-.805.118-1.6-.793-1.767-1.972a2.76,2.76,0,0,1,.236-1.646,1.261,1.261,0,0,1,.909-.737A.941.941,0,0,1,92.953,29.63Z" transform="translate(-90.958 -28.947)" fill="#27515a"/>
            </g>
            <g id="Group_34" data-name="Group 34" transform="translate(0 0.347)">
              <path id="Path_134" data-name="Path 134" d="M87.465,34.362a1.024,1.024,0,0,0,.143-.009c.862-.122,1.379-1.323,1.176-2.732s-1.02-2.419-1.895-2.294a1.361,1.361,0,0,0-1.025.975,3.649,3.649,0,0,0-.15,1.757C85.906,33.393,86.643,34.362,87.465,34.362Zm-.45-4.549c.439,0,1.021.76,1.182,1.89.167,1.157-.212,2.094-.657,2.157-.465.071-1.069-.712-1.235-1.886a3.287,3.287,0,0,1,.124-1.562c.132-.348.326-.564.533-.594A.323.323,0,0,1,87.015,29.813Z" transform="translate(-85.671 -29.316)" fill="#27515a"/>
            </g>
            <g id="Group_35" data-name="Group 35" transform="translate(2.726 0.922)">
              <path id="Path_135" data-name="Path 135" d="M91.168,31.875a2.81,2.81,0,0,0-.36-1.088,2.039,2.039,0,0,0-.363-.485,1.293,1.293,0,0,0-.608-.353.9.9,0,0,0-.783.2,1.288,1.288,0,0,0-.37.563,1.972,1.972,0,0,0-.049,1.166,8.248,8.248,0,0,1,.524-.924,1.234,1.234,0,0,1,.289-.293.3.3,0,0,1,.243-.043,1.885,1.885,0,0,1,.7.493C90.632,31.35,90.876,31.618,91.168,31.875Z" transform="translate(-88.569 -29.927)" fill="#27515a"/>
            </g>
            <g id="Group_36" data-name="Group 36" transform="translate(8.887 2.276)">
              <path id="Path_136" data-name="Path 136" d="M95.118,32.043c.031,0,2.423.326,5.131.67.135-.226.278-.447.432-.657-2.8-.348-5.441-.685-5.47-.689Z" transform="translate(-95.118 -31.367)" fill="#27515a"/>
            </g>
            <g id="Group_37" data-name="Group 37" transform="translate(1.53 0.658)">
              <path id="Path_137" data-name="Path 137" d="M89.495,30.171a.635.635,0,0,1,.423.114,1.778,1.778,0,0,1,.314.274c-.12-.068-.239-.139-.358-.2a.58.58,0,0,0-.359-.077.6.6,0,0,0-.324.181,3.654,3.654,0,0,0-.274.3,1.362,1.362,0,0,1,.21-.36A.649.649,0,0,1,89.495,30.171Z" transform="translate(-87.394 -29.678)" fill="#a081a3"/>
              <path id="Path_138" data-name="Path 138" d="M87.992,30.241a3.369,3.369,0,0,1,.358.859,3.494,3.494,0,0,1,.035,1.836,3.4,3.4,0,0,0,.018-.912,5.133,5.133,0,0,0-.162-.894,3.572,3.572,0,0,0-.326-.844,1.42,1.42,0,0,0-.618-.639A1.3,1.3,0,0,1,87.992,30.241Z" transform="translate(-87.298 -29.647)" fill="#a081a3"/>
              <path id="Path_139" data-name="Path 139" d="M94.659,33.286a3.1,3.1,0,0,0,.231-1.213,3.865,3.865,0,0,0-.18-1.229,1.872,1.872,0,0,0-.676-1.023,1.753,1.753,0,0,1,.756.994A3.717,3.717,0,0,1,95,32.074a3.055,3.055,0,0,1-.265,1.247,1.9,1.9,0,0,1-.868.909A2.045,2.045,0,0,0,94.659,33.286Z" transform="translate(-87.687 -29.657)" fill="#a081a3"/>
            </g>
            <path id="Path_140" data-name="Path 140" d="M87.053,29.844c.439,0,1.021.76,1.182,1.89.167,1.157-.212,2.094-.657,2.157-.465.071-1.069-.712-1.235-1.886a3.287,3.287,0,0,1,.124-1.562c.132-.348.326-.564.533-.594A.324.324,0,0,1,87.053,29.844Z" transform="translate(-85.709 -29.001)" fill="url(#linear-gradient)"/>
            <path id="Path_141" data-name="Path 141" d="M86.6,32.009a2.719,2.719,0,0,1,.1-1.287.815.815,0,0,1,.342-.454,3.127,3.127,0,0,1,.446,3.289C87.134,33.476,86.725,32.873,86.6,32.009Z" transform="translate(-85.725 -29.026)" fill="url(#linear-gradient-2)"/>
            <path id="Path_142" data-name="Path 142" d="M93,29.673c.755,0,1.47.87,1.628,1.979a2.772,2.772,0,0,1-.236,1.65,1.265,1.265,0,0,1-.906.737c-.805.118-1.6-.793-1.767-1.972a2.76,2.76,0,0,1,.236-1.646,1.261,1.261,0,0,1,.909-.737A.941.941,0,0,1,93,29.673Z" transform="translate(-86.027 -28.99)" fill="url(#linear-gradient-3)"/>
            <path id="Path_143" data-name="Path 143" d="M92.113,32.066a2.227,2.227,0,0,1,.19-1.332,1.158,1.158,0,0,1,.5-.521,2.721,2.721,0,0,1,.417,3.417A1.815,1.815,0,0,1,92.113,32.066Z" transform="translate(-86.051 -29.022)" fill="url(#linear-gradient-4)"/>
          </g>
          <path id="Path_144" data-name="Path 144" d="M88.769,37.617a3.068,3.068,0,0,0,1.194.2,4.1,4.1,0,0,0,1.2-.195l.024.06a1.171,1.171,0,0,1-.523.595,1.473,1.473,0,0,1-.692.2,1.43,1.43,0,0,1-.712-.181,1.061,1.061,0,0,1-.517-.613Z" transform="translate(-82.818 -19.177)" fill="#d59671"/>
        </g>
        <ellipse id="Ellipse_16" data-name="Ellipse 16" cx="0.359" cy="0.426" rx="0.359" ry="0.426" transform="translate(32.153 47.295)" fill="#cdebef"/>
        <ellipse id="Ellipse_17" data-name="Ellipse 17" cx="0.359" cy="0.425" rx="0.359" ry="0.425" transform="translate(32.074 53.58)" fill="#cdebef"/>
        <ellipse id="Ellipse_18" data-name="Ellipse 18" cx="0.359" cy="0.425" rx="0.359" ry="0.425" transform="translate(31.996 59.864)" fill="#cdebef"/>
        <path id="Path_145" data-name="Path 145" d="M102.964,82.6,97.858,75.42,95.69,76.554l5.69,7.559Z" transform="translate(-56.564 -21.414)" fill="#8cc4cb"/>
        <path id="Path_146" data-name="Path 146" d="M100.164,51.023c-2.461-4.5-18.284,4.142-20.107,4.653-2.969.831-15.936-1.736-15.936-1.736l-.73,4.517S75.2,63.043,81.624,61.69C81.623,61.69,103.65,57.4,100.164,51.023Z" transform="translate(-54.653 -19.894)" fill="#cdebef"/>
      </g>
    </g>
    <path id="Path_147" data-name="Path 147" d="M37.792,77.264c2.972,1.233,4.141,1.863,5.626,1.926,1.589.066,4.119-.543,5-.33,1.032.251,1.765,1.6,2.186,4.264,0,0-.721-.926-1.628-1.938,0,0,1.655,4.549.442,2.819a12.163,12.163,0,0,1-1.567-2.819s1.823,4.919.529,3.211A4.482,4.482,0,0,1,47.2,81.6a25.476,25.476,0,0,0,.328,3.16c.219.889-1.228-1.191-1.489-2.613a3.015,3.015,0,0,1-2.966.218l-5.833-1.246Z" transform="translate(-3.365 -3.506)" fill="#f3c19e"/>
    <path id="Path_148" data-name="Path 148" d="M31.1,68.573c-.947-7.311-1.519-18.3-5.13-17.556-5.588,1.16-.209,21.944,2,25.85,1.051,1.863,10.33,3.94,10.33,3.94a9.242,9.242,0,0,0,1.931-4.085S31.708,73.283,31.1,68.573Z" transform="translate(-2.553 -1.951)" fill="#57c0a0"/>
    <path id="Path_149" data-name="Path 149" d="M99.84,34.6a.391.391,0,1,0-.7.346c.5,1.01.511,2.845-2.761,5.158l-.254.179a26.934,26.934,0,0,0-2.938,2.525c-1.734,1.645-3.118,2.955-4.729,2.647.011-.039.02-.076.026-.107l-1.007-.255c0,.006-.007.024-.01.038a1.7,1.7,0,0,1-1.02-1.176l-.739.29a2.4,2.4,0,0,0,1.542,1.644l.025.008c-.294,1.184-.818,3.3-.887,3.675l1.024.188c.059-.322.529-2.229.857-3.547,2.019.419,3.616-1.092,5.454-2.838a25.934,25.934,0,0,1,2.853-2.454l.254-.179C100.035,38.472,100.666,36.272,99.84,34.6Z" transform="translate(-6.234 -0.968)" fill="#727276"/>
    <ellipse id="Ellipse_19" data-name="Ellipse 19" cx="55.5" cy="4" rx="55.5" ry="4" transform="translate(7.572 116.96)" opacity="0.35"/>
  </g>
</svg>
