<?xml version="1.0" encoding="utf-8"?>
<!-- Generator: Adobe Illustrator 16.0.0, SVG Export Plug-In . SVG Version: 6.00 Build 0)  -->
<!DOCTYPE svg PUBLIC "-//W3C//DTD SVG 1.1//EN" "http://www.w3.org/Graphics/SVG/1.1/DTD/svg11.dtd">
<svg version="1.1" id="Layer_1" xmlns="http://www.w3.org/2000/svg" xmlns:xlink="http://www.w3.org/1999/xlink" x="0px" y="0px"
	 width="140px" height="140px" viewBox="0 0 140 140" enable-background="new 0 0 140 140" xml:space="preserve">
<g>
	<path fill="#F3C19E" d="M43.435,49.17c3.717,1.217,10.564,7.603,11.004,7.298c0.44-0.305,8.045-0.84,17.426,0.935l0.694,3.171
		c0,0-17.6,0.861-19.484,0.559c-1.887-0.302-10.257-4.666-10.257-4.666L43.435,49.17z"/>
	<g>
		
			<ellipse transform="matrix(-0.1237 0.9923 -0.9923 -0.1237 118.1721 9.6814)" fill="#87888C" cx="54.812" cy="57.016" rx="1.16" ry="2.183"/>
		
			<ellipse transform="matrix(-0.1237 0.9923 -0.9923 -0.1237 117.7994 8.9519)" fill="#727276" cx="54.947" cy="56.487" rx="1.16" ry="2.183"/>
	</g>
	<path fill="#745050" d="M47.991,51.615c0,0-0.427,4.228-1.403,7.238l5.173,2.871c0,0,2.315-3.304,2.158-6.772L47.991,51.615z"/>
	<path fill="#1F1C1C" d="M53.919,54.952l-5.928-3.337c0,0-0.105,1.042-0.33,2.46c1.933,1.144,3.986,2.13,6.046,3.123
		C53.863,56.479,53.954,55.721,53.919,54.952z"/>
	<path fill="#57C0A0" d="M43.435,48.188c0.906-1.226,3.153,2.007,3.153,2.007s-1.092,3.097-0.627,9.186c0,0-2.332-1.101-3.144-2.333
		C42.817,57.047,41.933,50.222,43.435,48.188z"/>
	<g>
		<rect x="112.498" y="62.442" fill="#828182" width="3.25" height="53.255"/>
		<rect x="47.93" y="62.442" fill="#828182" width="3.251" height="53.255"/>
		<rect x="32.346" y="69.327" fill="#747274" width="64.376" height="30.631"/>
		<path fill="#CDC8CC" d="M32.346,69.327v30.631h17.455c14.855-9.794,30.921-17.956,46.921-25.976v-4.656H32.346z"/>
		<rect x="30.722" y="62.442" fill="#828182" width="3.25" height="57.389"/>
		<rect x="95.097" y="62.442" fill="#828182" width="3.25" height="57.389"/>
		<path fill="#A6A4A6" d="M119.373,61.345c0,0.848-0.982,1.533-2.194,1.533H29.426c-1.213,0-2.196-0.685-2.196-1.533V60.07
			c0-0.847,0.983-1.533,2.196-1.533h87.753c1.212,0,2.194,0.687,2.194,1.533V61.345z"/>
	</g>
	<g>
		<path fill="#5F4839" d="M58.293,118.823c0,0-0.648,0.765-2.855,0.099c0,0-3.83-14.513-5.907-22.031h3.367
			C54.172,102.162,56.379,111.234,58.293,118.823z"/>
		<path fill="#5F4839" d="M31.912,96.891h3.363c-2.073,7.519-5.903,22.031-5.903,22.031c-2.209,0.666-2.858-0.099-2.858-0.099
			C28.431,111.234,30.637,102.162,31.912,96.891z"/>
		<path fill="#8E7563" d="M48.543,96.891c0,0,3.559,14.871,6.453,26.334c0,0-0.647,0.764-2.849,0.091c0,0-6.971-26.425-7.211-26.425
			H48.543z"/>
		<path fill="#8E7563" d="M27.558,96.891h3.597c-0.23,0-7.201,26.425-7.201,26.425c-2.21,0.673-2.85-0.091-2.85-0.091
			C23.991,111.762,27.558,96.891,27.558,96.891z"/>
		<path fill="#5F4839" d="M28.417,62.16c0,0,6.199,16.119,8.431,25.063c-3.845,0.124-7.381,0.413-9.35,0.783
			c-3.551-11.806-8.963-25.214-8.963-25.214S22.078,62.793,28.417,62.16z"/>
		<path fill="#8E7563" d="M27.498,88.007c-1.676,0.308-2.578,1.044-2.965,1.931c-0.525-5.686-3.797-16.629-7.208-25.431l1.21-1.714
			C18.535,62.793,23.947,76.201,27.498,88.007z"/>
		<polygon fill="#A18D7D" points="53.113,95.069 27.142,95.069 27.142,96.891 53.113,96.891 53.113,95.069 		"/>
		<path fill="#160B0C" d="M52.619,95.069h-3.438H34.362h-3.438h-3.968c-1.327-0.03-3.351-3.005-2.424-5.125v-0.007
			c0.387-0.887,1.289-1.623,2.965-1.931c1.969-0.37,5.505-0.659,9.35-0.783c5.727-0.181,12.127,0,14.998,0.838
			c5.164,1.494,1.268,7.008,1.268,7.008H52.619z"/>
	</g>
	<g>
		<path fill="#6A0C0D" d="M66.222,118.879l-3.122-0.727c-0.727,3.133-0.141,3.214-0.141,3.214l9.6,0.144
			C72.325,119.75,66.222,118.879,66.222,118.879z"/>
		<path fill="#373526" d="M66.384,88.469c0,0-1.961-8.648-19.365-12.109l-8.841,0.604c-0.588,7.016,0.899,7.684,7.954,8.127
			c7.056,0.442,15.605,5.02,14.788,11.879c-1.855,15.562,1.818,22.426,1.818,22.426l4.909-0.26
			C67.647,119.135,69.57,91.656,66.384,88.469z"/>
		<path fill="#100E0D" d="M66.384,88.469c0,0-0.904-3.953-6.863-7.582c8.518,9.859,6.653,24.833,5.876,38.367l2.251-0.119
			C67.647,119.135,69.57,91.656,66.384,88.469z"/>
		<path fill="#8F191C" d="M59.558,123.547l-3.122-0.727c-0.728,3.133-0.141,3.215-0.141,3.215l9.6,0.143
			C65.661,124.418,59.558,123.547,59.558,123.547z"/>
		<path fill="#4A4334" d="M59.9,93.237c0,0-2.109-9.808-19.515-13.269l-8.691,1.762c-0.587,7.016,0.899,7.684,7.954,8.127
			c7.056,0.443,15.605,5.021,14.788,11.879c-1.854,15.563,1.818,22.428,1.818,22.428l4.6-0.572
			C60.854,123.592,63.087,96.425,59.9,93.237z"/>
		<path fill="#100E0D" d="M59.9,93.237c0,0-1.441-6.657-11.684-10.937c12.534,9.078,13.079,26.119,10.341,41.576l2.297-0.285
			C60.854,123.592,63.087,96.425,59.9,93.237z"/>
		<path fill="#4AAB8E" d="M24.12,54.101c5.145-11.108,17.396-7.363,20.187-5.406c-0.138,23.57,4.775,28.117,4.775,28.117
			C35.372,82.748,32.234,87.9,32.234,87.9C28.743,73.74,22.936,56.659,24.12,54.101z"/>
		<path fill="#4AAB8E" d="M34.996,72.219c2.735,2.734,5.915,4.913,9.329,6.824c1.424-0.725,3.003-1.471,4.757-2.23
			c0,0-4.913-4.547-4.775-28.117c-2.465-1.728-12.297-4.842-18.109,2.092C32.53,56.498,30.008,67.23,34.996,72.219z"/>
		<path fill="#DBECE7" d="M34.996,72.219c-4.988-4.989-2.466-15.721-8.799-21.431c-0.771,0.92-1.475,2.011-2.077,3.313
			c-1.009,2.176,3.048,14.872,6.43,27.334c1.763,1.217,3.629,2.085,5.558,2.68c1.849-1.432,4.492-3.176,8.218-5.072
			C40.911,77.132,37.731,74.953,34.996,72.219z"/>
		<path fill="#3C8B73" d="M43.638,69.327c-0.888-4.404-1.902-12.247-2.466-16.787c-2.276,2.607-6.813,2.159-9.836-0.177
			c0.914,5.422,2.146,14.15,3.491,19.437C37.635,70.41,40.615,69.973,43.638,69.327z"/>
		<path fill="#F3C19E" d="M36.888,52.208c0.931,0,2.793-1.396,2.793-2.326c0.254-1.016,0.259-1.997,0.123-2.953
			c-2.858-0.648-6.494-0.761-9.749,0.822C30.89,50.655,34.29,52.641,36.888,52.208z"/>
	</g>
	<g>
		<g>
			<path fill="#F3C19E" d="M36.553,43.544c0.554,2.235,2.105,5.005,1.976,5.244c-0.165,0.291-4.153,2.546-6.592-0.59
				c0,0-1.907-5.675-2.192-10.186c0.094,0.037,0.186,0.071,0.279,0.103h0.005c0.339,1.662,0.917,2.707,1.453,3.245
				C32.928,42.813,34.744,42.932,36.553,43.544z"/>
			<path fill="#86532F" d="M38.528,48.789c0.13-0.239-1.422-3.009-1.976-5.244c-0.489-0.165-0.99-0.27-1.487-0.363
				c0.222,2.188,0.813,4.514,1.903,6.389C37.846,49.296,38.466,48.899,38.528,48.789z"/>
			<path fill="#F4CBAE" d="M31.481,41.36c-0.536-0.539-1.114-1.583-1.453-3.245h-0.005c-0.094-0.031-0.186-0.065-0.279-0.103
				c0.141,2.222,0.675,4.726,1.181,6.695c1.571-1.104,3.801-1.307,5.781-0.614c-0.056-0.185-0.109-0.37-0.153-0.549
				C34.744,42.932,32.928,42.813,31.481,41.36z"/>
			<path fill="#A34223" d="M31.382,26.543c-0.063-0.07,0.467,0.152,1.347,0.497c-1.649,1.913-2.271,5.005-1.806,7.519l-1.532-0.516
				l-0.005-0.001c-0.295-0.262-0.59-0.442-0.876-0.541c-4.833-7.318-0.873-11.95,1.761-9.876h0.003
				C30.157,24.671,30.499,25.792,31.382,26.543z"/>
			<path fill="#20130B" d="M27.539,27.183c0.424-1.771,1.112-2.962,2.715-3.105c-0.002-0.152,0.003-0.302,0.02-0.453h-0.003
				c-2.634-2.074-6.594,2.558-1.761,9.876c0.143,0.049,0.289,0.12,0.438,0.211C27.771,31.808,27.212,29.543,27.539,27.183z"/>
			<path fill="#EAE1DF" d="M31.382,26.543c-0.883-0.75-1.225-1.872-1.108-2.918h-0.003c-0.258-0.201-0.526-0.337-0.799-0.417
				c-0.744,2.042,0.624,4.515,2.46,4.982c0.232-0.415,0.498-0.802,0.797-1.15C31.849,26.695,31.319,26.473,31.382,26.543z"/>
			<path fill="#F3C19E" d="M41.602,25.699c-2.922,0.756-6.469,2.277-8.873,1.341c-1.649,1.913-2.271,5.005-1.806,7.519l-1.532-0.516
				l-0.005-0.001c-0.295-0.262-0.59-0.442-0.876-0.541c-2.227-0.833-3.694,2.733,1.234,4.512c0.094,0.037,0.186,0.071,0.279,0.103
				h0.005c0.339,1.662,0.769,3.044,1.305,3.583c1.446,1.453,7.771,2.903,9.146,2.231c0.785-0.384,1.652-2.375,1.884-3.294
				C43.354,36.691,43.85,30.867,41.602,25.699z"/>
			<path fill="#86532F" d="M41.602,25.699c-0.198,0.051-0.401,0.106-0.604,0.164c1.617,5.968,1.893,11.936-0.284,17.904
				c0.717-0.609,1.44-2.303,1.649-3.132C43.354,36.691,43.85,30.867,41.602,25.699z"/>
			<path fill="#F4E1D4" d="M41.602,25.699c-2.922,0.756-6.469,2.277-8.873,1.341c-1.601,1.856-2.225,4.819-1.835,7.292
				c0.062-2.007,0.644-4.437,2.072-5.912c2.887-0.392,5.571,0,8.964-1.898C41.826,26.246,41.72,25.971,41.602,25.699z"/>
			<path fill="#F4E1D4" d="M29.954,34.232l-0.563-0.19l-0.005-0.001c-0.037-0.033-0.073-0.061-0.11-0.091
				c-0.529-0.338-1.443,0.575-1.443,0.575c-0.247,0.989-0.132,1.856,0.225,2.664c0.451,0.298,1.006,0.578,1.688,0.824
				c0.094,0.037,0.186,0.071,0.279,0.103h0.005c0.339,1.662,0.769,3.044,1.305,3.583c1.394,1.398,7.306,2.795,8.97,2.296
				C31.948,43.181,30.647,39.939,29.954,34.232z"/>
			<path fill="#CF5327" d="M32.729,27.04c-0.88-0.344-1.409-0.567-1.347-0.497c-0.883-0.75-1.225-1.872-1.108-2.918
				c0.193-1.898,0.56-4.166,3.866-5.123c4.057-1.176,10.748,0.155,10.748,0.155s2.248,4.07-2.641,7.875
				C41.701,26.957,35.133,27.976,32.729,27.04z"/>
			<path fill="#EAE1DF" d="M31.312,20.299c-0.755,1.017-0.927,2.232-1.038,3.326c-0.116,1.046,0.226,2.168,1.108,2.918
				c-0.063-0.07,0.467,0.152,1.347,0.497c0.41,0.159,0.939,0.26,1.539,0.32c-0.279-0.142-0.557-0.295-0.835-0.471
				C31.318,25.479,30.67,22.609,31.312,20.299z"/>
			<g>
				<path fill="#3A2114" d="M41.943,22.085c0.309-1.342,0.191-2.606-0.12-3.871c-0.206-0.021-0.416-0.043-0.633-0.062
					c0.874,2.927,0.125,5.877-1.546,8.352C40.628,25.177,41.583,23.661,41.943,22.085z"/>
				<path fill="#3A2114" d="M43.721,21.775c0.181-0.852,0.375-2.169,0.227-3.28c-0.339-0.054-0.754-0.115-1.229-0.175
					c0.338,1.47,0.433,2.988-0.1,4.442c-0.559,1.527-1.359,2.951-2.318,4.261c0.209-0.035,0.403-0.07,0.587-0.105
					c0.21-0.231,0.412-0.468,0.603-0.711C42.507,24.903,43.374,23.406,43.721,21.775z"/>
				<path fill="#3A2114" d="M44.888,18.657c0,0-0.21-0.041-0.573-0.103c0.098,0.882,0.003,1.832-0.096,2.583
					c-0.219,1.674-0.989,3.347-1.985,4.699c-0.241,0.329-0.499,0.647-0.768,0.957c0.405-0.096,0.687-0.188,0.781-0.261
					C47.136,22.727,44.888,18.657,44.888,18.657z"/>
			</g>
		</g>
		<g>
			<path fill="#AC5826" d="M32.234,30.743c0.321-0.167,0.682-0.294,1.045-0.394c0.366-0.092,0.753-0.145,1.148-0.13
				c0.389,0.008,0.827,0.003,1.179,0.237c0.345,0.224,0.654,0.553,0.721,1.007l-0.072,0.055c-0.409-0.088-0.717-0.165-1.024-0.244
				c-0.304-0.065-0.569-0.261-0.895-0.341c-0.321-0.079-0.66-0.121-1.008-0.137c-0.353-0.022-0.702,0.002-1.072,0.033L32.234,30.743
				z"/>
			<path fill="#AC5826" d="M39.975,31.438c-0.004-0.369,0.194-0.676,0.436-0.897c0.25-0.233,0.619-0.261,0.934-0.292
				c0.323-0.036,0.644-0.009,0.941,0.069c0.298,0.088,0.577,0.201,0.819,0.379l-0.038,0.082c-0.558-0.085-1.107-0.004-1.559,0.172
				c-0.233,0.094-0.392,0.289-0.62,0.354c-0.236,0.08-0.466,0.145-0.849,0.196L39.975,31.438z"/>
			<path fill="#E78867" d="M29.429,36.739c0.008-0.588-0.148-1.166-0.448-1.668c-0.15-0.252-0.341-0.479-0.563-0.669
				c-0.219-0.188-0.48-0.335-0.742-0.445l-0.033,0.07c0.196,0.28,0.334,0.507,0.463,0.734l0.16,0.332l0.127,0.322
				c0.059,0.161,0.103,0.323,0.146,0.487c-0.297-0.04-0.603-0.057-0.935-0.022l-0.031,0.07c0.58,0.295,1.17,0.57,1.759,0.851
				l0.098,0.047V36.739z"/>
			<g>
				<path fill="#B3715A" d="M40.425,37.008c0,0-0.02,0.358-0.717,0.759c0,0-0.616-0.008-1.898-0.297
					C39.256,37.792,40.425,37.008,40.425,37.008z"/>
				<path fill="#D59671" d="M38.9,32.438c-0.021,0.791,0.212,1.57,0.501,2.326c0.281,0.76,0.634,1.508,1.053,2.234l-0.056,0.018
					c-0.405-0.302-0.703-0.647-0.957-1.006c-0.257-0.358-0.445-0.739-0.602-1.128c-0.141-0.392-0.248-0.796-0.26-1.21
					c-0.019-0.41,0.034-0.839,0.262-1.234L38.9,32.438z"/>
			</g>
			<path fill="#EDAB85" d="M40.82,40.417c0.184,0.196,0.213,0.464,0.098,0.71c-0.05,0.13-0.159,0.229-0.271,0.319
				c-0.119,0.079-0.255,0.124-0.382,0.153c-0.259,0.026-0.484-0.024-0.657-0.148c-0.176-0.116-0.311-0.283-0.375-0.537l0.025-0.054
				c0.294,0.118,0.616,0.213,0.917,0.16c0.15-0.02,0.292-0.084,0.396-0.196c0.102-0.112,0.169-0.262,0.192-0.414L40.82,40.417z"/>
			<g>
				<path fill="#D59671" d="M36.929,40.408c0.088-0.007,1.452-0.115,2.906-0.336c0.777-0.121,1.852-0.208,2.266-0.442l-0.125-0.612
					c-0.159,0.045-0.233,0.264-0.407,0.321c-1.164,0.387-3.021,0.478-4.184,0.605c-0.246,0.026-0.447-0.143-0.456-0.141V40.408z"/>
			</g>
			<g>
				<g>
					<path fill="#7CABAB" d="M35.001,32.793c0.686,0.219,1.294,0.841,1.533,1.984c0,0-0.365,0.15-0.898,0.25v-0.004
						c-1.416,0.075-1.866-1.603-0.656-2.155L35.001,32.793z"/>
					<path fill="#FFFFFF" d="M34.979,32.868c-1.21,0.553-0.76,2.23,0.656,2.155v0.004c-0.938,0.166-2.373,0.164-3.213-1.135
						c0.479-0.928,1.609-1.409,2.578-1.099L34.979,32.868z"/>
				</g>
				<path fill="#7A3318" d="M32.426,33.892c0.075-0.497,0.416-0.956,0.872-1.235c0.453-0.289,1.034-0.406,1.588-0.289
					c0.557,0.112,1.054,0.477,1.327,0.938c0.284,0.456,0.383,0.978,0.322,1.472c-0.253-0.429-0.495-0.815-0.796-1.105
					c-0.3-0.289-0.639-0.478-1.012-0.556c-0.37-0.079-0.774-0.048-1.17,0.076C33.162,33.322,32.784,33.547,32.426,33.892z"/>
				<path fill="#FFFFFF" d="M34.736,34.082c-0.071,0.21-0.3,0.322-0.511,0.251c-0.209-0.072-0.32-0.299-0.248-0.509
					c0.069-0.21,0.298-0.323,0.509-0.25C34.695,33.643,34.808,33.871,34.736,34.082z"/>
				<path fill="#010101" d="M36.259,34.084c-0.094,0.284-0.406,0.438-0.691,0.34c-0.285-0.097-0.436-0.406-0.341-0.69
					c0.098-0.287,0.407-0.44,0.692-0.341C36.204,33.49,36.357,33.8,36.259,34.084z"/>
			</g>
			<g>
				<g>
					<path fill="#7CABAB" d="M42.875,33.738c0,0-0.224,0.521-0.641,0.841l-0.004-0.004c-1.177,0.245-1.439-1.527,0.002-2.063
						C42.608,32.668,42.8,33.157,42.875,33.738z"/>
					<path fill="#FFFFFF" d="M42.232,32.511c-1.441,0.536-1.179,2.308-0.002,2.063l0.004,0.004
						c-0.483,0.366-1.221,0.467-2.171-0.818C41.111,32.607,41.802,32.327,42.232,32.511z"/>
				</g>
				<path fill="#7A3318" d="M40.063,33.757c0.126-0.345,0.318-0.644,0.557-0.911c0.243-0.269,0.527-0.512,0.928-0.653
					c0.197-0.064,0.445-0.099,0.69-0.019c0.246,0.076,0.438,0.262,0.533,0.452c0.197,0.377,0.19,0.757,0.102,1.111
					c-0.183-0.314-0.339-0.62-0.531-0.805c-0.202-0.173-0.326-0.169-0.582-0.096c-0.247,0.081-0.521,0.248-0.799,0.411
					C40.682,33.417,40.394,33.6,40.063,33.757z"/>
				
					<ellipse transform="matrix(0.9697 0.2445 -0.2445 0.9697 9.4692 -9.366)" fill="#010101" cx="42.466" cy="33.464" rx="0.358" ry="0.461"/>
				<circle fill="#FFFFFF" cx="41.408" cy="33.64" r="0.316"/>
			</g>
		</g>
	</g>
	<g>
		<path fill="#5F4839" d="M82.366,118.972c0,0,0.653,0.769,2.873,0.099c0,0,3.852-14.596,5.94-22.158h-3.387
			C86.512,102.214,84.292,111.338,82.366,118.972z"/>
		<path fill="#5F4839" d="M108.9,96.912h-3.384c2.086,7.563,5.937,22.158,5.937,22.158c2.222,0.67,2.875-0.099,2.875-0.099
			C112.401,111.338,110.182,102.214,108.9,96.912z"/>
		<path fill="#8E7563" d="M92.173,96.912c0,0-3.58,14.957-6.49,26.485c0,0,0.651,0.769,2.865,0.093c0,0,7.011-26.578,7.253-26.578
			H92.173z"/>
		<path fill="#8E7563" d="M113.279,96.912h-3.618c0.232,0,7.243,26.578,7.243,26.578c2.223,0.676,2.866-0.093,2.866-0.093
			C116.865,111.869,113.279,96.912,113.279,96.912z"/>
		<path fill="#5F4839" d="M112.415,61.982c0,0-6.235,16.211-8.479,25.208c3.866,0.126,7.423,0.416,9.402,0.788
			c3.571-11.874,9.014-25.359,9.014-25.359S118.789,62.619,112.415,61.982z"/>
		<path fill="#8E7563" d="M113.339,87.978c1.686,0.31,2.593,1.05,2.981,1.942c0.529-5.719,3.82-16.725,7.25-25.578l-1.218-1.724
			C122.353,62.619,116.91,76.104,113.339,87.978z"/>
		<polygon fill="#A18D7D" points="87.575,95.08 113.698,95.08 113.698,96.912 87.575,96.912 87.575,95.08 		"/>
		<path fill="#160B0C" d="M88.074,95.08h3.455h14.905h3.457h3.991c1.336-0.03,3.37-3.021,2.438-5.154V89.92
			c-0.389-0.893-1.296-1.633-2.981-1.942c-1.979-0.372-5.536-0.662-9.402-0.788c-5.76-0.182-12.197,0-15.086,0.844
			c-5.194,1.502-1.275,7.047-1.275,7.047H88.074z"/>
	</g>
	<g>
		<g>
			<path fill="#81B6BB" d="M79.784,53.792c0,0,5.761-2.141,7.923-7.142l1.393,8.75c-3.945,2.68-9.046,3.885-9.046,3.885
				c-3.216,0.535-11.973-1.676-11.973-1.676l0.725-2.467C71.617,56.48,79.784,53.792,79.784,53.792z"/>
			<path fill="#745050" d="M97.864,41.38l-10.858,0.896c0,0-1.493,24.114-2.38,41.868c7.576,1.295,15.56,2.33,23.348,2.363
				c0.497-5.35,0.947-11.635,1.139-18.252C109.648,49.775,105.765,45.088,97.864,41.38z"/>
			<g>
				<path fill="#8D6C6B" d="M87.08,42.27l5.346-0.441c-0.714,0.928-1.568,1.783-2.282,2.675c-0.729,0.914-1.439,1.845-2.117,2.799
					C87.088,45.91,86.86,44.173,87.08,42.27z"/>
				<path fill="#8D6C6B" d="M91.639,43.606c-0.399,0.743-0.788,1.49-1.165,2.243c-0.447,0.891-0.882,1.787-1.313,2.685
					c-0.293-0.236-0.546-0.49-0.773-0.758c0.825-1.178,1.697-2.324,2.617-3.434C91.208,44.095,91.423,43.85,91.639,43.606z"/>
				<path fill="#8D6C6B" d="M92.053,43.139c0.393-0.444,0.776-0.896,1.119-1.373l0.242-0.02c-0.057,0.22-0.118,0.436-0.176,0.654
					c-0.207,0.408-0.448,0.804-0.659,1.211c-0.396,0.759-0.736,1.549-1.057,2.342c-0.443,1.094-0.845,2.204-1.235,3.317
					c-0.37-0.197-0.704-0.412-1.007-0.643c0.535-1.116,1.077-2.229,1.641-3.331C91.29,44.578,91.648,43.842,92.053,43.139z"/>
				<path fill="#8D6C6B" d="M93.153,42.725c-0.605,2.323-1.246,4.636-1.93,6.938c-0.153-0.039-0.306-0.088-0.457-0.155
					c-0.146-0.066-0.288-0.136-0.425-0.207c0.424-1.223,0.864-2.44,1.368-3.632C92.138,44.651,92.649,43.703,93.153,42.725z"/>
				<path fill="#8D6C6B" d="M94.098,41.69c-0.388,2.674-0.875,5.33-1.428,7.975c-0.285,0.065-0.571,0.1-0.854,0.088
					c0.792-2.671,1.538-5.356,2.224-8.058L94.098,41.69z"/>
				<path fill="#8D6C6B" d="M93.785,49.243c-0.268,0.144-0.536,0.251-0.806,0.336c0.455-2.187,0.862-4.383,1.212-6.59
					C94.123,45.079,93.988,47.164,93.785,49.243z"/>
				<path fill="#8D6C6B" d="M95.193,41.6c0.066,2.062,0.293,4.125,0.497,6.185c-0.39,0.386-0.788,0.731-1.19,1.019
					c0.219-2.388,0.355-4.781,0.396-7.178L95.193,41.6z"/>
				<path fill="#8D6C6B" d="M97.864,41.38c0.558,0.262,1.093,0.528,1.609,0.804c-0.324,0.69-0.691,1.381-1.094,2.051
					c-0.253-0.955-0.542-1.9-0.89-2.824L97.864,41.38z"/>
				<path fill="#8D6C6B" d="M96.935,41.456c0.43,1.111,0.768,2.252,1.06,3.408c-0.376,0.587-0.773,1.151-1.191,1.672
					c-0.289-1.661-0.526-3.331-0.63-5.016L96.935,41.456z"/>
				<path fill="#8D6C6B" d="M95.725,41.556c0.114,1.825,0.387,3.627,0.706,5.424c-0.24,0.28-0.485,0.55-0.732,0.797
					c-0.204-2.058-0.43-4.119-0.496-6.178L95.725,41.556z"/>
			</g>
			<path fill="#3B3D35" d="M81.467,123.573l2.802-0.803c0.804,2.812,0,3.481,0,3.481h-8.436
				C75.966,124.645,81.467,123.573,81.467,123.573z"/>
			<path fill="#018F91" d="M85.242,89.385c-7.289,2.131-7.793,4.814-8.005,7.559c-0.521,6.745-0.37,16.293,2.267,26.965l5.738,0.332
				c0,0-5.425-26.245,2.808-30.762L85.242,89.385z"/>
			<path fill="#1B2424" d="M80.593,93.621c0.401-1.606,2.192-3.557,4.771-4.061l-0.121-0.176c-7.289,2.131-7.793,4.814-8.005,7.559
				c-0.521,6.745-0.37,16.293,2.267,26.965l1.501,0.086C79.257,115.238,78.717,102.462,80.593,93.621z"/>
			<path fill="#81C8C9" d="M88.05,93.479l-2.808-4.094c-5.684,1.662-7.242,3.659-7.753,5.76c2.641,0.596,5.003,1.974,6.94,3.842
				C85.125,96.456,86.268,94.457,88.05,93.479z"/>
			<path fill="#3B3D35" d="M73.514,119.408l3.481-0.805c0.535,1.676-0.334,3.281-0.334,3.281l-8.638,0.336
				C68.826,120.68,73.514,119.408,73.514,119.408z"/>
			<path fill="#018F91" d="M78.19,91.838c4.571-2.935,10.639-6.385,11.771-7.178l-5.813-2.109l-6.192,2.425
				c-7.29,2.132-7.794,4.815-8.006,7.56c-0.52,6.744-0.369,16.291,2.267,26.963l5.739,0.333
				C77.957,119.831,72.811,95.291,78.19,91.838z"/>
			<path fill="#1B2424" d="M76.891,85.309c-6.27,2.074-6.739,4.623-6.939,7.227c-0.52,6.744-0.369,16.291,2.267,26.963l2,0.116
				C71.154,107.697,69.972,87.97,76.891,85.309z"/>
			<path fill="#81C8C9" d="M78.19,91.838c4.571-2.935,10.639-6.385,11.771-7.178l-5.813-2.109l-6.192,2.425
				c-2.759,0.807-4.544,1.692-5.711,2.63c1.36,2.439,3.025,4.666,4.134,7.219C76.767,93.431,77.35,92.377,78.19,91.838z"/>
			<path fill="#8CC4CB" d="M89.147,53.558c-0.131,0.124-0.258,0.247-0.391,0.369c0.611-3.972,0.932-7.943,1.205-11.895l-2.956,0.244
				c0,0-1.264,20.4-2.156,37.487c-0.078,1.491-11.152,4.896-11.152,4.896l3.257,6.824c1.663-0.554,9.843-6.978,10.101-6.937
				c0.269-9.386,0.49-18.798,1.301-28.21C88.555,55.345,88.85,54.452,89.147,53.558z"/>
			<path fill="#ACD9DE" d="M98.879,41.876c-3.083,3.975-5.906,8.079-9.731,11.682c-0.298,0.894-0.593,1.787-0.792,2.779
				c-0.811,9.412-1.032,18.825-1.301,28.21c0.766,0.124-8.94,8.749-8.169,8.865c4.59,0.687,13.54,4.582,13.54,4.582
				s14.119-3.345,15.548-11.487c0.497-5.35,0.947-11.635,1.139-18.252C109.624,50.587,106.095,45.527,98.879,41.876z"/>
			<path fill="#E1E9EA" d="M88.355,56.337c0.199-0.993,0.494-1.886,0.792-2.779c3.825-3.604,6.648-7.707,9.731-11.682
				c1.571,0.796,2.967,1.657,4.185,2.701c-1.12,3.144-3.076,5.858-5.138,8.458c-0.781-0.224-1.561-0.336-2.339-0.469
				c0,0.957,0,1.915,0,2.874c-2.042,2.284-4.678,3.897-7.539,4.893C88.142,59,88.241,57.668,88.355,56.337z"/>
			<path fill="#E1E9EA" d="M100.175,62.372c-0.153-0.002-0.304-0.018-0.456-0.024c-0.001,0.002-0.003,0.005-0.005,0.008
				C99.869,62.362,100.021,62.37,100.175,62.372z"/>
			<path fill="#ACD9DE" d="M85.807,50.213c0.493-0.2,0.992-0.403,1.496-0.604c-0.268-0.612-1.558-1.832-1.558-1.832l0.576-3.079
				l3.842-4.833c0.102,0.703-1.239,13.905-1.239,13.905l-3.553,5.59L85.807,50.213z"/>
			<path fill="#E1E9EA" d="M90.163,39.866c0.044,0.306-0.187,2.988-0.457,5.916c-1.221-0.175-2.347-0.518-3.401-0.99l0.017-0.094
				L90.163,39.866z"/>
			<path fill="#CDEBEF" d="M87.473,59.741l1.198-5.922c0,0,6.238-5.416,10.034-13.116l4.418,2.792c0,0-2.186,4.005-5.332,7.909
				c-1.065,0.113-2.138,0.218-3.179,0.225c0.149,0.946,0.261,1.91,0.353,2.881C92.903,56.515,90.411,58.401,87.473,59.741z"/>
			<g>
				<path fill="#010101" d="M72.709,65.955c-0.164,0-0.327-0.006-0.49-0.019c-3.959-0.314-6.896-2.817-9.735-5.238
					c-0.955-0.814-1.857-1.583-2.78-2.252c-1.243-0.902-4.331-2.117-4.362-2.129l0.255-0.65c0.13,0.051,3.203,1.261,4.518,2.214
					c0.945,0.685,1.856,1.463,2.823,2.287c2.755,2.348,5.603,4.776,9.337,5.073c5.28,0.432,11.875-6.639,14.695-15.735l0.666,0.206
					C84.81,58.829,78.207,65.955,72.709,65.955z"/>
			</g>
			<path fill="#87888C" d="M55.772,56.314c0,0-0.329,0.316-0.991,0.172c-0.484-0.106-0.678-0.422-0.678-0.422
				C54.112,54.649,55.995,54.96,55.772,56.314z"/>
			<g>
				<g>
					<path fill="#E6A88D" d="M56.9,57.626c-0.057,0.071-0.496,0.631-0.062,0.6c0.463-0.037,3.044-1.27,3.044-1.27
						s2.084,1.316,3.364,0.817c1.292-0.487,2.244-1.188,2.258-1.218c-0.039-0.019,0.113-1.482,0.113-1.482
						c-2.352,0.04-5.021-2.659-6.992-2.591c-0.693,0.022-2.707,3.401-2.234,4.749c0.12,0.348,0.21,0.2,0.307-0.121
						C56.666,57.334,56.604,57.872,56.9,57.626z"/>
				</g>
				<g>
					<path fill="#F4F1F0" d="M63.201,56.754c-1.679-0.068-3.176-0.331-4.476-1.064c0.512-1.022,0.655-2.169,0.038-3.204
						c1.439,0.04,3.225,1.438,4.983,2.162c0.633,0.262,1.263,0.435,1.871,0.426c0,0-0.152,1.463-0.113,1.482
						c-0.014,0.03-0.966,0.731-2.258,1.218c-0.183,0.071-0.381,0.104-0.586,0.109C62.835,57.539,63.304,56.534,63.201,56.754z"/>
				</g>
			</g>
			<path fill="#727276" d="M86.411,40.794l0.411-3.749l-0.232-5.047l-0.858,7.081c-0.03,0.381-0.066,0.762-0.102,1.138
				c-0.161,1.736-0.315,3.413,0.079,4.646c0.262-0.103,0.523-0.206,0.785-0.308C86.224,43.676,86.27,42.412,86.411,40.794z"/>
			<g>
				<path fill="#F3C19E" d="M98.299,23.62c-2.608,1.122-8.861,1.978-11.85,1.122c-0.305,0.839-0.149,4.655-0.003,6.687
					c0.15,2.018,0.202,3.866,0.202,5.461c0.051-0.077,0.107-0.156,0.164-0.234c-0.064,1.238-0.241,3.829-0.264,4.315
					c-0.103,2.009-0.702,2.511,2.912,3.113c0.235,0.041,0.475,0.073,0.702,0.104c3.251,0.407,5.605-0.253,6.831-1.441
					c1.108-1.077,1.63-3.507,1.832-6.288c0.047-0.686,0.078-1.393,0.092-2.104c0.012-0.655,0.012-1.31,0.004-1.965
					C98.854,27.85,98.299,23.62,98.299,23.62z M87.188,36.184c0.428-0.495,0.973-0.991,1.672-1.422
					c-0.083,0.426-0.166,0.762-0.235,0.953c0,0,1.353,0.546,2.812,0c0.238-0.089,0.265-0.283,0.221-0.472l0.019,0.004
					C92.327,35.579,90.536,36.54,87.188,36.184z"/>
				<path fill="#86532F" d="M86.529,27.38c0.21,0.06,0.44,0.11,0.686,0.149c-0.404,2.78-0.124,5.49,0.439,8.164
					c-0.415,0.396-0.746,0.805-1.006,1.196c0-1.595-0.052-3.443-0.202-5.461C86.3,29.396,86.223,28.219,86.529,27.38z"/>
				<path fill="#F4E1D4" d="M98.299,23.62c-2.608,1.122-8.861,1.978-11.85,1.122c-0.134,0.368-0.179,1.31-0.176,2.422
					c3.428,1.567,7.965,1.142,11.315-1c0.486,1.867,0.936,3.734,1.319,5.601C98.802,27.47,98.299,23.62,98.299,23.62z"/>
				<g>
					<path fill="#F3C19E" d="M96.994,42.747c-1.226,1.188-3.58,1.848-6.831,1.441C90.903,48.238,94.112,46.965,96.994,42.747z"/>
					<path fill="#F4CBAE" d="M96.994,42.747c-0.7,1.023-1.418,1.873-2.117,2.516c-1.446-0.209-2.897-0.09-4.27,0.307
						c-0.188-0.364-0.342-0.819-0.444-1.382C93.414,44.595,95.769,43.935,96.994,42.747z"/>
					<path fill="#F3C19E" d="M98.918,34.354c-0.014,0.711-0.045,1.418-0.092,2.104c4.438,0,4.526-5.097,1.892-4.07
						c-0.583,0.616-1.185,1.262-1.788,1.965H98.918z"/>
					<path fill="#F4E1D4" d="M98.918,34.354h0.012c0.551-0.644,1.1-1.234,1.636-1.802c0.585,0.469,0.874,1.408,0.647,2.092
						c-0.332,0.661-0.936,1.317-1.585,1.754c-0.249,0.039-0.518,0.061-0.802,0.061C98.873,35.772,98.904,35.065,98.918,34.354z"/>
					<path fill="#946E52" d="M98.299,23.62c0.486-0.282,1.023-0.454,1.571-0.526c-4.774-9.652-13.597-1.123-16.718-5.077
						c0,0-2.559,5.926,2.065,8.549C85.576,26.768,96.315,27.151,98.299,23.62z"/>
					<g>
						<path fill="#242529" d="M89.433,25.226c-2.85-0.356-4.879-3.441-4.211-6.121c-0.365-0.042-0.702-0.134-1.015-0.275
							c0.003,3.238,1.675,6.245,4.499,7.833c2.914-0.104,6.885-0.59,8.794-2.131C94.913,25.192,92.143,25.396,89.433,25.226z"/>
						<path fill="#242529" d="M83.803,18.606c-0.091-0.06-0.181-0.118-0.266-0.191c-0.192,1.252,0.06,2.847,0.222,3.629
							c0.345,1.659,1.438,3.303,2.684,4.629c0.457,0.015,1.022,0.02,1.651,0.008C85.396,24.942,83.69,21.872,83.803,18.606z"/>
						<path fill="#242529" d="M82.612,19.892c-0.367,1.95-0.352,4.948,2.542,6.633c-1.232-1.505-2.204-3.248-2.421-5.175
							C82.688,20.944,82.635,20.436,82.612,19.892z"/>
					</g>
					<path fill="#946E52" d="M86.528,36.002c-0.715,0.536-0.904,0.988-0.904,0.988c0.281,0.014,0.58,0.026,0.88,0.041
						c3.478,0.157,7.958,0.328,7.958,0.328s-0.188-0.389-0.626-0.848c-0.461-0.487-1.202-1.056-2.283-1.332l-2.812-0.244
						C87.704,35.256,87.002,35.646,86.528,36.002z"/>
					<path fill="#CDCCCC" d="M88.728,34.848c0.045-0.029,0.089-0.06,0.135-0.088l2.813,0.486c0.959,0.488,0,2.343-2.918,1.405
						C87.996,36.143,88.358,35.475,88.728,34.848z"/>
					<path fill="#7E5A45" d="M98.918,34.354h0.012c0.604-0.704,1.205-1.35,1.788-1.965c2.33-2.461,4.247-4.305,3.709-6.451
						c-0.523-2.089-2.616-3.106-4.557-2.844c-0.548,0.072-1.085,0.244-1.571,0.526c0,0,0.555,4.23,0.623,8.769
						C98.93,33.044,98.93,33.699,98.918,34.354z"/>
					<path fill="#CDCCCC" d="M99.203,25.805c-0.22,0.548-0.391,1.094-0.523,1.642c-0.175-2.255-0.381-3.827-0.381-3.827
						c0.486-0.282,1.023-0.454,1.571-0.526c0.627-0.085,1.268-0.033,1.868,0.141C100.449,23.69,99.449,24.821,99.203,25.805z"/>
					<path fill="#6D717F" d="M98.93,34.354h-0.012c0.002-0.085,0-0.168,0-0.251c0.019,0.064,0.041,0.13,0.061,0.196
						C98.962,34.318,98.947,34.334,98.93,34.354z"/>
					<g>
						<path fill="#242529" d="M98.922,32.638c-0.002-0.083,0.002-0.165,0-0.249c-0.008-0.518-0.022-1.029-0.042-1.532
							c0.604-0.237,2.283-1.169,3.395-2.548c-0.64,1.461-1.815,2.853-2.804,3.823C99.294,32.305,99.108,32.474,98.922,32.638z"/>
						<path fill="#242529" d="M100.352,32.191c0.946-1.069,2.021-2.372,2.617-3.787c-0.066,0.682-0.203,1.364-0.417,2.018
							c-0.549,0.62-1.173,1.269-1.834,1.966c-0.567,0.598-1.153,1.229-1.739,1.91c-0.02-0.065-0.042-0.132-0.061-0.196
							c0.004-0.193,0-0.385,0.002-0.578C99.436,33.127,99.917,32.683,100.352,32.191z"/>
						<path fill="#242529" d="M103.123,23.942c0.615,0.48,1.09,1.146,1.304,1.995c0.279,1.12-0.112,2.159-0.877,3.245
							c0.112-0.686,0.154-1.385,0.116-2.085C103.608,26.064,103.587,24.882,103.123,23.942z"/>
					</g>
				</g>
				<path fill="#F8A890" d="M91.795,35.493c-1.324,0.358-3.171,0.222-3.171,0.222C89.043,32.552,89.715,28.818,91.795,35.493z"/>
				<g>
					<g>
						<g>
							<path fill="#FFFFFF" d="M95.697,31.766c0.081,0.367-0.835,0.971-1.866,1.069c1.075-0.927,0.591-2.312-0.357-2.529
								C94.405,30.123,95.415,30.527,95.697,31.766z"/>
							<path fill="#7E5A45" d="M93.474,30.306c0.948,0.217,1.433,1.602,0.357,2.529c-0.737,0.072-1.534-0.106-2.065-0.81
								c0.102-0.926,0.866-1.559,1.704-1.719L93.474,30.306z"/>
						</g>
						<path fill="#462917" d="M91.767,32.027c-0.066-0.478,0.14-0.999,0.499-1.362c0.356-0.371,0.853-0.597,1.368-0.658
							c0.515-0.053,1.075,0.078,1.473,0.43c0.406,0.342,0.601,0.855,0.592,1.33c-0.212-0.429-0.486-0.785-0.839-0.992
							c-0.351-0.207-0.764-0.28-1.17-0.232c-0.408,0.039-0.806,0.194-1.147,0.437C92.201,31.227,91.929,31.576,91.767,32.027z"/>
						<circle fill="#FFFFFF" cx="94.329" cy="31.69" r="0.5"/>
						<circle fill="#010101" cx="92.743" cy="31.433" r="0.657"/>
					</g>
					<g>
						<g>
							<path fill="#7E5A45" d="M86.822,30.561c0.805-0.37,1.96,0.958,0.604,1.872l-0.004,0.013c-0.63-0.264-0.893-0.872-0.893-0.872
								s0.04-0.631,0.29-1.013C86.822,30.561,86.822,30.561,86.822,30.561z"/>
							<path fill="#FFFFFF" d="M86.822,30.561c0.32-0.495,0.986-0.561,2.344,1.697c-0.756,0.39-1.328,0.363-1.743,0.188l0.004-0.013
								C88.782,31.519,87.627,30.191,86.822,30.561z"/>
						</g>
						<path fill="#462917" d="M89.168,32.259c-0.287-0.26-0.53-0.536-0.774-0.804c-0.249-0.263-0.49-0.531-0.745-0.733
							c-0.123-0.097-0.259-0.173-0.355-0.191c-0.092-0.02-0.171,0.006-0.279,0.114c-0.199,0.221-0.34,0.582-0.482,0.93
							c-0.066-0.379-0.067-0.776,0.147-1.173c0.06-0.096,0.139-0.196,0.257-0.271c0.116-0.075,0.27-0.106,0.403-0.099
							c0.273,0.023,0.469,0.151,0.635,0.276c0.326,0.262,0.554,0.575,0.748,0.902C88.914,31.539,89.07,31.887,89.168,32.259z"/>
						<circle fill="#010101" cx="86.919" cy="31.343" r="0.424"/>
						<circle fill="#FFFFFF" cx="87.94" cy="31.778" r="0.39"/>
					</g>
					<path fill="#B07C5F" d="M88.624,35.714c0.283,0.192,0.612,0.305,0.949,0.373c0.336,0.067,0.686,0.077,1.029,0.036
						c0.172-0.025,0.343-0.058,0.51-0.107c0.083-0.026,0.165-0.056,0.247-0.087c0.083-0.038,0.146-0.05,0.259-0.132
						c0.094-0.07,0.167-0.189,0.177-0.304c0.011-0.112-0.016-0.21-0.049-0.296c-0.074-0.17-0.18-0.308-0.311-0.419
						c0.056,0.161,0.108,0.318,0.119,0.469c0.019,0.156-0.029,0.26-0.112,0.29c-0.025,0.013-0.127,0.037-0.194,0.059
						c-0.076,0.019-0.153,0.038-0.23,0.053c-0.153,0.034-0.309,0.062-0.464,0.078C89.927,35.806,89.295,35.782,88.624,35.714z"/>
					<path fill="#D59671" d="M89.43,28.818c-0.098,1.158-0.251,2.304-0.438,3.445c-0.092,0.571-0.246,1.13-0.296,1.703
						c-0.058,0.574-0.08,1.148-0.1,1.738l0.057,0.021c0.343-0.514,0.499-1.094,0.64-1.661c0.137-0.572,0.138-1.163,0.179-1.746
						c0.075-1.166,0.107-2.336,0.021-3.5H89.43z"/>
					<path fill="#7E5A45" d="M91.742,28.091c0.438-0.344,0.943-0.582,1.464-0.73c0.355-0.101,0.719-0.159,1.083-0.179
						c-0.258,0.311-0.512,0.624-0.758,0.946c0.389-0.33,0.786-0.646,1.188-0.954c0.024,0.001,0.052,0,0.075,0
						c0.143,0.008,0.285,0.021,0.428,0.041c-0.188,0.152-0.37,0.308-0.534,0.484c0.235-0.172,0.489-0.311,0.746-0.447
						c0.315,0.06,0.628,0.151,0.929,0.306c-0.506,0.24-0.981,0.402-1.452,0.554c-0.467,0.147-0.924,0.277-1.374,0.406
						c-0.45,0.13-0.891,0.258-1.337,0.401c-0.448,0.144-0.889,0.305-1.408,0.521C90.933,28.891,91.309,28.436,91.742,28.091z"/>
					<path fill="#7E5A45" d="M86.669,28.351c-0.11-0.076-0.229-0.139-0.35-0.2c0.126-0.101,0.266-0.174,0.411-0.224
						c0.212,0.113,0.421,0.236,0.621,0.378c-0.099-0.152-0.208-0.3-0.323-0.444c0.181-0.024,0.362-0.018,0.538,0.019
						c0.265,0.055,0.515,0.173,0.721,0.345c0.206,0.175,0.375,0.397,0.45,0.701c-0.309,0.043-0.547,0.034-0.768,0.021
						c-0.219-0.016-0.415-0.042-0.605-0.084c-0.193-0.038-0.381-0.092-0.582-0.161c-0.206-0.07-0.415-0.157-0.698-0.284
						c0.049-0.079,0.105-0.146,0.168-0.206C86.394,28.248,86.532,28.293,86.669,28.351z"/>
				</g>
				<g>
					<path fill="#7E5A45" d="M99.869,23.093c0.285-0.236,0.581-0.458,0.892-0.653c0.309-0.193,0.635-0.363,0.969-0.462
						s0.685-0.108,0.932,0.04c0.248,0.135,0.417,0.442,0.466,0.71l0.587-0.138c-0.078-0.237-0.181-0.409-0.324-0.584
						c-0.141-0.168-0.326-0.313-0.536-0.397c-0.435-0.17-0.877-0.069-1.227,0.087c-0.358,0.161-0.669,0.385-0.956,0.624
						C100.385,22.56,100.119,22.822,99.869,23.093z"/>
					<path fill="#7E5A45" d="M99.869,23.093c0.521-0.483,1.012-1.009,1.409-1.618c0.2-0.305,0.376-0.631,0.505-0.986
						c0.063-0.179,0.116-0.364,0.147-0.558c0.027-0.203,0.056-0.375,0.002-0.645l-0.575,0.182c0.031,0.076,0.055,0.265,0.049,0.412
						c-0.003,0.158-0.024,0.321-0.058,0.485c-0.069,0.326-0.186,0.65-0.332,0.964C100.723,21.957,100.317,22.542,99.869,23.093z"/>
					<path fill="#7E5A45" d="M99.404,23.053c0.113-0.56,0.174-1.134,0.16-1.721c-0.01-0.292-0.039-0.588-0.111-0.888
						c-0.073-0.296-0.194-0.601-0.412-0.873l-0.436,0.416c0.346,0.297,0.548,0.844,0.659,1.379
						C99.376,21.913,99.417,22.483,99.404,23.053z"/>
				</g>
				<path fill="#E78867" d="M99.735,35.631c-0.038-0.596,0.09-1.19,0.364-1.716c0.14-0.263,0.32-0.5,0.532-0.706
					c0.212-0.205,0.47-0.367,0.729-0.492l0.038,0.069c-0.186,0.293-0.313,0.532-0.429,0.768l-0.145,0.343l-0.114,0.335
					c-0.048,0.164-0.083,0.332-0.119,0.499c0.299-0.056,0.609-0.091,0.947-0.072l0.034,0.068c-0.571,0.331-1.153,0.642-1.733,0.958
					l-0.096,0.053L99.735,35.631z"/>
				<g>
					<g>
						<path fill="#27515A" d="M93.449,35.046c0.081,0,0.165-0.005,0.247-0.017c0.627-0.089,1.163-0.504,1.506-1.167
							c0.32-0.623,0.436-1.4,0.322-2.188c-0.235-1.664-1.432-2.889-2.694-2.709c-0.629,0.088-1.162,0.505-1.503,1.167
							c-0.323,0.624-0.44,1.4-0.327,2.189C91.223,33.874,92.274,35.046,93.449,35.046z M93.078,29.673
							c0.802,0,1.563,0.925,1.73,2.103c0.092,0.641,0.002,1.264-0.251,1.754c-0.232,0.449-0.575,0.726-0.963,0.783
							c-0.856,0.125-1.698-0.843-1.878-2.096c-0.092-0.639-0.002-1.262,0.251-1.75c0.233-0.45,0.576-0.728,0.966-0.783
							C92.981,29.677,93.029,29.673,93.078,29.673z"/>
					</g>
					<g>
						<path fill="#27515A" d="M87.578,34.679c0.051,0,0.103-0.003,0.152-0.01c0.916-0.13,1.466-1.406,1.25-2.904
							c-0.213-1.502-1.084-2.571-2.014-2.438c-0.475,0.067-0.862,0.435-1.09,1.036c-0.198,0.527-0.255,1.191-0.159,1.867
							C85.921,33.65,86.704,34.679,87.578,34.679z M87.1,29.844c0.467,0,1.085,0.808,1.256,2.009
							c0.177,1.23-0.225,2.226-0.698,2.293c-0.494,0.075-1.136-0.757-1.313-2.005c-0.085-0.605-0.039-1.21,0.132-1.66
							c0.14-0.37,0.347-0.6,0.566-0.631C87.061,29.847,87.08,29.844,87.1,29.844z"/>
					</g>
					<g>
						<path fill="#27515A" d="M91.331,31.998c-0.046-0.411-0.177-0.794-0.383-1.156c-0.099-0.183-0.225-0.356-0.386-0.515
							c-0.162-0.155-0.362-0.308-0.646-0.375c-0.284-0.075-0.636,0.026-0.832,0.209c-0.206,0.179-0.32,0.391-0.393,0.598
							c-0.146,0.416-0.157,0.839-0.052,1.239c0.191-0.363,0.358-0.703,0.557-0.982c0.103-0.134,0.208-0.25,0.307-0.311
							c0.104-0.059,0.164-0.066,0.258-0.046c0.199,0.04,0.484,0.277,0.74,0.524C90.762,31.439,91.021,31.724,91.331,31.998z"/>
					</g>
					<g>
						<path fill="#27515A" d="M95.118,32.085c0.033,0.005,2.575,0.347,5.454,0.712c0.144-0.24,0.296-0.475,0.459-0.698
							c-2.974-0.37-5.783-0.728-5.814-0.732L95.118,32.085z"/>
					</g>
					<g>
						<path fill="#A081A3" d="M89.531,30.171c0.166-0.023,0.323,0.04,0.45,0.121c0.126,0.081,0.231,0.184,0.334,0.291
							c-0.128-0.072-0.254-0.148-0.381-0.21c-0.126-0.061-0.258-0.108-0.382-0.082c-0.129,0.012-0.241,0.099-0.344,0.192
							c-0.103,0.098-0.197,0.208-0.291,0.32c0.057-0.135,0.125-0.268,0.223-0.383C89.236,30.306,89.368,30.201,89.531,30.171z"/>
						<path fill="#A081A3" d="M88.036,30.278c0.175,0.283,0.291,0.596,0.381,0.913c0.153,0.634,0.232,1.317,0.037,1.951
							c0.058-0.322,0.048-0.648,0.019-0.969c-0.033-0.321-0.083-0.64-0.172-0.95c-0.079-0.313-0.192-0.616-0.346-0.897
							c-0.154-0.276-0.358-0.544-0.657-0.679C87.616,29.739,87.861,30,88.036,30.278z"/>
						<path fill="#A081A3" d="M94.709,33.504c0.169-0.405,0.248-0.848,0.245-1.289c0.009-0.441-0.059-0.884-0.191-1.306
							c-0.142-0.412-0.336-0.842-0.718-1.087c0.409,0.208,0.646,0.64,0.804,1.057c0.156,0.427,0.225,0.883,0.227,1.337
							c-0.008,0.453-0.088,0.913-0.282,1.325c-0.192,0.415-0.519,0.769-0.923,0.966C94.252,34.271,94.537,33.908,94.709,33.504z"/>
					</g>
					
						<linearGradient id="SVGID_1_" gradientUnits="userSpaceOnUse" x1="1478.4678" y1="31.998" x2="1480.5635" y2="31.998" gradientTransform="matrix(-1 0 0 1 1566.8652 0)">
						<stop  offset="0" style="stop-color:#FFFFFF"/>
						<stop  offset="1" style="stop-color:#90BFC0"/>
					</linearGradient>
					<path fill="url(#SVGID_1_)" d="M87.1,29.844c0.467,0,1.085,0.808,1.256,2.009c0.177,1.23-0.225,2.226-0.698,2.293
						c-0.494,0.075-1.136-0.757-1.313-2.005c-0.085-0.605-0.039-1.21,0.132-1.66c0.14-0.37,0.347-0.6,0.566-0.631
						C87.061,29.847,87.08,29.844,87.1,29.844z"/>
					
						<linearGradient id="SVGID_2_" gradientUnits="userSpaceOnUse" x1="1482.1367" y1="30.4038" x2="1478.5907" y2="32.6387" gradientTransform="matrix(-1 0 0 1 1566.8652 0)">
						<stop  offset="0" style="stop-color:#FFFFFF"/>
						<stop  offset="1" style="stop-color:#010101"/>
					</linearGradient>
					<path fill="url(#SVGID_2_)" d="M86.604,32.119c-0.07-0.499-0.032-0.998,0.108-1.368c0.094-0.247,0.225-0.413,0.364-0.483
						c0.896,0.893,0.91,2.37,0.474,3.496C87.17,33.678,86.735,33.037,86.604,32.119z"/>
					
						<linearGradient id="SVGID_3_" gradientUnits="userSpaceOnUse" x1="1472.0215" y1="31.9985" x2="1475.1836" y2="31.9985" gradientTransform="matrix(-1 0 0 1 1566.8652 0)">
						<stop  offset="0" style="stop-color:#FFFFFF"/>
						<stop  offset="1" style="stop-color:#90BFC0"/>
					</linearGradient>
					<path fill="url(#SVGID_3_)" d="M93.078,29.673c0.802,0,1.563,0.925,1.73,2.103c0.092,0.641,0.002,1.264-0.251,1.754
						c-0.232,0.449-0.575,0.726-0.963,0.783c-0.856,0.125-1.698-0.843-1.878-2.096c-0.092-0.639-0.002-1.262,0.251-1.75
						c0.233-0.45,0.576-0.728,0.966-0.783C92.981,29.677,93.029,29.673,93.078,29.673z"/>
					
						<linearGradient id="SVGID_4_" gradientUnits="userSpaceOnUse" x1="1476.4453" y1="30.3359" x2="1472.8633" y2="32.6704" gradientTransform="matrix(-1 0 0 1 1566.8652 0)">
						<stop  offset="0" style="stop-color:#FFFFFF"/>
						<stop  offset="1" style="stop-color:#010101"/>
					</linearGradient>
					<path fill="url(#SVGID_4_)" d="M92.115,32.183c-0.076-0.518-0.002-1.02,0.202-1.416c0.138-0.263,0.32-0.451,0.53-0.554
						c1.022,0.75,1.132,2.555,0.443,3.632C92.729,33.701,92.233,33.025,92.115,32.183z"/>
				</g>
				<path fill="#D59671" d="M88.771,37.617c0.408,0.15,0.836,0.23,1.269,0.211c0.431,0.003,0.862-0.083,1.275-0.207l0.026,0.064
					c-0.124,0.312-0.331,0.5-0.556,0.632c-0.225,0.138-0.478,0.192-0.735,0.208c-0.257-0.006-0.521-0.051-0.757-0.192
					c-0.23-0.129-0.455-0.339-0.549-0.652L88.771,37.617z"/>
			</g>
			<ellipse fill="#CDEBEF" cx="88.661" cy="68.74" rx="0.382" ry="0.453"/>
			<ellipse fill="#CDEBEF" cx="88.577" cy="75.419" rx="0.382" ry="0.452"/>
			<ellipse fill="#CDEBEF" cx="88.494" cy="82.099" rx="0.382" ry="0.452"/>
			<polygon fill="#8CC4CB" points="103.422,83.053 97.994,75.42 95.69,76.625 101.738,84.66 			"/>
			<path fill="#CDEBEF" d="M102.477,51.104c-2.616-4.785-19.434,4.403-21.372,4.946c-3.156,0.883-16.939-1.845-16.939-1.845
				l-0.776,4.801c0,0,12.553,4.875,19.381,3.437C82.77,62.442,106.183,57.883,102.477,51.104z"/>
		</g>
	</g>
	<path fill="#F3C19E" d="M37.827,77.264c3.159,1.311,4.402,1.98,5.98,2.047c1.689,0.07,4.378-0.577,5.315-0.351
		c1.097,0.267,1.876,1.698,2.324,4.532c0,0-0.766-0.984-1.73-2.06c0,0,1.759,4.835,0.47,2.996c-1.288-1.839-1.666-2.996-1.666-2.996
		s1.938,5.228,0.562,3.413c-1.376-1.813-1.26-2.977-1.26-2.977s0.116,2.414,0.349,3.359c0.233,0.945-1.305-1.266-1.583-2.777
		c0,0-1.393,1.047-3.153,0.232l-6.2-1.324L37.827,77.264z"/>
	<path fill="#57C0A0" d="M31.578,69.68c-1.007-7.771-1.615-19.456-5.453-18.66c-5.939,1.233-0.222,23.324,2.127,27.476
		c1.117,1.98,10.98,4.188,10.98,4.188s1.536-1.695,2.053-4.342C41.285,78.342,32.224,74.686,31.578,69.68z"/>
	<path fill="#727276" d="M100.729,34.611c-0.101-0.206-0.352-0.29-0.558-0.188c-0.205,0.103-0.288,0.351-0.187,0.556
		c0.529,1.074,0.543,3.024-2.935,5.483l-0.27,0.19c-1.165,0.826-2.16,1.771-3.123,2.684c-1.843,1.749-3.314,3.141-5.027,2.813
		c0.012-0.041,0.021-0.081,0.028-0.114l-1.07-0.271c-0.002,0.006-0.007,0.026-0.011,0.04c-0.563-0.222-0.898-0.645-1.084-1.25
		c-0.262,0.102-0.523,0.205-0.785,0.308c0.259,0.811,0.752,1.431,1.639,1.747c0.009,0.003,0.02,0.005,0.027,0.008
		c-0.313,1.259-0.869,3.504-0.943,3.906l1.088,0.2c0.063-0.342,0.562-2.369,0.911-3.77c2.146,0.445,3.844-1.161,5.797-3.016
		c0.942-0.894,1.916-1.819,3.033-2.608l0.27-0.19C100.936,38.729,101.607,36.391,100.729,34.611z"/>
</g>
</svg>
