<svg xmlns="http://www.w3.org/2000/svg" width="37.161" height="48" viewBox="0 0 37.161 48"><defs><style>.a{fill:#edebed;}.b{fill:#a5cdff;}.c{fill:#8cb4eb;}.d{fill:#f7d291;}.e{fill:#f0c382;}.f{fill:#ffe1a0;}.g{fill:#6e5a64;}.h{fill:#a06e50;}.i{fill:#dbd9dc;}.j{fill:#cd916e;}.k{fill:#e3aa75;}.l{fill:#b67f5f;}.m{fill:#fff;}</style></defs><g transform="translate(-57.807)"><path class="a" d="M91.634,344.146l-8.16-2.4H69.3l-8.16,2.4a4.645,4.645,0,0,0-3.334,4.456v6.782a2.323,2.323,0,0,0,2.323,2.323H92.646a2.323,2.323,0,0,0,2.323-2.323V348.6A4.645,4.645,0,0,0,91.634,344.146Z" transform="translate(0 -309.707)"/><path class="b" d="M207.484,362.323h-7.742l-1.548-15.484h10.839Z" transform="translate(-127.226 -314.323)"/><path class="c" d="M198.194,346.839l.232,2.317a6.945,6.945,0,0,0,10.375,0l.232-2.317Z" transform="translate(-127.226 -314.323)"/><path class="d" d="M203.612,275.1h0a5.419,5.419,0,0,1-5.419-5.419v-5.419h10.839v5.419A5.419,5.419,0,0,1,203.612,275.1Z" transform="translate(-127.225 -239.484)"/><path class="e" d="M198.194,267.534a11.407,11.407,0,0,0,10.839,0v-3.276H198.194Z" transform="translate(-127.226 -239.484)"/><path class="f" d="M146.71,82.065h-.387V74.323H126.194v7.742h-.387a1.935,1.935,0,1,0,0,3.871h.426a10.055,10.055,0,0,0,20.051,0h.426a1.936,1.936,0,0,0,0-3.871Z" transform="translate(-59.871 -67.355)"/><g transform="translate(70.968 14.777)"><path class="g" d="M198.968,159.944a.774.774,0,0,1-.774-.774V158.4a.774.774,0,0,1,1.548,0v.774A.774.774,0,0,1,198.968,159.944Z" transform="translate(-198.194 -157.621)"/><path class="g" d="M298.064,159.944a.774.774,0,0,1-.774-.774V158.4a.774.774,0,0,1,1.548,0v.774A.774.774,0,0,1,298.064,159.944Z" transform="translate(-288 -157.621)"/></g><g transform="translate(70.194 12.387)"><path class="h" d="M192.259,133.677H190.71a.774.774,0,1,1,0-1.548h1.548a.774.774,0,1,1,0,1.548Z" transform="translate(-189.936 -132.129)"/><path class="h" d="M291.355,133.677h-1.548a.774.774,0,0,1,0-1.548h1.548a.774.774,0,1,1,0,1.548Z" transform="translate(-279.742 -132.129)"/></g><path class="d" d="M126.194,74.323v7.742h-.319a1.98,1.98,0,0,0-1.933,1.41,1.942,1.942,0,0,0,1.865,2.461h.426a9.993,9.993,0,0,0,11.579,9.16,10.058,10.058,0,0,1-8.521-9.934v-4.7a3.133,3.133,0,0,1,3.346-3.148q.761.063,1.6.064a29.753,29.753,0,0,0,7.45-1.065,5.2,5.2,0,0,0,2.886-1.985Z" transform="translate(-59.871 -67.355)"/><path class="h" d="M137.451,41.238l.1,3.1a8.549,8.549,0,0,0-2.323,5.419v.956a1.548,1.548,0,0,1-1.356,1.536l-1.74.218V45.883A4.956,4.956,0,0,1,137.451,41.238Z" transform="translate(-67.353 -37.367)"/><path class="i" d="M265.275,320.759l-1.533-1.533,1.641-2.188a.948.948,0,0,0-.334-1.417l-3.629-1.815L256,332.387h4.645l4.92-9.841A1.548,1.548,0,0,0,265.275,320.759Z" transform="translate(-179.612 -284.387)"/><path class="b" d="M368,439.613h-1.161v-1.161a.774.774,0,0,0-1.548,0v1.161h-1.161a.774.774,0,0,0,0,1.548h1.161v1.161a.774.774,0,1,0,1.548,0v-1.161H368a.774.774,0,1,0,0-1.548Z" transform="translate(-276.903 -396.646)"/><path class="j" d="M322.161,16.464l-.1,5.419a8.549,8.549,0,0,1,2.323,5.419v.956a1.548,1.548,0,0,0,1.356,1.536l1.74.218v-8.9A4.956,4.956,0,0,0,322.161,16.464Z" transform="translate(-239.483 -14.916)"/><path class="k" d="M226.064,217.032a4.143,4.143,0,0,1-2.866-1,.774.774,0,0,1,1.087-1.1,3.147,3.147,0,0,0,3.558,0,.774.774,0,0,1,1.087,1.1A4.142,4.142,0,0,1,226.064,217.032Z" transform="translate(-149.676 -194.581)"/><path class="i" d="M152.679,320.759l1.533-1.533-1.641-2.188a.948.948,0,0,1,.334-1.417l3.629-1.815,5.419,18.581h-4.645l-4.92-9.841A1.548,1.548,0,0,1,152.679,320.759Z" transform="translate(-85.566 -284.387)"/><path class="l" d="M145.776,0c-6.459,0-7.7,1.964-12.671,3.548a.542.542,0,0,0-.3.807c1.079,1.688,5.1,6.089,16.509,3.1a3.617,3.617,0,0,0,2.635-2.782h0A3.62,3.62,0,0,0,149.872.839,9.535,9.535,0,0,0,145.776,0Z" transform="translate(-67.888 0)"/><path class="b" d="M106.064,467.1H99.87a.774.774,0,0,1-.774-.774v-3.1a.774.774,0,0,1,.774-.774h6.194a.774.774,0,0,1,.774.774v3.1A.774.774,0,0,1,106.064,467.1Z" transform="translate(-37.418 -419.097)"/><path class="m" d="M132.9,441.549a.774.774,0,0,1-.774-.774v-2.323a.774.774,0,1,1,1.548,0v2.323A.774.774,0,0,1,132.9,441.549Z" transform="translate(-67.354 -396.646)"/><path class="c" d="M106.064,488H99.87a.774.774,0,0,1-.774-.774v1.548a.774.774,0,0,0,.774.774h6.194a.774.774,0,0,0,.774-.774v-1.548A.774.774,0,0,1,106.064,488Z" transform="translate(-37.418 -441.549)"/></g></svg>