<svg xmlns="http://www.w3.org/2000/svg" width="51" height="50" viewBox="0 0 51 50"><defs><style>.a,.b{fill:#fff;}.a{opacity:0.41;}</style></defs><g transform="translate(0.001 -0.358)"><ellipse class="a" cx="25.5" cy="25" rx="25.5" ry="25" transform="translate(-0.001 0.358)"/><path class="b" d="M9.561,10.927A5.464,5.464,0,1,0,4.1,5.464,5.463,5.463,0,0,0,9.561,10.927Zm4.089,1.392-2.04,8.17-1.366-5.805,1.366-2.39h-4.1l1.366,2.39L7.512,20.488l-2.04-8.17A5.727,5.727,0,0,0,0,18.03v1.776a2.049,2.049,0,0,0,2.049,2.049H17.074a2.049,2.049,0,0,0,2.049-2.049V18.03a5.727,5.727,0,0,0-5.472-5.711Z" transform="translate(15.669 14.484)"/></g></svg>