<svg xmlns="http://www.w3.org/2000/svg" width="14.69" height="14.384" viewBox="0 0 14.69 14.384"><path d="M13.551,4.393H12.044v-1.6A2.052,2.052,0,0,0,10,.72H6.136A2.052,2.052,0,0,0,4.087,2.793v1.6H2.579A1.825,1.825,0,0,0,.72,6.21v7.041A1.856,1.856,0,0,0,2.579,15.1H13.551a1.857,1.857,0,0,0,1.86-1.854V6.21A1.826,1.826,0,0,0,13.551,4.393Zm-8.24-1.6a.884.884,0,0,1,.825-.849H10a.885.885,0,0,1,.825.849v1.6H5.311Zm6.121,8.333H9.289v2.142H6.841V11.126H4.7V8.677H6.841V6.535H9.289V8.677h2.142v2.448Z" transform="translate(-0.72 -0.72)"/></svg>