<svg xmlns="http://www.w3.org/2000/svg" width="51" height="50" viewBox="0 0 51 50"><defs><style>.a,.b{fill:#fff;}.a{opacity:0.41;}</style></defs><g transform="translate(0.176 -0.466)"><ellipse class="a" cx="25.5" cy="25" rx="25.5" ry="25" transform="translate(-0.176 0.466)"/><path class="b" d="M16.671,19.581a3.282,3.282,0,0,0,3.278-3.289l.011-6.577a3.289,3.289,0,0,0-6.577,0v6.577a3.291,3.291,0,0,0,3.289,3.289Zm5.81-3.289a5.684,5.684,0,0,1-5.81,5.591,5.688,5.688,0,0,1-5.81-5.591H9a7.647,7.647,0,0,0,6.577,7.366v3.6h2.192v-3.6a7.647,7.647,0,0,0,6.577-7.366H22.481Z" transform="translate(8.593 8.571)"/></g></svg>