<svg xmlns="http://www.w3.org/2000/svg" xmlns:xlink="http://www.w3.org/1999/xlink" width="64" height="64" viewBox="0 0 64 64"><defs><style>.a{fill:#e1e1e1;}.b{filter:url(#a);}</style><filter id="a" x="0" y="0" width="64" height="64" filterUnits="userSpaceOnUse"><feOffset dy="3" input="SourceAlpha"/><feGaussianBlur stdDeviation="3" result="b"/><feFlood flood-opacity="0.239"/><feComposite operator="in" in2="b"/><feComposite in="SourceGraphic"/></filter></defs><g transform="translate(8.646 6)"><g class="b" transform="matrix(1, 0, 0, 1, -8.65, -6)"><circle class="a" cx="23" cy="23" r="23" transform="translate(9 6)"/></g><g transform="translate(13.807 13.534)"><g transform="translate(0 0)"><path d="M44.612,46.16V43.349l-5.973,5.973a3.822,3.822,0,0,0,5.973-3.162Z" transform="translate(-32.09 -33.744)"/><path d="M38.08,45.715h-.762a.443.443,0,0,0-.443.443v1.557A4.94,4.94,0,0,1,29.149,51.8L27.987,52.96a6.476,6.476,0,0,0,3.121,1.293v1.1h-3.4a.443.443,0,0,0-.443.443v.761a.443.443,0,0,0,.443.443h8.45a.443.443,0,0,0,.443-.443V55.8a.443.443,0,0,0-.443-.443h-3.4v-1.1a6.684,6.684,0,0,0,5.767-6.538V46.158A.443.443,0,0,0,38.08,45.715Z" transform="translate(-23.235 -35.586)"/><path d="M26.118,1.7a1.219,1.219,0,0,0-1.723,0L21.6,4.5V3.825a3.825,3.825,0,1,0-7.649,0v8.321l-1.009,1.009a4.926,4.926,0,0,1-.109-1.025V10.572a.443.443,0,0,0-.443-.443h-.762a.443.443,0,0,0-.443.443v1.557a6.389,6.389,0,0,0,.448,2.334l-2.2,2.2a1.219,1.219,0,0,0,1.723,1.724L26.118,3.428A1.218,1.218,0,0,0,26.118,1.7Z" transform="translate(-9.082 0)"/></g></g></g></svg>