<svg xmlns="http://www.w3.org/2000/svg" width="24.94" height="31.446" viewBox="0 0 24.94 31.446"><defs><style>.a{fill:#fec9a3;}.b{fill:#68dda9;}.c{fill:#0bce77;}.d{fill:#ebebeb;}.e{fill:#e0e0e0;}.f{fill:#d1d1d1;}.g{fill:#f7bb8f;}.h{fill:#f0b184;}.i{fill:#75462e;}</style></defs><path class="a" d="M68.146,185.379v3.253h5.086a4.673,4.673,0,0,1,4.674,4.674v12.134H56.218a3.253,3.253,0,0,1-3.253-3.253h0v-8.881a4.673,4.673,0,0,1,4.674-4.674h5.086v-3.253Z" transform="translate(-52.965 -173.993)"/><path class="b" d="M73.23,238.345H69.771l-.542,2.169a4.06,4.06,0,0,1-3.253,1.627H64.892a4.06,4.06,0,0,1-3.253-1.627l-.542-2.169H57.637a4.673,4.673,0,0,0-4.674,4.674h0V251.9a3.253,3.253,0,0,0,3.253,3.253H77.9V243.019A4.673,4.673,0,0,0,73.23,238.345Z" transform="translate(-52.964 -223.706)"/><path class="c" d="M62.184,338.007H83.87V326.621c-5.373,5.329-17.181,8.723-24.549,9.678A3.253,3.253,0,0,0,62.184,338.007Z" transform="translate(-58.931 -306.561)"/><g transform="translate(5.422 14.639)"><path class="d" d="M148.289,255.152l-4.337-16.807h-2.711l4.337,16.807Z" transform="translate(-141.241 -238.345)"/><rect class="d" width="9.759" height="4.88" transform="translate(1.084 11.928)"/></g><rect class="e" width="9.759" height="1.627" transform="translate(6.506 29.819)"/><g transform="translate(16.265 21.687)"><path class="a" d="M318.877,432.552h-1.084v4.879h1.084a1.084,1.084,0,0,0,1.084-1.084v-2.711A1.084,1.084,0,0,0,318.877,432.552Z" transform="translate(-317.793 -427.672)"/><rect class="a" width="4.337" height="9.759" transform="translate(4.337)"/></g><g transform="translate(13.554 14.639)"><path class="f" d="M276.366,250.273l3.253-11.928h-2.711l-3.253,11.928Z" transform="translate(-273.655 -238.345)"/><path class="f" d="M276.366,250.273l3.253-11.928h-2.711l-3.253,11.928Z" transform="translate(-273.655 -238.345)"/></g><g transform="translate(0 21.687)"><path class="a" d="M57.3,357.984V353.1H52.966v6.506a3.253,3.253,0,0,0,3.253,3.253h3.253v-4.88H57.3Z" transform="translate(-52.966 -353.104)"/><path class="a" d="M258.087,397.241a1.627,1.627,0,0,0-1.453.9L256,399.41h2.169a2.169,2.169,0,0,0,2.169-2.169h-2.25Z" transform="translate(-243.53 -394.53)"/></g><path class="g" d="M217.284,195.552v-1.345h-5.422v1.345A4.88,4.88,0,0,0,217.284,195.552Z" transform="translate(-202.103 -182.279)"/><path class="a" d="M177.636,35.31A3.474,3.474,0,0,0,176.7,36.9a4.779,4.779,0,0,0-.146,1.193V40.8a4.879,4.879,0,0,0,4.88,4.88h0a4.879,4.879,0,0,0,4.88-4.88V36.617a1.849,1.849,0,0,0-.542-1.307h-8.133Z" transform="translate(-168.961 -33.141)"/><path class="h" d="M231.578,90.745h-1.627a.542.542,0,0,1-.549-.535.537.537,0,0,1,.007-.094l.542-3.253,1.084.174-.445,2.624h.987v1.084Z" transform="translate(-218.565 -81.528)"/><path class="i" d="M167.572,2.711h-5.964A2.711,2.711,0,0,1,158.9,0h8.133a2.711,2.711,0,0,1,2.711,2.711v3.8Z" transform="translate(-152.391)"/></svg>