<svg xmlns="http://www.w3.org/2000/svg" width="50" height="50" viewBox="0 0 50 50"><defs><style>.a,.b{fill:#fff;}.a{opacity:0.41;}</style></defs><g transform="translate(-0.412 -0.358)"><circle class="a" cx="25" cy="25" r="25" transform="translate(0.412 0.358)"/><g transform="translate(18.732 17.244)"><path class="b" d="M12.67,23.086H9.414A.411.411,0,0,1,9,22.678V7.158a.411.411,0,0,1,.414-.408H12.67a.411.411,0,0,1,.414.408V22.678A.411.411,0,0,1,12.67,23.086Z" transform="translate(-9 -6.75)"/><path class="b" d="M25.045,23.086H21.789a.411.411,0,0,1-.414-.408V7.158a.411.411,0,0,1,.414-.408h3.257a.411.411,0,0,1,.414.408V22.678A.411.411,0,0,1,25.045,23.086Z" transform="translate(-12.39 -6.75)"/></g></g></svg>