<svg xmlns="http://www.w3.org/2000/svg" width="19.939" height="20.165" viewBox="0 0 19.939 20.165"><defs><style>.a{fill:#00ade5;}.b{fill:#004398;}.c{fill:#fff;}</style></defs><g transform="translate(-2.83 0)"><path class="a" d="M2.939,78.631a.7.7,0,0,0,.7.7h4.52s1.043.07,1.286-1.252l.869-3.72a1.481,1.481,0,0,1,1.425-1.078c1.182,0,9.248.313,11.021-5.389a7.9,7.9,0,0,0-1.877-6.258,5.535,5.535,0,0,1,.348,4.52c-1.773,5.736-9.839,5.423-10.986,5.423a1.614,1.614,0,0,0-1.53,1.043l-.869,3.72a1.392,1.392,0,0,1-1.356,1.252H3.843c-1.043,0-.9-.9-.9-.9v1.947Z" transform="translate(-0.099 -59.161)"/><path class="b" d="M7.812,17.21l.869-3.72a1.466,1.466,0,0,1,1.425-1.043c1.182,0,9.248.313,11.021-5.389C21.822,4.938,22.274,0,14.1,0H8.229A1.52,1.52,0,0,0,6.7,1.218L2.84,17.419a.836.836,0,0,0,.9,1.008H6.386A1.415,1.415,0,0,0,7.812,17.21" transform="translate(0 0)"/><path class="c" d="M181.276,89.018l.765-3.3a1.484,1.484,0,0,1,1.043-1.043,9.357,9.357,0,0,1,2.538.1,2.07,2.07,0,0,1,1.808,2.538c-.452,3.268-5.667,2.816-5.667,2.816a.841.841,0,0,1-.487-1.112" transform="translate(-171.239 -81.229)"/></g></svg>