<svg xmlns="http://www.w3.org/2000/svg" width="20.594" height="20.594" viewBox="0 0 20.594 20.594"><defs><style>.a{fill:#fff;}</style></defs><path class="a" d="M18.942,13.52a11.756,11.756,0,0,1-3.674-.585,1.683,1.683,0,0,0-1.63.343l-2.317,1.748A12.8,12.8,0,0,1,5.567,9.273l1.7-2.258a1.666,1.666,0,0,0,.408-1.684A11.815,11.815,0,0,1,7.09,1.652,1.653,1.653,0,0,0,5.438,0H1.652A1.653,1.653,0,0,0,0,1.652,18.961,18.961,0,0,0,18.942,20.594a1.653,1.653,0,0,0,1.652-1.652v-3.77A1.653,1.653,0,0,0,18.942,13.52Z" transform="translate(0 0)"/></svg>