<svg xmlns="http://www.w3.org/2000/svg" width="11.924" height="11.924" viewBox="0 0 11.924 11.924"><defs><style>.a{fill:#bbb;}</style></defs><path class="a" d="M11.574,0H.349A.349.349,0,0,0,0,.349V11.574a.349.349,0,0,0,.349.349H11.574a.349.349,0,0,0,.349-.349V.349A.349.349,0,0,0,11.574,0Zm-.349,9.487L9.037,6.861a.349.349,0,0,0-.5-.041L6.824,8.3,3.8,4.618a.349.349,0,0,0-.574.05L.7,9.127V.7H11.225Z"/><g transform="translate(6.735 2.245)"><path class="a" d="M290.673,96.4a1.472,1.472,0,1,0,1.472,1.472A1.474,1.474,0,0,0,290.673,96.4Z" transform="translate(-289.201 -96.4)"/></g></svg>