<svg xmlns="http://www.w3.org/2000/svg" xmlns:xlink="http://www.w3.org/1999/xlink" width="10.505" height="11.543" viewBox="0 0 10.505 11.543"><defs><style>.a{fill:url(#a);}.b{fill:url(#b);}.c{fill:url(#c);}.d{fill:url(#d);}.e{fill:url(#e);}.f{fill:url(#f);}.g{fill:url(#g);}.h{fill:url(#h);}.i{fill:url(#i);}.j{fill:url(#j);}.k{fill:url(#k);}.l{fill:#61db99;}.m{fill:url(#l);}.n{fill:url(#m);}.o{fill:url(#n);}.p{fill:url(#o);}.q{fill:url(#p);}.r{fill:url(#q);}.s{fill:url(#r);}</style><linearGradient id="a" x1="0.514" y1="0.999" x2="0.508" y2="0.8" gradientUnits="objectBoundingBox"><stop offset="0" stop-color="#ffb92d"/><stop offset="1" stop-color="#f59500"/></linearGradient><linearGradient id="b" x1="0.544" y1="0.884" x2="0.527" y2="0.725" xlink:href="#a"/><linearGradient id="c" x1="0.497" y1="2.381" x2="0.497" y2="2.115" gradientUnits="objectBoundingBox"><stop offset="0" stop-color="#a7f3ce"/><stop offset="1" stop-color="#61db99"/></linearGradient><linearGradient id="d" x1="0.497" y1="1.192" x2="0.497" y2="0.334" gradientUnits="objectBoundingBox"><stop offset="0" stop-color="#ff4c54"/><stop offset="1" stop-color="#be3f45"/></linearGradient><linearGradient id="e" x1="0.497" y1="0.009" x2="0.497" y2="-0.849" xlink:href="#d"/><linearGradient id="f" x1="0.595" y1="0.09" x2="0.113" y2="0.09" gradientUnits="objectBoundingBox"><stop offset="0" stop-color="#be3f45" stop-opacity="0"/><stop offset="1" stop-color="#be3f45"/></linearGradient><linearGradient id="g" x1="0.328" y1="0.312" x2="0.748" y2="0.118" xlink:href="#a"/><linearGradient id="h" x1="0.484" y1="-2.152" x2="0.467" y2="-2.526" xlink:href="#f"/><linearGradient id="i" x1="0.488" y1="14.281" x2="0.488" y2="-6.552" gradientUnits="objectBoundingBox"><stop offset="0" stop-color="#fff465"/><stop offset="1" stop-color="#ffe600"/></linearGradient><linearGradient id="j" x1="0.497" y1="0.68" x2="0.497" y2="-0.33" xlink:href="#i"/><linearGradient id="k" x1="0.486" y1="-3.309" x2="0.486" y2="-23.828" xlink:href="#i"/><linearGradient id="l" x1="0.754" y1="-1.086" x2="-0.167" y2="-0.458" xlink:href="#f"/><linearGradient id="m" x1="0.478" y1="-1.436" x2="0.478" y2="-2.157" xlink:href="#d"/><linearGradient id="n" x1="0.469" y1="-3.071" x2="0.469" y2="-2.351" xlink:href="#d"/><linearGradient id="o" x1="-4.368" y1="7.43" x2="-3.372" y2="3.032" xlink:href="#c"/><linearGradient id="p" x1="-4.375" y1="7.43" x2="-3.379" y2="3.031" xlink:href="#c"/><linearGradient id="q" x1="-4.762" y1="5.504" x2="-3.766" y2="1.105" xlink:href="#c"/><linearGradient id="r" x1="-4.769" y1="5.504" x2="-3.773" y2="1.105" xlink:href="#c"/></defs><g transform="translate(-23.025 0)"><path class="a" d="M32.68,77.885H23.875a.85.85,0,0,1-.85-.85V69.7a.85.85,0,0,1,.85-.85H32.68a.85.85,0,0,1,.85.85v7.332A.85.85,0,0,1,32.68,77.885Z" transform="translate(0 -67.301)"/><path class="b" d="M42.639,86.415H34.227a.812.812,0,0,1-.812-.812v-7a.812.812,0,0,1,.812-.812h8.412a.812.812,0,0,1,.812.812v7A.812.812,0,0,1,42.639,86.415Z" transform="translate(-10.156 -76.032)"/><path class="c" d="M52.115,3.924,50,.256a.511.511,0,0,0-.7-.187L42.621,3.924Z" transform="translate(-19.154 0)"/><path class="d" d="M23.025,156.811h10.5v-2.782a.636.636,0,0,0-.636-.636H23.661a.636.636,0,0,0-.636.636Z" transform="translate(0 -149.934)"/><path class="e" d="M23.025,235.84v3.9a.85.85,0,0,0,.85.85H32.68a.85.85,0,0,0,.85-.85v-3.9a.525.525,0,0,0-.525-.525H23.55A.525.525,0,0,0,23.025,235.84Z" transform="translate(0 -230.01)"/><path class="f" d="M418.679,169.277v6.767h.735a.85.85,0,0,0,.85-.85v-4.333Z" transform="translate(-386.734 -165.46)"/><path class="g" d="M31.228,112.933l-7.374-.856a.937.937,0,0,1-.829-.931v-7.41a.314.314,0,0,0,.277.312l8.142.946a.937.937,0,0,1,.829.931V112A.937.937,0,0,1,31.228,112.933Z" transform="translate(0 -101.396)"/><path class="h" d="M31.228,368.559l-7.374-.856a.938.938,0,0,1-.829-.931v1.48a.938.938,0,0,0,.829.931l7.374.856a.937.937,0,0,0,1.046-.931v-1.48A.937.937,0,0,1,31.228,368.559Z" transform="translate(0 -358.502)"/><path class="i" d="M30.351,138.637h-.019l-.337-.037a.17.17,0,0,1,.037-.337l.337.037a.17.17,0,0,1-.018.338Z" transform="translate(-6.664 -135.143)"/><path class="j" d="M80.407,150.863h-.022l-.656-.083a.17.17,0,0,1,.043-.337l.656.083a.17.17,0,0,1-.021.338Zm.646-.084a.17.17,0,0,1-.072-.323.67.67,0,0,0,.355-.369.17.17,0,1,1,.321.112,1,1,0,0,1-.531.564A.169.169,0,0,1,81.052,150.779ZM79.1,150.7h-.022l-.656-.083a.17.17,0,0,1,.043-.337l.656.083a.17.17,0,0,1-.021.338Zm-1.312-.167h-.022l-.656-.083a.17.17,0,0,1,.043-.337l.656.083a.17.17,0,0,1-.021.338Zm-1.312-.167H76.45l-.656-.083a.17.17,0,1,1,.043-.337l.656.083a.17.17,0,0,1-.021.338ZM75.16,150.2h-.022l-.656-.083a.17.17,0,1,1,.043-.337l.656.083a.17.17,0,0,1-.021.338Zm6.374-.54a.17.17,0,0,1-.17-.17v-.661a.17.17,0,0,1,.339,0v.661A.17.17,0,0,1,81.534,149.655Zm0-1.322a.17.17,0,0,1-.17-.17V147.5a.17.17,0,0,1,.339,0v.661A.17.17,0,0,1,81.534,148.333Zm0-1.322a.17.17,0,0,1-.17-.17v-.661a.17.17,0,0,1,.339,0v.661A.17.17,0,0,1,81.534,147.01Zm0-1.322a.17.17,0,0,1-.17-.17v-.661a.17.17,0,1,1,.339,0v.661A.17.17,0,0,1,81.534,145.688Zm-.237-1.254a.169.169,0,0,1-.117-.047.832.832,0,0,0-.492-.214h0a.17.17,0,1,1,.036-.338h0a1.172,1.172,0,0,1,.69.305.17.17,0,0,1-.117.293Zm-1.252-.332h-.019l-.657-.072a.17.17,0,0,1,.037-.337l.657.072a.17.17,0,0,1-.018.338Zm-1.314-.145h-.019l-.657-.072a.17.17,0,0,1,.037-.337l.657.072a.17.17,0,0,1-.018.338Zm-1.314-.144H77.4l-.657-.072a.17.17,0,1,1,.037-.337l.657.072a.17.17,0,0,1-.018.338Zm-1.314-.144h-.019l-.657-.072a.17.17,0,1,1,.037-.337l.657.072a.17.17,0,0,1-.018.338Zm-1.314-.145h-.019l-.657-.072a.17.17,0,0,1,.037-.337l.657.072a.17.17,0,0,1-.018.338Z" transform="translate(-49.787 -139.885)"/><path class="k" d="M46.965,433.33h-.022l-.337-.043a.17.17,0,0,1,.043-.337l.337.043a.17.17,0,0,1-.021.338Z" transform="translate(-22.904 -423.186)"/><path class="l" d="M279.772,32.31l-1.086.591a.292.292,0,0,1-.4-.117h0a.292.292,0,0,1,.117-.4l1.086-.591a.292.292,0,0,1,.4.117h0A.292.292,0,0,1,279.772,32.31Z" transform="translate(-249.475 -31.046)"/><path class="m" d="M323.875,305.393l-1.078-1.078a.832.832,0,1,0-1.176,1.176l2.254,2.254Z" transform="translate(-291.601 -297.19)"/><circle class="n" cx="0.832" cy="0.832" r="0.832" transform="translate(29.751 6.855)"/><circle class="o" cx="0.574" cy="0.574" r="0.574" transform="translate(30.008 7.113)"/><circle class="p" cx="0.119" cy="0.119" r="0.119" transform="translate(30.246 7.35)"/><circle class="q" cx="0.119" cy="0.119" r="0.119" transform="translate(30.682 7.35)"/><circle class="r" cx="0.119" cy="0.119" r="0.119" transform="translate(30.246 7.787)"/><circle class="s" cx="0.119" cy="0.119" r="0.119" transform="translate(30.682 7.787)"/></g></svg>