<svg xmlns="http://www.w3.org/2000/svg" width="14.403" height="23.5" viewBox="0 0 14.403 23.5"><defs><style>.a{fill:#858585;}</style></defs><path class="a" d="M12.508,0H1.9A1.9,1.9,0,0,0,0,1.9V21.6a1.9,1.9,0,0,0,1.9,1.9H12.508a1.9,1.9,0,0,0,1.9-1.9V1.9A1.9,1.9,0,0,0,12.508,0ZM.758,3.79H13.645V18.952H.758Zm0-1.9A1.137,1.137,0,0,1,1.9.758H12.508A1.137,1.137,0,0,1,13.645,1.9V3.032H.758ZM13.645,21.6a1.137,1.137,0,0,1-1.137,1.137H1.9A1.137,1.137,0,0,1,.758,21.6v-1.9H13.645Zm0,0"/><path class="a" d="M107.79,32h-3.411a.379.379,0,0,0,0,.758h3.411a.379.379,0,0,0,0-.758Zm0,0" transform="translate(-99.073 -30.484)"/><path class="a" d="M200.758,32h-.379a.379.379,0,0,0,0,.758h.379a.379.379,0,0,0,0-.758Zm0,0" transform="translate(-190.524 -30.484)"/><path class="a" d="M129.137,426.274A1.137,1.137,0,1,0,128,425.137,1.137,1.137,0,0,0,129.137,426.274Zm0-1.516a.379.379,0,1,1-.379.379A.379.379,0,0,1,129.137,424.758Zm0,0" transform="translate(-121.935 -403.911)"/></svg>