<svg xmlns="http://www.w3.org/2000/svg" width="12" height="12" viewBox="0 0 12 12"><defs><style>.a{fill:#ffd54f;}.b{fill:#e53935;}.c{fill:#6d4c41;}</style></defs><g transform="translate(0.027 0.036)"><circle class="a" cx="6" cy="6" r="6" transform="translate(-0.027 -0.036)"/><path class="b" d="M18.765.964a1.257,1.257,0,0,0-.774.264,1.257,1.257,0,0,0-.774-.264A1.192,1.192,0,0,0,16,2.127c0,1,1.481,2.083,1.777,2.29a.374.374,0,0,0,.428,0c.3-.208,1.777-1.291,1.777-2.29A1.192,1.192,0,0,0,18.765.964Z" transform="translate(-8.036 -0.484)"/><path class="b" d="M2.765,16.964a1.257,1.257,0,0,0-.774.264,1.257,1.257,0,0,0-.774-.264A1.192,1.192,0,0,0,0,18.127c0,1,1.481,2.083,1.777,2.29a.374.374,0,0,0,.428,0c.3-.208,1.777-1.291,1.777-2.29a1.192,1.192,0,0,0-1.217-1.163Z" transform="translate(0 -8.52)"/><g transform="translate(2.489 3.982)"><path class="c" d="M7.115,9.618a.373.373,0,0,1-.373-.373.5.5,0,0,0-1,0,.373.373,0,1,1-.747,0,1.244,1.244,0,0,1,2.489,0A.373.373,0,0,1,7.115,9.618Z" transform="translate(-5 -8)"/><path class="c" d="M16.115,9.618a.373.373,0,0,1-.373-.373.5.5,0,0,0-1,0,.373.373,0,1,1-.747,0,1.244,1.244,0,1,1,2.489,0A.373.373,0,0,1,16.115,9.618Z" transform="translate(-9.52 -8)"/><path class="c" d="M8.987,16.154A4.04,4.04,0,0,1,6.11,14.962a.373.373,0,1,1,.528-.528,3.321,3.321,0,0,0,4.7,0,.373.373,0,0,1,.528.528A4.043,4.043,0,0,1,8.987,16.154Z" transform="translate(-5.502 -11.176)"/></g></g></svg>