<svg xmlns="http://www.w3.org/2000/svg" width="51" height="50" viewBox="0 0 51 50"><defs><style>.a,.b{fill:#fff;}.a{opacity:0.41;}</style></defs><g transform="translate(0.001 -0.466)"><ellipse class="a" cx="25.5" cy="25" rx="25.5" ry="25" transform="translate(-0.001 0.466)"/><g transform="translate(13.95 9.885)"><g transform="translate(0 4.907)"><g transform="translate(0 0)"><path class="b" d="M237.736,111.074a5.516,5.516,0,0,0-3.069-4.941v9.889A5.532,5.532,0,0,0,237.736,111.074Z" transform="translate(-221.163 -100.308)"/><path class="b" d="M0,27.471v7.366H4.911l6.138,6.138V21.333L4.911,27.471Z" transform="translate(0 -20.388)"/><path class="b" d="M234.667,4.907V7.442a8.588,8.588,0,0,1,0,16.463V26.44a11.041,11.041,0,0,0,0-21.533Z" transform="translate(-221.163 -4.907)"/></g></g></g></g></svg>