<svg xmlns="http://www.w3.org/2000/svg" width="16.432" height="15.728" viewBox="0 0 16.432 15.728"><defs><style>.a{fill:#ffdc64;}.b{fill:#fff082;}.c{fill:#ffc850;}</style></defs><g transform="translate(0 -10.971)"><path class="a" d="M62.487,20.257l-4.292-.4L56.49,15.9a.344.344,0,0,0-.632,0l-1.705,3.959-4.292.4a.344.344,0,0,0-.2.6L52.9,23.7l-.948,4.205a.344.344,0,0,0,.511.371l3.707-2.2,3.707,2.2a.344.344,0,0,0,.511-.371L59.443,23.7l3.239-2.845A.344.344,0,0,0,62.487,20.257Z" transform="translate(-47.957 -4.569)"/><g transform="translate(0 10.971)"><path class="b" d="M89.962,11.194c.219.3.836,1.609,1.19,2.37a.119.119,0,0,1-.19.137c-.609-.576-1.651-1.576-1.87-1.88a.537.537,0,1,1,.871-.627Z" transform="translate(-86.134 -10.971)"/><path class="b" d="M356.486,11.194c-.219.3-.836,1.609-1.19,2.37a.119.119,0,0,0,.19.137c.609-.576,1.651-1.576,1.87-1.88a.537.537,0,1,0-.871-.627Z" transform="translate(-343.882 -10.971)"/><path class="b" d="M417.4,283.134c-.356-.116-1.787-.308-2.619-.413a.119.119,0,0,0-.073.223c.734.406,2,1.094,2.359,1.21a.537.537,0,0,0,.333-1.02Z" transform="translate(-401.338 -273.998)"/><path class="b" d="M.371,283.134c.356-.116,1.787-.308,2.619-.413a.119.119,0,0,1,.073.223c-.734.406-2,1.094-2.359,1.21a.537.537,0,0,1-.333-1.02Z" transform="translate(0 -273.998)"/><path class="b" d="M239.794,402.418c0-.374.261-1.795.419-2.618a.119.119,0,0,1,.235,0c.158.824.419,2.244.419,2.618a.537.537,0,1,1-1.073,0Z" transform="translate(-232.098 -387.227)"/></g><path class="c" d="M57.109,17.339l-.62-1.44a.344.344,0,0,0-.632,0l-1.705,3.959-4.292.4a.344.344,0,0,0-.2.6L52.9,23.7l-.948,4.205a.344.344,0,0,0,.511.371l.493-.293A26.7,26.7,0,0,1,57.109,17.339Z" transform="translate(-47.957 -4.569)"/></g></svg>