<svg xmlns="http://www.w3.org/2000/svg" width="11.06" height="12.841" viewBox="0 0 11.06 12.841"><defs><style>.a{fill:#4dcfe0;}.b{fill:#1185e0;}</style></defs><g transform="translate(-29.78)"><path class="a" d="M285.424,147.664a1.734,1.734,0,1,1,1.734-1.734A1.74,1.74,0,0,1,285.424,147.664Zm0-2.531a.8.8,0,1,0,.8.8A.8.8,0,0,0,285.424,145.133Z" transform="translate(-246.318 -139.884)"/><path class="b" d="M38.638,7.342V9.561a2.343,2.343,0,1,1-4.686,0V6.92A3.74,3.74,0,0,0,37.278,3.2V.969A.46.46,0,0,0,36.81.5H35.794V.469a.469.469,0,0,0-.937,0v1a.469.469,0,1,0,.937,0V1.437h.547V3.2a2.812,2.812,0,0,1-5.624,0V1.437h.516v.031a.469.469,0,0,0,.937,0v-1a.469.469,0,0,0-.937,0V.5h-.984a.46.46,0,0,0-.469.469V3.2A3.756,3.756,0,0,0,33.014,6.92V9.56a3.281,3.281,0,1,0,6.561,0V7.342h-.937Z"/></g></svg>