<svg xmlns="http://www.w3.org/2000/svg" width="11.926" height="11.926" viewBox="0 0 11.926 11.926"><defs><style>.a{fill:#1689fc;}.b{fill:#136ef1;}.c{fill:#17ace8;}</style></defs><g transform="translate(0 0.001)"><path class="a" d="M48.663,1.78,47.181.3a1.076,1.076,0,0,0-1.488,0l-.238.245C45.447.551,45.2.8,45.2.808a.34.34,0,0,0,.014.475L47.678,3.75a.338.338,0,0,0,.489,0l.5-.5A1.036,1.036,0,0,0,48.663,1.78Z" transform="translate(-44.056)"/><path class="b" d="M349.582,303.335l-1.481-1.481a1.059,1.059,0,0,0-1.474,0l-.245.252-.252.245a.338.338,0,0,0,0,.489l2.474,2.474a.345.345,0,0,0,.5,0l.238-.245.245-.252A1.042,1.042,0,0,0,349.582,303.335Z" transform="translate(-337.965 -294.531)"/><path class="c" d="M11.372,33.319l-.238.245a3.8,3.8,0,0,1-5.395.042L1.106,28.957a3.775,3.775,0,0,1,0-5.339.269.269,0,0,0,.063-.063l.231-.231,2.956,2.956-.14.147-.1.1c-.224.245-.405.4-.405.741a.81.81,0,0,0,.231.566L5.1,29.006l1.755,1.769a.815.815,0,0,0,1.125,0l.182-.175.252-.245Z" transform="translate(0 -22.782)"/><path class="a" d="M139.758,268.576l2.956,2.963-.238.245a3.8,3.8,0,0,1-5.395.042l-2.608-2.622V269.2l1.971-1.971L138.2,269a.815.815,0,0,0,1.125,0l.182-.175Z" transform="translate(-131.342 -261.002)"/></g></svg>