<svg xmlns="http://www.w3.org/2000/svg" width="19.839" height="19.844" viewBox="0 0 19.839 19.844"><g transform="translate(-3.938 -3.938)"><path d="M13.859,23.781A9.922,9.922,0,0,1,6.974,6.716.8.8,0,1,1,8.08,7.862,8.327,8.327,0,1,0,14.653,5.57V8.675a.8.8,0,0,1-1.6,0V4.736a.8.8,0,0,1,.8-.8,9.922,9.922,0,0,1,0,19.844Z" transform="translate(0 0)"/><path d="M12.039,11.345l4.936,3.547a1.494,1.494,0,1,1-1.736,2.431,1.442,1.442,0,0,1-.347-.347l-3.547-4.936a.5.5,0,0,1,.695-.695Z" transform="translate(-2.154 -2.154)"/></g></svg>