<svg xmlns="http://www.w3.org/2000/svg" width="56" height="56" viewBox="0 0 56 56"><defs><style>.a{fill:#fff;stroke:#858585;stroke-dasharray:6;}.b{fill:#858585;}.c{stroke:none;}.d{fill:none;}</style></defs><g transform="translate(-28 -187)"><g class="a" transform="translate(28 187)"><circle class="c" cx="28" cy="28" r="28"/><circle class="d" cx="28" cy="28" r="27.5"/></g><path class="b" d="M17.31,26.918a1.6,1.6,0,1,0,1.6-1.6A1.606,1.606,0,0,0,17.31,26.918Zm0-22.418v6.405h3.2V7.831A11.2,11.2,0,1,1,7.7,18.912a11.077,11.077,0,0,1,2.53-7.078l8.679,8.679,2.258-2.258L10.281,7.366V7.4a14.384,14.384,0,1,0,8.631-2.9ZM28.519,18.912a1.6,1.6,0,1,0-1.6,1.6A1.606,1.606,0,0,0,28.519,18.912Zm-19.215,0a1.6,1.6,0,1,0,1.6-1.6A1.606,1.606,0,0,0,9.3,18.912Z" transform="translate(37.588 195.588)"/></g></svg>