<svg xmlns="http://www.w3.org/2000/svg" width="24" height="24" viewBox="0 0 24 24"><defs><style>.a{fill:red;}</style></defs><path class="a" d="M128,152.857h10.286V152H128Zm0,0" transform="translate(-121.143 -143.857)"/><path class="a" d="M12,0A12,12,0,1,0,24,12,12,12,0,0,0,12,0Zm6,9.429a.429.429,0,0,1-.429.429H17.1l-.816,8.186a.429.429,0,0,1-.429.386H8.143a.429.429,0,0,1-.429-.386L6.9,9.857H6.429A.429.429,0,0,1,6,9.429V7.714a.429.429,0,0,1,.429-.429h4.365a1.27,1.27,0,0,1-.079-.429,1.286,1.286,0,1,1,2.571,0,1.27,1.27,0,0,1-.079.429h4.365A.429.429,0,0,1,18,7.714Zm0,0"/><path class="a" d="M145.612,191.714h6.941l.771-7.714H144.84Zm5.186-5.625a.429.429,0,1,1,.85.106l-.429,3.429a.428.428,0,0,1-.424.375.462.462,0,0,1-.054,0,.429.429,0,0,1-.372-.478Zm-2.145.053a.429.429,0,1,1,.857,0v3.429a.429.429,0,1,1-.857,0Zm-1.767-.425a.429.429,0,0,1,.478.372l.429,3.429a.429.429,0,0,1-.372.478l-.053,0a.429.429,0,0,1-.425-.375l-.429-3.429A.429.429,0,0,1,146.885,185.718Zm0,0" transform="translate(-137.081 -174.143)"/><path class="a" d="M216.857,120.429a.429.429,0,1,1-.429-.429A.429.429,0,0,1,216.857,120.429Zm0,0" transform="translate(-204.429 -113.571)"/></svg>