<svg xmlns="http://www.w3.org/2000/svg" width="39.804" height="39.804" viewBox="0 0 39.804 39.804"><defs><style>.a{fill:#55acee;}.b{fill:#fff;}</style></defs><g transform="translate(-0.001)"><circle class="a" cx="19.902" cy="19.902" r="19.902" transform="translate(0.001 0)"/><g transform="translate(8.906 12.072)"><path class="b" d="M48.29,36.259a9.491,9.491,0,0,1-2.732.748,4.77,4.77,0,0,0,2.092-2.631,9.523,9.523,0,0,1-3.021,1.154,4.761,4.761,0,0,0-8.107,4.34A13.5,13.5,0,0,1,26.717,34.9a4.762,4.762,0,0,0,1.472,6.351,4.724,4.724,0,0,1-2.155-.6c0,.02,0,.04,0,.06a4.76,4.76,0,0,0,3.816,4.664,4.776,4.776,0,0,1-2.148.082,4.762,4.762,0,0,0,4.444,3.3,9.6,9.6,0,0,1-7.043,1.97,13.529,13.529,0,0,0,20.827-11.4c0-.206,0-.412-.014-.615a9.647,9.647,0,0,0,2.374-2.462Z" transform="translate(-25.103 -34.028)"/></g></g></svg>