<svg xmlns="http://www.w3.org/2000/svg" width="16.774" height="18" viewBox="0 0 16.774 18"><defs><style>.a{fill:#858585;}</style></defs><g transform="translate(-17.44)"><g transform="translate(17.44 10.139)"><g transform="translate(0)"><path class="a" d="M25.827,288.389c-5.408,0-8.387,2.559-8.387,7.2a.657.657,0,0,0,.657.657h15.46a.657.657,0,0,0,.657-.657C34.214,290.948,31.235,288.389,25.827,288.389Zm-7.049,6.547c.258-3.474,2.627-5.234,7.049-5.234s6.791,1.76,7.049,5.234Z" transform="translate(-17.44 -288.389)"/></g></g><g transform="translate(21.469)"><g transform="translate(0)"><path class="a" d="M136.407,0a4.305,4.305,0,0,0-4.358,4.445,4.372,4.372,0,1,0,8.715,0A4.305,4.305,0,0,0,136.407,0Zm0,7.861a3.25,3.25,0,0,1-3.044-3.416,2.987,2.987,0,0,1,3.044-3.131,3.021,3.021,0,0,1,3.044,3.131A3.25,3.25,0,0,1,136.407,7.861Z" transform="translate(-132.049)"/></g></g></g></svg>