<svg xmlns="http://www.w3.org/2000/svg" xmlns:xlink="http://www.w3.org/1999/xlink" width="64" height="64" viewBox="0 0 64 64"><defs><style>.a{fill:#0065fe;}.b{fill:#fff;}.c{filter:url(#a);}</style><filter id="a" x="0" y="0" width="64" height="64" filterUnits="userSpaceOnUse"><feOffset dy="3" input="SourceAlpha"/><feGaussianBlur stdDeviation="3" result="b"/><feFlood flood-opacity="0.239"/><feComposite operator="in" in2="b"/><feComposite in="SourceGraphic"/></filter></defs><g transform="translate(8.598 6)"><g class="c" transform="matrix(1, 0, 0, 1, -8.6, -6)"><circle class="a" cx="23" cy="23" r="23" transform="translate(9 6)"/></g><g transform="translate(16.332 17.671)"><path class="b" d="M15.606,73.419a.62.62,0,0,0-.223-.044.529.529,0,0,0-.4.169l-3.588,3.579V75.654A2.568,2.568,0,0,0,8.831,73.09H2.564a2.47,2.47,0,0,0-1.812.752A2.47,2.47,0,0,0,0,75.654v6.267a2.469,2.469,0,0,0,.752,1.812,2.47,2.47,0,0,0,1.812.752H8.831a2.568,2.568,0,0,0,2.564-2.564V80.443l3.588,3.588a.529.529,0,0,0,.4.169.621.621,0,0,0,.223-.044.532.532,0,0,0,.347-.525V73.945A.532.532,0,0,0,15.606,73.419Z" transform="translate(0 -73.09)"/></g></g></svg>