<svg xmlns="http://www.w3.org/2000/svg" width="51" height="50" viewBox="0 0 51 50"><defs><style>.a{fill:#fff;opacity:0.41;}.b{fill:#fff3f3;}</style></defs><g transform="translate(0.176 -0.358)"><ellipse class="a" cx="25.5" cy="25" rx="25.5" ry="25" transform="translate(-0.176 0.358)"/><path class="b" d="M13.606,4.5H1.934A1.934,1.934,0,0,0,0,6.434V18.106a1.934,1.934,0,0,0,1.934,1.934H13.606a1.934,1.934,0,0,0,1.934-1.934V6.434A1.934,1.934,0,0,0,13.606,4.5Zm7.665,1.526-4.436,3.06v6.37l4.436,3.056a1.3,1.3,0,0,0,2.04-1.044V7.07A1.3,1.3,0,0,0,21.271,6.026Z" transform="translate(13.938 13.504)"/></g></svg>